solid hinge 2 linkage
facet normal 0.0 0.0 -1.0
  outer loop
    vertex 74.66545826142166 87.29718679443958 0.0
    vertex 74.75064369569901 83.6141073882737 0.0
    vertex 74.66545826142168 82.9670597755174 0.0
  endloop
endfacet
facet normal 0.0 0.0 -1.0
  outer loop
    vertex 74.75064369569901 83.6141073882737 0.0
    vertex 74.66545826142166 87.29718679443958 0.0
    vertex 75.87136303590906 87.79668890696274 0.0
  endloop
endfacet
facet normal 0.0 0.0 -1.0
  outer loop
    vertex 74.75064369569901 83.6141073882737 0.0
    vertex 75.87136303590906 87.79668890696274 0.0
    vertex 75.00039475196057 84.2170597755174 0.0
  endloop
endfacet
facet normal 0.0 0.0 -1.0
  outer loop
    vertex 75.00039475196057 84.2170597755174 0.0
    vertex 75.87136303590906 87.79668890696274 0.0
    vertex 75.39769130845531 84.73482672848375 0.0
  endloop
endfacet
facet normal 0.0 0.0 -1.0
  outer loop
    vertex 75.39769130845531 84.73482672848375 0.0
    vertex 75.87136303590906 87.79668890696274 0.0
    vertex 75.91545826142168 85.13212328497849 0.0
  endloop
endfacet
facet normal 0.0 0.0 -1.0
  outer loop
    vertex 75.91545826142168 85.13212328497849 0.0
    vertex 75.87136303590906 87.79668890696274 0.0
    vertex 77.16545826142168 87.9670597755174 0.0
  endloop
endfacet
facet normal 0.0 0.0 -1.0
  outer loop
    vertex 75.91545826142168 85.13212328497849 0.0
    vertex 77.16545826142168 87.9670597755174 0.0
    vertex 76.51841064866537 85.38187434124006 0.0
  endloop
endfacet
facet normal 0.0 0.0 -1.0
  outer loop
    vertex 76.51841064866537 85.38187434124006 0.0
    vertex 77.16545826142168 87.9670597755174 0.0
    vertex 77.16545826142168 85.4670597755174 0.0
  endloop
endfacet
facet normal 0.0 0.0 -1.0
  outer loop
    vertex 77.16545826142168 85.4670597755174 0.0
    vertex 77.16545826142168 87.9670597755174 0.0
    vertex 87.16545826142168 87.9670597755174 0.0
  endloop
endfacet
facet normal 0.0 0.0 -1.0
  outer loop
    vertex 77.16545826142168 85.4670597755174 0.0
    vertex 87.16545826142168 87.9670597755174 0.0
    vertex 77.81250587417797 85.38187434124006 0.0
  endloop
endfacet
facet normal 0.0 0.0 -1.0
  outer loop
    vertex 77.81250587417797 85.38187434124006 0.0
    vertex 87.16545826142168 87.9670597755174 0.0
    vertex 78.41545826142166 85.13212328497849 0.0
  endloop
endfacet
facet normal 0.0 0.0 -1.0
  outer loop
    vertex 78.41545826142166 85.13212328497849 0.0
    vertex 87.16545826142168 87.9670597755174 0.0
    vertex 78.93322521438803 84.73482672848375 0.0
  endloop
endfacet
facet normal 0.0 0.0 -1.0
  outer loop
    vertex 78.93322521438803 84.73482672848375 0.0
    vertex 87.16545826142168 87.9670597755174 0.0
    vertex 79.33052177088277 84.2170597755174 0.0
  endloop
endfacet
facet normal 0.0 0.0 -1.0
  outer loop
    vertex 79.33052177088277 84.2170597755174 0.0
    vertex 87.16545826142168 87.9670597755174 0.0
    vertex 79.58027282714433 83.6141073882737 0.0
  endloop
endfacet
facet normal 0.0 0.0 -1.0
  outer loop
    vertex 79.58027282714433 83.6141073882737 0.0
    vertex 87.16545826142168 87.9670597755174 0.0
    vertex 79.66545826142166 82.9670597755174 0.0
  endloop
endfacet
facet normal 0.0 0.0 -1.0
  outer loop
    vertex 79.66545826142166 82.9670597755174 0.0
    vertex 87.16545826142168 87.9670597755174 0.0
    vertex 85.00039475196058 84.2170597755174 0.0
  endloop
endfacet
facet normal 0.0 0.0 -1.0
  outer loop
    vertex 79.66545826142166 82.9670597755174 0.0
    vertex 85.00039475196058 84.2170597755174 0.0
    vertex 84.75064369569901 83.6141073882737 0.0
  endloop
endfacet
facet normal 0.0 0.0 -1.0
  outer loop
    vertex 79.66545826142166 82.9670597755174 0.0
    vertex 84.75064369569901 83.6141073882737 0.0
    vertex 84.66545826142168 82.9670597755174 0.0
  endloop
endfacet
facet normal 0.0 0.0 -1.0
  outer loop
    vertex 85.00039475196058 84.2170597755174 0.0
    vertex 87.16545826142168 87.9670597755174 0.0
    vertex 85.39769130845531 84.73482672848375 0.0
  endloop
endfacet
facet normal 0.0 0.0 -1.0
  outer loop
    vertex 85.39769130845531 84.73482672848375 0.0
    vertex 87.16545826142168 87.9670597755174 0.0
    vertex 85.91545826142168 85.13212328497849 0.0
  endloop
endfacet
facet normal 0.0 0.0 -1.0
  outer loop
    vertex 85.91545826142168 85.13212328497849 0.0
    vertex 87.16545826142168 87.9670597755174 0.0
    vertex 86.51841064866538 85.38187434124006 0.0
  endloop
endfacet
facet normal 0.0 0.0 -1.0
  outer loop
    vertex 86.51841064866538 85.38187434124006 0.0
    vertex 87.16545826142168 87.9670597755174 0.0
    vertex 87.16545826142168 85.4670597755174 0.0
  endloop
endfacet
facet normal 0.0 0.0 -1.0
  outer loop
    vertex 87.16545826142168 85.4670597755174 0.0
    vertex 87.16545826142168 87.9670597755174 0.0
    vertex 88.45955348693428 87.79668890696274 0.0
  endloop
endfacet
facet normal 0.0 0.0 -1.0
  outer loop
    vertex 87.16545826142168 85.4670597755174 0.0
    vertex 88.45955348693428 87.79668890696274 0.0
    vertex 87.81250587417797 85.38187434124006 0.0
  endloop
endfacet
facet normal 0.0 0.0 -1.0
  outer loop
    vertex 87.81250587417797 85.38187434124006 0.0
    vertex 88.45955348693428 87.79668890696274 0.0
    vertex 88.41545826142168 85.13212328497849 0.0
  endloop
endfacet
facet normal 0.0 0.0 -1.0
  outer loop
    vertex 88.41545826142168 85.13212328497849 0.0
    vertex 88.45955348693428 87.79668890696274 0.0
    vertex 88.93322521438803 84.73482672848375 0.0
  endloop
endfacet
facet normal 0.0 0.0 -1.0
  outer loop
    vertex 88.93322521438803 84.73482672848375 0.0
    vertex 88.45955348693428 87.79668890696274 0.0
    vertex 89.66545826142168 87.29718679443958 0.0
  endloop
endfacet
facet normal 0.0 0.0 -1.0
  outer loop
    vertex 88.93322521438803 84.73482672848375 0.0
    vertex 89.66545826142168 87.29718679443958 0.0
    vertex 89.33052177088277 84.2170597755174 0.0
  endloop
endfacet
facet normal 0.0 0.0 -1.0
  outer loop
    vertex 89.33052177088277 84.2170597755174 0.0
    vertex 89.66545826142168 87.29718679443958 0.0
    vertex 89.58027282714434 83.6141073882737 0.0
  endloop
endfacet
facet normal 0.0 0.0 -1.0
  outer loop
    vertex 89.58027282714434 83.6141073882737 0.0
    vertex 89.66545826142168 87.29718679443958 0.0
    vertex 89.66545826142168 82.9670597755174 0.0
  endloop
endfacet
facet normal 0.0 0.0 -1.0
  outer loop
    vertex 89.66545826142168 82.9670597755174 0.0
    vertex 89.66545826142168 87.29718679443958 0.0
    vertex 90.70099216735441 86.50259368145014 0.0
  endloop
endfacet
facet normal 0.0 0.0 -1.0
  outer loop
    vertex 89.66545826142168 82.9670597755174 0.0
    vertex 90.70099216735441 86.50259368145014 0.0
    vertex 89.66545826142168 78.63693275659521 0.0
  endloop
endfacet
facet normal 0.0 0.0 -1.0
  outer loop
    vertex 89.66545826142168 78.63693275659521 0.0
    vertex 90.70099216735441 86.50259368145014 0.0
    vertex 90.70099216735441 79.43152586958466 0.0
  endloop
endfacet
facet normal 0.0 0.0 -1.0
  outer loop
    vertex 90.70099216735441 79.43152586958466 0.0
    vertex 90.70099216735441 86.50259368145014 0.0
    vertex 91.49558528034386 85.4670597755174 0.0
  endloop
endfacet
facet normal 0.0 0.0 -1.0
  outer loop
    vertex 90.70099216735441 79.43152586958466 0.0
    vertex 91.49558528034386 85.4670597755174 0.0
    vertex 91.49558528034386 80.4670597755174 0.0
  endloop
endfacet
facet normal 0.0 0.0 -1.0
  outer loop
    vertex 91.49558528034386 80.4670597755174 0.0
    vertex 91.49558528034386 85.4670597755174 0.0
    vertex 91.99508739286702 84.26115500103 0.0
  endloop
endfacet
facet normal 0.0 0.0 -1.0
  outer loop
    vertex 91.49558528034386 80.4670597755174 0.0
    vertex 91.99508739286702 84.26115500103 0.0
    vertex 91.99508739286702 81.67296455000479 0.0
  endloop
endfacet
facet normal 0.0 0.0 -1.0
  outer loop
    vertex 91.99508739286702 81.67296455000479 0.0
    vertex 91.99508739286702 84.26115500103 0.0
    vertex 92.16545826142168 82.9670597755174 0.0
  endloop
endfacet
facet normal 0.0 0.0 -1.0
  outer loop
    vertex 72.33582912997632 84.26115500103 0.0
    vertex 72.33582912997633 81.67296455000479 0.0
    vertex 72.16545826142166 82.9670597755174 0.0
  endloop
endfacet
facet normal 0.0 0.0 -1.0
  outer loop
    vertex 72.33582912997633 81.67296455000479 0.0
    vertex 72.33582912997632 84.26115500103 0.0
    vertex 72.83533124249946 85.4670597755174 0.0
  endloop
endfacet
facet normal 0.0 0.0 -1.0
  outer loop
    vertex 72.33582912997633 81.67296455000479 0.0
    vertex 72.83533124249946 85.4670597755174 0.0
    vertex 72.83533124249948 80.4670597755174 0.0
  endloop
endfacet
facet normal 0.0 0.0 -1.0
  outer loop
    vertex 72.83533124249948 80.4670597755174 0.0
    vertex 72.83533124249946 85.4670597755174 0.0
    vertex 73.62992435548894 86.50259368145014 0.0
  endloop
endfacet
facet normal 0.0 0.0 -1.0
  outer loop
    vertex 72.83533124249948 80.4670597755174 0.0
    vertex 73.62992435548894 86.50259368145014 0.0
    vertex 73.62992435548894 79.43152586958465 0.0
  endloop
endfacet
facet normal 0.0 0.0 -1.0
  outer loop
    vertex 73.62992435548894 79.43152586958465 0.0
    vertex 73.62992435548894 86.50259368145014 0.0
    vertex 74.66545826142166 87.29718679443958 0.0
  endloop
endfacet
facet normal 0.0 0.0 -1.0
  outer loop
    vertex 73.62992435548894 79.43152586958465 0.0
    vertex 74.66545826142166 87.29718679443958 0.0
    vertex 74.66545826142168 78.63693275659521 0.0
  endloop
endfacet
facet normal 0.0 0.0 -1.0
  outer loop
    vertex 74.66545826142168 78.63693275659521 0.0
    vertex 74.66545826142166 87.29718679443958 0.0
    vertex 74.66545826142168 82.9670597755174 0.0
  endloop
endfacet
facet normal 0.0 0.0 -1.0
  outer loop
    vertex 74.66545826142168 78.63693275659521 0.0
    vertex 74.66545826142168 82.9670597755174 0.0
    vertex 74.75064369569901 82.3200121627611 0.0
  endloop
endfacet
facet normal 0.0 0.0 -1.0
  outer loop
    vertex 74.66545826142168 78.63693275659521 0.0
    vertex 74.75064369569901 82.3200121627611 0.0
    vertex 75.87136303590907 78.13743064407205 0.0
  endloop
endfacet
facet normal 0.0 0.0 -1.0
  outer loop
    vertex 75.87136303590907 78.13743064407205 0.0
    vertex 74.75064369569901 82.3200121627611 0.0
    vertex 75.00039475196057 81.7170597755174 0.0
  endloop
endfacet
facet normal 0.0 0.0 -1.0
  outer loop
    vertex 75.87136303590907 78.13743064407205 0.0
    vertex 75.00039475196057 81.7170597755174 0.0
    vertex 75.39769130845531 81.19929282255103 0.0
  endloop
endfacet
facet normal 0.0 0.0 -1.0
  outer loop
    vertex 75.87136303590907 78.13743064407205 0.0
    vertex 75.39769130845531 81.19929282255103 0.0
    vertex 75.91545826142168 80.8019962660563 0.0
  endloop
endfacet
facet normal 0.0 0.0 -1.0
  outer loop
    vertex 75.87136303590907 78.13743064407205 0.0
    vertex 75.91545826142168 80.8019962660563 0.0
    vertex 77.16545826142168 77.9670597755174 0.0
  endloop
endfacet
facet normal 0.0 0.0 -1.0
  outer loop
    vertex 77.16545826142168 77.9670597755174 0.0
    vertex 75.91545826142168 80.8019962660563 0.0
    vertex 76.51841064866537 80.55224520979473 0.0
  endloop
endfacet
facet normal 0.0 0.0 -1.0
  outer loop
    vertex 77.16545826142168 77.9670597755174 0.0
    vertex 76.51841064866537 80.55224520979473 0.0
    vertex 77.16545826142168 80.4670597755174 0.0
  endloop
endfacet
facet normal 0.0 0.0 -1.0
  outer loop
    vertex 77.16545826142168 77.9670597755174 0.0
    vertex 77.16545826142168 80.4670597755174 0.0
    vertex 77.81250587417797 80.55224520979473 0.0
  endloop
endfacet
facet normal 0.0 0.0 -1.0
  outer loop
    vertex 77.16545826142168 77.9670597755174 0.0
    vertex 77.81250587417797 80.55224520979473 0.0
    vertex 87.16545826142168 77.9670597755174 0.0
  endloop
endfacet
facet normal 0.0 0.0 -1.0
  outer loop
    vertex 87.16545826142168 77.9670597755174 0.0
    vertex 77.81250587417797 80.55224520979473 0.0
    vertex 78.41545826142166 80.8019962660563 0.0
  endloop
endfacet
facet normal 0.0 0.0 -1.0
  outer loop
    vertex 87.16545826142168 77.9670597755174 0.0
    vertex 78.41545826142166 80.8019962660563 0.0
    vertex 78.93322521438803 81.19929282255103 0.0
  endloop
endfacet
facet normal 0.0 0.0 -1.0
  outer loop
    vertex 87.16545826142168 77.9670597755174 0.0
    vertex 78.93322521438803 81.19929282255103 0.0
    vertex 79.33052177088277 81.7170597755174 0.0
  endloop
endfacet
facet normal 0.0 0.0 -1.0
  outer loop
    vertex 87.16545826142168 77.9670597755174 0.0
    vertex 79.33052177088277 81.7170597755174 0.0
    vertex 79.58027282714433 82.3200121627611 0.0
  endloop
endfacet
facet normal 0.0 0.0 -1.0
  outer loop
    vertex 87.16545826142168 77.9670597755174 0.0
    vertex 79.58027282714433 82.3200121627611 0.0
    vertex 79.66545826142166 82.9670597755174 0.0
  endloop
endfacet
facet normal 0.0 0.0 -1.0
  outer loop
    vertex 87.16545826142168 77.9670597755174 0.0
    vertex 79.66545826142166 82.9670597755174 0.0
    vertex 85.00039475196058 81.7170597755174 0.0
  endloop
endfacet
facet normal 0.0 0.0 -1.0
  outer loop
    vertex 85.00039475196058 81.7170597755174 0.0
    vertex 79.66545826142166 82.9670597755174 0.0
    vertex 84.75064369569901 82.3200121627611 0.0
  endloop
endfacet
facet normal 0.0 0.0 -1.0
  outer loop
    vertex 84.75064369569901 82.3200121627611 0.0
    vertex 79.66545826142166 82.9670597755174 0.0
    vertex 84.66545826142168 82.9670597755174 0.0
  endloop
endfacet
facet normal 0.0 0.0 -1.0
  outer loop
    vertex 87.16545826142168 77.9670597755174 0.0
    vertex 85.00039475196058 81.7170597755174 0.0
    vertex 85.39769130845531 81.19929282255103 0.0
  endloop
endfacet
facet normal 0.0 0.0 -1.0
  outer loop
    vertex 87.16545826142168 77.9670597755174 0.0
    vertex 85.39769130845531 81.19929282255103 0.0
    vertex 85.91545826142168 80.8019962660563 0.0
  endloop
endfacet
facet normal 0.0 0.0 -1.0
  outer loop
    vertex 87.16545826142168 77.9670597755174 0.0
    vertex 85.91545826142168 80.8019962660563 0.0
    vertex 86.51841064866538 80.55224520979473 0.0
  endloop
endfacet
facet normal 0.0 0.0 -1.0
  outer loop
    vertex 87.16545826142168 77.9670597755174 0.0
    vertex 86.51841064866538 80.55224520979473 0.0
    vertex 87.16545826142168 80.4670597755174 0.0
  endloop
endfacet
facet normal 0.0 0.0 -1.0
  outer loop
    vertex 87.16545826142168 77.9670597755174 0.0
    vertex 87.16545826142168 80.4670597755174 0.0
    vertex 87.81250587417797 80.55224520979473 0.0
  endloop
endfacet
facet normal 0.0 0.0 -1.0
  outer loop
    vertex 87.16545826142168 77.9670597755174 0.0
    vertex 87.81250587417797 80.55224520979473 0.0
    vertex 88.45955348693428 78.13743064407205 0.0
  endloop
endfacet
facet normal 0.0 0.0 -1.0
  outer loop
    vertex 88.45955348693428 78.13743064407205 0.0
    vertex 87.81250587417797 80.55224520979473 0.0
    vertex 88.41545826142168 80.8019962660563 0.0
  endloop
endfacet
facet normal 0.0 0.0 -1.0
  outer loop
    vertex 88.45955348693428 78.13743064407205 0.0
    vertex 88.41545826142168 80.8019962660563 0.0
    vertex 88.93322521438803 81.19929282255103 0.0
  endloop
endfacet
facet normal 0.0 0.0 -1.0
  outer loop
    vertex 88.45955348693428 78.13743064407205 0.0
    vertex 88.93322521438803 81.19929282255103 0.0
    vertex 89.66545826142168 78.63693275659521 0.0
  endloop
endfacet
facet normal 0.0 0.0 -1.0
  outer loop
    vertex 89.66545826142168 78.63693275659521 0.0
    vertex 88.93322521438803 81.19929282255103 0.0
    vertex 89.33052177088277 81.7170597755174 0.0
  endloop
endfacet
facet normal 0.0 0.0 -1.0
  outer loop
    vertex 89.66545826142168 78.63693275659521 0.0
    vertex 89.33052177088277 81.7170597755174 0.0
    vertex 89.58027282714434 82.3200121627611 0.0
  endloop
endfacet
facet normal 0.0 0.0 -1.0
  outer loop
    vertex 89.66545826142168 78.63693275659521 0.0
    vertex 89.58027282714434 82.3200121627611 0.0
    vertex 89.66545826142168 82.9670597755174 0.0
  endloop
endfacet
facet normal -0.0 -0.0 1.0
  outer loop
    vertex 74.66545826142168 78.63693275659521 8.5
    vertex 74.75064369569901 82.3200121627611 8.5
    vertex 74.66545826142168 82.9670597755174 8.5
  endloop
endfacet
facet normal -0.0 -0.0 1.0
  outer loop
    vertex 74.75064369569901 82.3200121627611 8.5
    vertex 74.66545826142168 78.63693275659521 8.5
    vertex 75.87136303590907 78.13743064407205 8.5
  endloop
endfacet
facet normal -0.0 -0.0 1.0
  outer loop
    vertex 74.75064369569901 82.3200121627611 8.5
    vertex 75.87136303590907 78.13743064407205 8.5
    vertex 75.00039475196057 81.7170597755174 8.5
  endloop
endfacet
facet normal -0.0 -0.0 1.0
  outer loop
    vertex 75.00039475196057 81.7170597755174 8.5
    vertex 75.87136303590907 78.13743064407205 8.5
    vertex 75.39769130845531 81.19929282255103 8.5
  endloop
endfacet
facet normal -0.0 -0.0 1.0
  outer loop
    vertex 75.39769130845531 81.19929282255103 8.5
    vertex 75.87136303590907 78.13743064407205 8.5
    vertex 75.91545826142168 80.8019962660563 8.5
  endloop
endfacet
facet normal -0.0 -0.0 1.0
  outer loop
    vertex 75.91545826142168 80.8019962660563 8.5
    vertex 75.87136303590907 78.13743064407205 8.5
    vertex 77.16545826142168 77.9670597755174 8.5
  endloop
endfacet
facet normal -0.0 -0.0 1.0
  outer loop
    vertex 75.91545826142168 80.8019962660563 8.5
    vertex 77.16545826142168 77.9670597755174 8.5
    vertex 76.51841064866537 80.55224520979473 8.5
  endloop
endfacet
facet normal -0.0 -0.0 1.0
  outer loop
    vertex 76.51841064866537 80.55224520979473 8.5
    vertex 77.16545826142168 77.9670597755174 8.5
    vertex 77.16545826142168 80.4670597755174 8.5
  endloop
endfacet
facet normal -0.0 -0.0 1.0
  outer loop
    vertex 77.16545826142168 80.4670597755174 8.5
    vertex 77.16545826142168 77.9670597755174 8.5
    vertex 87.16545826142168 77.9670597755174 8.5
  endloop
endfacet
facet normal -0.0 -0.0 1.0
  outer loop
    vertex 77.16545826142168 80.4670597755174 8.5
    vertex 87.16545826142168 77.9670597755174 8.5
    vertex 77.81250587417797 80.55224520979473 8.5
  endloop
endfacet
facet normal -0.0 -0.0 1.0
  outer loop
    vertex 77.81250587417797 80.55224520979473 8.5
    vertex 87.16545826142168 77.9670597755174 8.5
    vertex 78.41545826142166 80.8019962660563 8.5
  endloop
endfacet
facet normal -0.0 -0.0 1.0
  outer loop
    vertex 78.41545826142166 80.8019962660563 8.5
    vertex 87.16545826142168 77.9670597755174 8.5
    vertex 78.93322521438803 81.19929282255103 8.5
  endloop
endfacet
facet normal -0.0 -0.0 1.0
  outer loop
    vertex 78.93322521438803 81.19929282255103 8.5
    vertex 87.16545826142168 77.9670597755174 8.5
    vertex 79.33052177088277 81.7170597755174 8.5
  endloop
endfacet
facet normal -0.0 -0.0 1.0
  outer loop
    vertex 79.33052177088277 81.7170597755174 8.5
    vertex 87.16545826142168 77.9670597755174 8.5
    vertex 79.58027282714433 82.3200121627611 8.5
  endloop
endfacet
facet normal -0.0 -0.0 1.0
  outer loop
    vertex 79.58027282714433 82.3200121627611 8.5
    vertex 87.16545826142168 77.9670597755174 8.5
    vertex 79.66545826142166 82.9670597755174 8.5
  endloop
endfacet
facet normal -0.0 -0.0 1.0
  outer loop
    vertex 79.66545826142166 82.9670597755174 8.5
    vertex 87.16545826142168 77.9670597755174 8.5
    vertex 85.00039475196058 81.7170597755174 8.5
  endloop
endfacet
facet normal -0.0 -0.0 1.0
  outer loop
    vertex 79.66545826142166 82.9670597755174 8.5
    vertex 85.00039475196058 81.7170597755174 8.5
    vertex 84.75064369569901 82.3200121627611 8.5
  endloop
endfacet
facet normal -0.0 -0.0 1.0
  outer loop
    vertex 79.66545826142166 82.9670597755174 8.5
    vertex 84.75064369569901 82.3200121627611 8.5
    vertex 84.66545826142168 82.9670597755174 8.5
  endloop
endfacet
facet normal -0.0 -0.0 1.0
  outer loop
    vertex 85.00039475196058 81.7170597755174 8.5
    vertex 87.16545826142168 77.9670597755174 8.5
    vertex 85.39769130845531 81.19929282255103 8.5
  endloop
endfacet
facet normal -0.0 -0.0 1.0
  outer loop
    vertex 85.39769130845531 81.19929282255103 8.5
    vertex 87.16545826142168 77.9670597755174 8.5
    vertex 85.91545826142168 80.8019962660563 8.5
  endloop
endfacet
facet normal -0.0 -0.0 1.0
  outer loop
    vertex 85.91545826142168 80.8019962660563 8.5
    vertex 87.16545826142168 77.9670597755174 8.5
    vertex 86.51841064866538 80.55224520979473 8.5
  endloop
endfacet
facet normal -0.0 -0.0 1.0
  outer loop
    vertex 86.51841064866538 80.55224520979473 8.5
    vertex 87.16545826142168 77.9670597755174 8.5
    vertex 87.16545826142168 80.4670597755174 8.5
  endloop
endfacet
facet normal -0.0 -0.0 1.0
  outer loop
    vertex 87.16545826142168 80.4670597755174 8.5
    vertex 87.16545826142168 77.9670597755174 8.5
    vertex 88.45955348693428 78.13743064407205 8.5
  endloop
endfacet
facet normal -0.0 -0.0 1.0
  outer loop
    vertex 87.16545826142168 80.4670597755174 8.5
    vertex 88.45955348693428 78.13743064407205 8.5
    vertex 87.81250587417797 80.55224520979473 8.5
  endloop
endfacet
facet normal -0.0 -0.0 1.0
  outer loop
    vertex 87.81250587417797 80.55224520979473 8.5
    vertex 88.45955348693428 78.13743064407205 8.5
    vertex 88.41545826142168 80.8019962660563 8.5
  endloop
endfacet
facet normal -0.0 -0.0 1.0
  outer loop
    vertex 88.41545826142168 80.8019962660563 8.5
    vertex 88.45955348693428 78.13743064407205 8.5
    vertex 88.93322521438803 81.19929282255103 8.5
  endloop
endfacet
facet normal -0.0 -0.0 1.0
  outer loop
    vertex 88.93322521438803 81.19929282255103 8.5
    vertex 88.45955348693428 78.13743064407205 8.5
    vertex 89.66545826142168 78.63693275659521 8.5
  endloop
endfacet
facet normal -0.0 -0.0 1.0
  outer loop
    vertex 88.93322521438803 81.19929282255103 8.5
    vertex 89.66545826142168 78.63693275659521 8.5
    vertex 89.33052177088277 81.7170597755174 8.5
  endloop
endfacet
facet normal -0.0 -0.0 1.0
  outer loop
    vertex 89.33052177088277 81.7170597755174 8.5
    vertex 89.66545826142168 78.63693275659521 8.5
    vertex 89.58027282714434 82.3200121627611 8.5
  endloop
endfacet
facet normal -0.0 -0.0 1.0
  outer loop
    vertex 89.58027282714434 82.3200121627611 8.5
    vertex 89.66545826142168 78.63693275659521 8.5
    vertex 89.66545826142168 82.9670597755174 8.5
  endloop
endfacet
facet normal -0.0 -0.0 1.0
  outer loop
    vertex 89.66545826142168 82.9670597755174 8.5
    vertex 89.66545826142168 78.63693275659521 8.5
    vertex 89.66545826142168 87.29718679443958 8.5
  endloop
endfacet
facet normal -0.0 -0.0 1.0
  outer loop
    vertex 89.66545826142168 87.29718679443958 8.5
    vertex 89.66545826142168 78.63693275659521 8.5
    vertex 90.70099216735441 86.50259368145014 8.5
  endloop
endfacet
facet normal -0.0 -0.0 1.0
  outer loop
    vertex 90.70099216735441 86.50259368145014 8.5
    vertex 89.66545826142168 78.63693275659521 8.5
    vertex 90.70099216735441 79.43152586958466 8.5
  endloop
endfacet
facet normal -0.0 -0.0 1.0
  outer loop
    vertex 90.70099216735441 86.50259368145014 8.5
    vertex 90.70099216735441 79.43152586958466 8.5
    vertex 91.49558528034386 80.4670597755174 8.5
  endloop
endfacet
facet normal -0.0 -0.0 1.0
  outer loop
    vertex 90.70099216735441 86.50259368145014 8.5
    vertex 91.49558528034386 80.4670597755174 8.5
    vertex 91.49558528034386 85.4670597755174 8.5
  endloop
endfacet
facet normal -0.0 -0.0 1.0
  outer loop
    vertex 91.49558528034386 85.4670597755174 8.5
    vertex 91.49558528034386 80.4670597755174 8.5
    vertex 91.99508739286702 81.67296455000479 8.5
  endloop
endfacet
facet normal -0.0 -0.0 1.0
  outer loop
    vertex 91.49558528034386 85.4670597755174 8.5
    vertex 91.99508739286702 81.67296455000479 8.5
    vertex 91.99508739286702 84.26115500103 8.5
  endloop
endfacet
facet normal -0.0 -0.0 1.0
  outer loop
    vertex 91.99508739286702 84.26115500103 8.5
    vertex 91.99508739286702 81.67296455000479 8.5
    vertex 92.16545826142168 82.9670597755174 8.5
  endloop
endfacet
facet normal -0.0 -0.0 1.0
  outer loop
    vertex 72.33582912997633 81.67296455000479 8.5
    vertex 72.33582912997632 84.26115500103 8.5
    vertex 72.16545826142166 82.9670597755174 8.5
  endloop
endfacet
facet normal -0.0 -0.0 1.0
  outer loop
    vertex 72.33582912997632 84.26115500103 8.5
    vertex 72.33582912997633 81.67296455000479 8.5
    vertex 72.83533124249946 85.4670597755174 8.5
  endloop
endfacet
facet normal -0.0 -0.0 1.0
  outer loop
    vertex 72.83533124249946 85.4670597755174 8.5
    vertex 72.33582912997633 81.67296455000479 8.5
    vertex 72.83533124249948 80.4670597755174 8.5
  endloop
endfacet
facet normal -0.0 -0.0 1.0
  outer loop
    vertex 72.83533124249946 85.4670597755174 8.5
    vertex 72.83533124249948 80.4670597755174 8.5
    vertex 73.62992435548894 86.50259368145014 8.5
  endloop
endfacet
facet normal -0.0 -0.0 1.0
  outer loop
    vertex 73.62992435548894 86.50259368145014 8.5
    vertex 72.83533124249948 80.4670597755174 8.5
    vertex 73.62992435548894 79.43152586958465 8.5
  endloop
endfacet
facet normal -0.0 -0.0 1.0
  outer loop
    vertex 73.62992435548894 86.50259368145014 8.5
    vertex 73.62992435548894 79.43152586958465 8.5
    vertex 74.66545826142168 78.63693275659521 8.5
  endloop
endfacet
facet normal -0.0 -0.0 1.0
  outer loop
    vertex 73.62992435548894 86.50259368145014 8.5
    vertex 74.66545826142168 78.63693275659521 8.5
    vertex 74.66545826142166 87.29718679443958 8.5
  endloop
endfacet
facet normal -0.0 -0.0 1.0
  outer loop
    vertex 74.66545826142166 87.29718679443958 8.5
    vertex 74.66545826142168 78.63693275659521 8.5
    vertex 74.66545826142168 82.9670597755174 8.5
  endloop
endfacet
facet normal -0.0 -0.0 1.0
  outer loop
    vertex 74.66545826142166 87.29718679443958 8.5
    vertex 74.66545826142168 82.9670597755174 8.5
    vertex 74.75064369569901 83.6141073882737 8.5
  endloop
endfacet
facet normal -0.0 -0.0 1.0
  outer loop
    vertex 74.66545826142166 87.29718679443958 8.5
    vertex 74.75064369569901 83.6141073882737 8.5
    vertex 75.87136303590906 87.79668890696274 8.5
  endloop
endfacet
facet normal -0.0 -0.0 1.0
  outer loop
    vertex 75.87136303590906 87.79668890696274 8.5
    vertex 74.75064369569901 83.6141073882737 8.5
    vertex 75.00039475196057 84.2170597755174 8.5
  endloop
endfacet
facet normal -0.0 -0.0 1.0
  outer loop
    vertex 75.87136303590906 87.79668890696274 8.5
    vertex 75.00039475196057 84.2170597755174 8.5
    vertex 75.39769130845531 84.73482672848375 8.5
  endloop
endfacet
facet normal -0.0 -0.0 1.0
  outer loop
    vertex 75.87136303590906 87.79668890696274 8.5
    vertex 75.39769130845531 84.73482672848375 8.5
    vertex 75.91545826142168 85.13212328497849 8.5
  endloop
endfacet
facet normal -0.0 -0.0 1.0
  outer loop
    vertex 75.87136303590906 87.79668890696274 8.5
    vertex 75.91545826142168 85.13212328497849 8.5
    vertex 77.16545826142168 87.9670597755174 8.5
  endloop
endfacet
facet normal -0.0 -0.0 1.0
  outer loop
    vertex 77.16545826142168 87.9670597755174 8.5
    vertex 75.91545826142168 85.13212328497849 8.5
    vertex 76.51841064866537 85.38187434124006 8.5
  endloop
endfacet
facet normal -0.0 -0.0 1.0
  outer loop
    vertex 77.16545826142168 87.9670597755174 8.5
    vertex 76.51841064866537 85.38187434124006 8.5
    vertex 77.16545826142168 85.4670597755174 8.5
  endloop
endfacet
facet normal -0.0 -0.0 1.0
  outer loop
    vertex 77.16545826142168 87.9670597755174 8.5
    vertex 77.16545826142168 85.4670597755174 8.5
    vertex 77.81250587417797 85.38187434124006 8.5
  endloop
endfacet
facet normal -0.0 -0.0 1.0
  outer loop
    vertex 77.16545826142168 87.9670597755174 8.5
    vertex 77.81250587417797 85.38187434124006 8.5
    vertex 87.16545826142168 87.9670597755174 8.5
  endloop
endfacet
facet normal -0.0 -0.0 1.0
  outer loop
    vertex 87.16545826142168 87.9670597755174 8.5
    vertex 77.81250587417797 85.38187434124006 8.5
    vertex 78.41545826142166 85.13212328497849 8.5
  endloop
endfacet
facet normal -0.0 -0.0 1.0
  outer loop
    vertex 87.16545826142168 87.9670597755174 8.5
    vertex 78.41545826142166 85.13212328497849 8.5
    vertex 78.93322521438803 84.73482672848375 8.5
  endloop
endfacet
facet normal -0.0 -0.0 1.0
  outer loop
    vertex 87.16545826142168 87.9670597755174 8.5
    vertex 78.93322521438803 84.73482672848375 8.5
    vertex 79.33052177088277 84.2170597755174 8.5
  endloop
endfacet
facet normal -0.0 -0.0 1.0
  outer loop
    vertex 87.16545826142168 87.9670597755174 8.5
    vertex 79.33052177088277 84.2170597755174 8.5
    vertex 79.58027282714433 83.6141073882737 8.5
  endloop
endfacet
facet normal -0.0 -0.0 1.0
  outer loop
    vertex 87.16545826142168 87.9670597755174 8.5
    vertex 79.58027282714433 83.6141073882737 8.5
    vertex 79.66545826142166 82.9670597755174 8.5
  endloop
endfacet
facet normal -0.0 -0.0 1.0
  outer loop
    vertex 87.16545826142168 87.9670597755174 8.5
    vertex 79.66545826142166 82.9670597755174 8.5
    vertex 85.00039475196058 84.2170597755174 8.5
  endloop
endfacet
facet normal -0.0 -0.0 1.0
  outer loop
    vertex 85.00039475196058 84.2170597755174 8.5
    vertex 79.66545826142166 82.9670597755174 8.5
    vertex 84.75064369569901 83.6141073882737 8.5
  endloop
endfacet
facet normal -0.0 -0.0 1.0
  outer loop
    vertex 84.75064369569901 83.6141073882737 8.5
    vertex 79.66545826142166 82.9670597755174 8.5
    vertex 84.66545826142168 82.9670597755174 8.5
  endloop
endfacet
facet normal -0.0 -0.0 1.0
  outer loop
    vertex 87.16545826142168 87.9670597755174 8.5
    vertex 85.00039475196058 84.2170597755174 8.5
    vertex 85.39769130845531 84.73482672848375 8.5
  endloop
endfacet
facet normal -0.0 -0.0 1.0
  outer loop
    vertex 87.16545826142168 87.9670597755174 8.5
    vertex 85.39769130845531 84.73482672848375 8.5
    vertex 85.91545826142168 85.13212328497849 8.5
  endloop
endfacet
facet normal -0.0 -0.0 1.0
  outer loop
    vertex 87.16545826142168 87.9670597755174 8.5
    vertex 85.91545826142168 85.13212328497849 8.5
    vertex 86.51841064866538 85.38187434124006 8.5
  endloop
endfacet
facet normal -0.0 -0.0 1.0
  outer loop
    vertex 87.16545826142168 87.9670597755174 8.5
    vertex 86.51841064866538 85.38187434124006 8.5
    vertex 87.16545826142168 85.4670597755174 8.5
  endloop
endfacet
facet normal -0.0 -0.0 1.0
  outer loop
    vertex 87.16545826142168 87.9670597755174 8.5
    vertex 87.16545826142168 85.4670597755174 8.5
    vertex 87.81250587417797 85.38187434124006 8.5
  endloop
endfacet
facet normal -0.0 -0.0 1.0
  outer loop
    vertex 87.16545826142168 87.9670597755174 8.5
    vertex 87.81250587417797 85.38187434124006 8.5
    vertex 88.45955348693428 87.79668890696274 8.5
  endloop
endfacet
facet normal -0.0 -0.0 1.0
  outer loop
    vertex 88.45955348693428 87.79668890696274 8.5
    vertex 87.81250587417797 85.38187434124006 8.5
    vertex 88.41545826142168 85.13212328497849 8.5
  endloop
endfacet
facet normal -0.0 -0.0 1.0
  outer loop
    vertex 88.45955348693428 87.79668890696274 8.5
    vertex 88.41545826142168 85.13212328497849 8.5
    vertex 88.93322521438803 84.73482672848375 8.5
  endloop
endfacet
facet normal -0.0 -0.0 1.0
  outer loop
    vertex 88.45955348693428 87.79668890696274 8.5
    vertex 88.93322521438803 84.73482672848375 8.5
    vertex 89.66545826142168 87.29718679443958 8.5
  endloop
endfacet
facet normal -0.0 -0.0 1.0
  outer loop
    vertex 89.66545826142168 87.29718679443958 8.5
    vertex 88.93322521438803 84.73482672848375 8.5
    vertex 89.33052177088277 84.2170597755174 8.5
  endloop
endfacet
facet normal -0.0 -0.0 1.0
  outer loop
    vertex 89.66545826142168 87.29718679443958 8.5
    vertex 89.33052177088277 84.2170597755174 8.5
    vertex 89.58027282714434 83.6141073882737 8.5
  endloop
endfacet
facet normal -0.0 -0.0 1.0
  outer loop
    vertex 89.66545826142168 87.29718679443958 8.5
    vertex 89.58027282714434 83.6141073882737 8.5
    vertex 89.66545826142168 82.9670597755174 8.5
  endloop
endfacet
facet normal -0.0 1.0 0.0
  outer loop
    vertex 77.16545826142168 87.9670597755174 8.5
    vertex 87.16545826142168 87.9670597755174 0.0
    vertex 77.16545826142168 87.9670597755174 0.0
  endloop
endfacet
facet normal -0.0 1.0 0.0
  outer loop
    vertex 87.16545826142168 87.9670597755174 0.0
    vertex 77.16545826142168 87.9670597755174 8.5
    vertex 87.16545826142168 87.9670597755174 8.5
  endloop
endfacet
facet normal 0.13052619222004763 0.9914448613738109 0.0
  outer loop
    vertex 87.16545826142168 87.9670597755174 8.5
    vertex 88.45955348693428 87.79668890696274 0.0
    vertex 87.16545826142168 87.9670597755174 0.0
  endloop
endfacet
facet normal 0.13052619222004763 0.9914448613738109 0.0
  outer loop
    vertex 88.45955348693428 87.79668890696274 0.0
    vertex 87.16545826142168 87.9670597755174 8.5
    vertex 88.45955348693428 87.79668890696274 8.5
  endloop
endfacet
facet normal 0.3826834323650976 0.9238795325112836 0.0
  outer loop
    vertex 88.45955348693428 87.79668890696274 8.5
    vertex 89.66545826142168 87.29718679443958 0.0
    vertex 88.45955348693428 87.79668890696274 0.0
  endloop
endfacet
facet normal 0.3826834323650976 0.9238795325112836 0.0
  outer loop
    vertex 89.66545826142168 87.29718679443958 0.0
    vertex 88.45955348693428 87.79668890696274 8.5
    vertex 89.66545826142168 87.29718679443958 8.5
  endloop
endfacet
facet normal 0.6087614290087197 0.7933533402912362 0.0
  outer loop
    vertex 89.66545826142168 87.29718679443958 8.5
    vertex 90.70099216735441 86.50259368145014 0.0
    vertex 89.66545826142168 87.29718679443958 0.0
  endloop
endfacet
facet normal 0.6087614290087197 0.7933533402912362 0.0
  outer loop
    vertex 90.70099216735441 86.50259368145014 0.0
    vertex 89.66545826142168 87.29718679443958 8.5
    vertex 90.70099216735441 86.50259368145014 8.5
  endloop
endfacet
facet normal 0.793353340291233 0.6087614290087238 0.0
  outer loop
    vertex 90.70099216735441 86.50259368145014 0.0
    vertex 91.49558528034386 85.4670597755174 8.5
    vertex 91.49558528034386 85.4670597755174 0.0
  endloop
endfacet
facet normal 0.793353340291233 0.6087614290087238 0.0
  outer loop
    vertex 91.49558528034386 85.4670597755174 8.5
    vertex 90.70099216735441 86.50259368145014 0.0
    vertex 90.70099216735441 86.50259368145014 8.5
  endloop
endfacet
facet normal 0.9238795325112849 0.3826834323650946 0.0
  outer loop
    vertex 91.49558528034386 85.4670597755174 0.0
    vertex 91.99508739286702 84.26115500103 8.5
    vertex 91.99508739286702 84.26115500103 0.0
  endloop
endfacet
facet normal 0.9238795325112849 0.3826834323650946 0.0
  outer loop
    vertex 91.99508739286702 84.26115500103 8.5
    vertex 91.49558528034386 85.4670597755174 0.0
    vertex 91.49558528034386 85.4670597755174 8.5
  endloop
endfacet
facet normal 0.9914448613738109 0.13052619222004763 0.0
  outer loop
    vertex 91.99508739286702 84.26115500103 0.0
    vertex 92.16545826142168 82.9670597755174 8.5
    vertex 92.16545826142168 82.9670597755174 0.0
  endloop
endfacet
facet normal 0.9914448613738109 0.13052619222004763 0.0
  outer loop
    vertex 92.16545826142168 82.9670597755174 8.5
    vertex 91.99508739286702 84.26115500103 0.0
    vertex 91.99508739286702 84.26115500103 8.5
  endloop
endfacet
facet normal 0.9914448613738109 -0.13052619222004763 0.0
  outer loop
    vertex 92.16545826142168 82.9670597755174 0.0
    vertex 91.99508739286702 81.67296455000479 8.5
    vertex 91.99508739286702 81.67296455000479 0.0
  endloop
endfacet
facet normal 0.9914448613738109 -0.13052619222004763 0.0
  outer loop
    vertex 91.99508739286702 81.67296455000479 8.5
    vertex 92.16545826142168 82.9670597755174 0.0
    vertex 92.16545826142168 82.9670597755174 8.5
  endloop
endfacet
facet normal 0.9238795325112836 -0.3826834323650976 0.0
  outer loop
    vertex 91.99508739286702 81.67296455000479 0.0
    vertex 91.49558528034386 80.4670597755174 8.5
    vertex 91.49558528034386 80.4670597755174 0.0
  endloop
endfacet
facet normal 0.9238795325112836 -0.3826834323650976 0.0
  outer loop
    vertex 91.49558528034386 80.4670597755174 8.5
    vertex 91.99508739286702 81.67296455000479 0.0
    vertex 91.99508739286702 81.67296455000479 8.5
  endloop
endfacet
facet normal 0.7933533402912362 -0.6087614290087197 0.0
  outer loop
    vertex 91.49558528034386 80.4670597755174 0.0
    vertex 90.70099216735441 79.43152586958466 8.5
    vertex 90.70099216735441 79.43152586958466 0.0
  endloop
endfacet
facet normal 0.7933533402912362 -0.6087614290087197 0.0
  outer loop
    vertex 90.70099216735441 79.43152586958466 8.5
    vertex 91.49558528034386 80.4670597755174 0.0
    vertex 91.49558528034386 80.4670597755174 8.5
  endloop
endfacet
facet normal 0.6087614290087238 -0.793353340291233 0.0
  outer loop
    vertex 90.70099216735441 79.43152586958466 8.5
    vertex 89.66545826142168 78.63693275659521 0.0
    vertex 90.70099216735441 79.43152586958466 0.0
  endloop
endfacet
facet normal 0.6087614290087238 -0.793353340291233 0.0
  outer loop
    vertex 89.66545826142168 78.63693275659521 0.0
    vertex 90.70099216735441 79.43152586958466 8.5
    vertex 89.66545826142168 78.63693275659521 8.5
  endloop
endfacet
facet normal 0.3826834323650946 -0.9238795325112849 0.0
  outer loop
    vertex 89.66545826142168 78.63693275659521 8.5
    vertex 88.45955348693428 78.13743064407205 0.0
    vertex 89.66545826142168 78.63693275659521 0.0
  endloop
endfacet
facet normal 0.3826834323650946 -0.9238795325112849 0.0
  outer loop
    vertex 88.45955348693428 78.13743064407205 0.0
    vertex 89.66545826142168 78.63693275659521 8.5
    vertex 88.45955348693428 78.13743064407205 8.5
  endloop
endfacet
facet normal 0.13052619222004763 -0.9914448613738109 0.0
  outer loop
    vertex 88.45955348693428 78.13743064407205 8.5
    vertex 87.16545826142168 77.9670597755174 0.0
    vertex 88.45955348693428 78.13743064407205 0.0
  endloop
endfacet
facet normal 0.13052619222004763 -0.9914448613738109 0.0
  outer loop
    vertex 87.16545826142168 77.9670597755174 0.0
    vertex 88.45955348693428 78.13743064407205 8.5
    vertex 87.16545826142168 77.9670597755174 8.5
  endloop
endfacet
facet normal -0.0 -1.0 -0.0
  outer loop
    vertex 87.16545826142168 77.9670597755174 8.5
    vertex 77.16545826142168 77.9670597755174 0.0
    vertex 87.16545826142168 77.9670597755174 0.0
  endloop
endfacet
facet normal -0.0 -1.0 -0.0
  outer loop
    vertex 77.16545826142168 77.9670597755174 0.0
    vertex 87.16545826142168 77.9670597755174 8.5
    vertex 77.16545826142168 77.9670597755174 8.5
  endloop
endfacet
facet normal -0.13052619222004763 -0.9914448613738109 -0.0
  outer loop
    vertex 77.16545826142168 77.9670597755174 8.5
    vertex 75.87136303590907 78.13743064407205 0.0
    vertex 77.16545826142168 77.9670597755174 0.0
  endloop
endfacet
facet normal -0.13052619222004763 -0.9914448613738109 -0.0
  outer loop
    vertex 75.87136303590907 78.13743064407205 0.0
    vertex 77.16545826142168 77.9670597755174 8.5
    vertex 75.87136303590907 78.13743064407205 8.5
  endloop
endfacet
facet normal -0.3826834323650976 -0.9238795325112836 -0.0
  outer loop
    vertex 75.87136303590907 78.13743064407205 8.5
    vertex 74.66545826142168 78.63693275659521 0.0
    vertex 75.87136303590907 78.13743064407205 0.0
  endloop
endfacet
facet normal -0.3826834323650976 -0.9238795325112836 -0.0
  outer loop
    vertex 74.66545826142168 78.63693275659521 0.0
    vertex 75.87136303590907 78.13743064407205 8.5
    vertex 74.66545826142168 78.63693275659521 8.5
  endloop
endfacet
facet normal -0.6087614290087142 -0.7933533402912402 -0.0
  outer loop
    vertex 74.66545826142168 78.63693275659521 8.5
    vertex 73.62992435548894 79.43152586958465 0.0
    vertex 74.66545826142168 78.63693275659521 0.0
  endloop
endfacet
facet normal -0.6087614290087142 -0.7933533402912402 -0.0
  outer loop
    vertex 73.62992435548894 79.43152586958465 0.0
    vertex 74.66545826142168 78.63693275659521 8.5
    vertex 73.62992435548894 79.43152586958465 8.5
  endloop
endfacet
facet normal -0.7933533402912362 -0.6087614290087197 -0.0
  outer loop
    vertex 72.83533124249948 80.4670597755174 8.5
    vertex 73.62992435548894 79.43152586958465 0.0
    vertex 73.62992435548894 79.43152586958465 8.5
  endloop
endfacet
facet normal -0.7933533402912362 -0.6087614290087197 -0.0
  outer loop
    vertex 73.62992435548894 79.43152586958465 0.0
    vertex 72.83533124249948 80.4670597755174 8.5
    vertex 72.83533124249948 80.4670597755174 0.0
  endloop
endfacet
facet normal -0.9238795325112878 -0.3826834323650872 -0.0
  outer loop
    vertex 72.33582912997633 81.67296455000479 8.5
    vertex 72.83533124249948 80.4670597755174 0.0
    vertex 72.83533124249948 80.4670597755174 8.5
  endloop
endfacet
facet normal -0.9238795325112878 -0.3826834323650872 -0.0
  outer loop
    vertex 72.83533124249948 80.4670597755174 0.0
    vertex 72.33582912997633 81.67296455000479 8.5
    vertex 72.33582912997633 81.67296455000479 0.0
  endloop
endfacet
facet normal -0.9914448613738099 -0.13052619222005613 -0.0
  outer loop
    vertex 72.16545826142166 82.9670597755174 8.5
    vertex 72.33582912997633 81.67296455000479 0.0
    vertex 72.33582912997633 81.67296455000479 8.5
  endloop
endfacet
facet normal -0.9914448613738099 -0.13052619222005613 -0.0
  outer loop
    vertex 72.33582912997633 81.67296455000479 0.0
    vertex 72.16545826142166 82.9670597755174 8.5
    vertex 72.16545826142166 82.9670597755174 0.0
  endloop
endfacet
facet normal -0.9914448613738109 0.13052619222004763 0.0
  outer loop
    vertex 72.33582912997632 84.26115500103 8.5
    vertex 72.16545826142166 82.9670597755174 0.0
    vertex 72.16545826142166 82.9670597755174 8.5
  endloop
endfacet
facet normal -0.9914448613738109 0.13052619222004763 0.0
  outer loop
    vertex 72.16545826142166 82.9670597755174 0.0
    vertex 72.33582912997632 84.26115500103 8.5
    vertex 72.33582912997632 84.26115500103 0.0
  endloop
endfacet
facet normal -0.9238795325112866 0.3826834323650902 0.0
  outer loop
    vertex 72.83533124249946 85.4670597755174 8.5
    vertex 72.33582912997632 84.26115500103 0.0
    vertex 72.33582912997632 84.26115500103 8.5
  endloop
endfacet
facet normal -0.9238795325112866 0.3826834323650902 0.0
  outer loop
    vertex 72.33582912997632 84.26115500103 0.0
    vertex 72.83533124249946 85.4670597755174 8.5
    vertex 72.83533124249946 85.4670597755174 0.0
  endloop
endfacet
facet normal -0.793353340291232 0.6087614290087251 0.0
  outer loop
    vertex 73.62992435548894 86.50259368145014 8.5
    vertex 72.83533124249946 85.4670597755174 0.0
    vertex 72.83533124249946 85.4670597755174 8.5
  endloop
endfacet
facet normal -0.793353340291232 0.6087614290087251 0.0
  outer loop
    vertex 72.83533124249946 85.4670597755174 0.0
    vertex 73.62992435548894 86.50259368145014 8.5
    vertex 73.62992435548894 86.50259368145014 0.0
  endloop
endfacet
facet normal -0.6087614290087238 0.793353340291233 0.0
  outer loop
    vertex 73.62992435548894 86.50259368145014 8.5
    vertex 74.66545826142166 87.29718679443958 0.0
    vertex 73.62992435548894 86.50259368145014 0.0
  endloop
endfacet
facet normal -0.6087614290087238 0.793353340291233 0.0
  outer loop
    vertex 74.66545826142166 87.29718679443958 0.0
    vertex 73.62992435548894 86.50259368145014 8.5
    vertex 74.66545826142166 87.29718679443958 8.5
  endloop
endfacet
facet normal -0.3826834323650902 0.9238795325112866 0.0
  outer loop
    vertex 74.66545826142166 87.29718679443958 8.5
    vertex 75.87136303590906 87.79668890696274 0.0
    vertex 74.66545826142166 87.29718679443958 0.0
  endloop
endfacet
facet normal -0.3826834323650902 0.9238795325112866 0.0
  outer loop
    vertex 75.87136303590906 87.79668890696274 0.0
    vertex 74.66545826142166 87.29718679443958 8.5
    vertex 75.87136303590906 87.79668890696274 8.5
  endloop
endfacet
facet normal -0.13052619222005502 0.99144486137381 0.0
  outer loop
    vertex 75.87136303590906 87.79668890696274 8.5
    vertex 77.16545826142168 87.9670597755174 0.0
    vertex 75.87136303590906 87.79668890696274 0.0
  endloop
endfacet
facet normal -0.13052619222005502 0.99144486137381 0.0
  outer loop
    vertex 77.16545826142168 87.9670597755174 0.0
    vertex 75.87136303590906 87.79668890696274 8.5
    vertex 77.16545826142168 87.9670597755174 8.5
  endloop
endfacet
facet normal 0.13052619222005613 -0.9914448613738099 0.0
  outer loop
    vertex 77.16545826142168 85.4670597755174 8.5
    vertex 76.51841064866537 85.38187434124006 0.0
    vertex 77.16545826142168 85.4670597755174 0.0
  endloop
endfacet
facet normal 0.13052619222005613 -0.9914448613738099 0.0
  outer loop
    vertex 76.51841064866537 85.38187434124006 0.0
    vertex 77.16545826142168 85.4670597755174 8.5
    vertex 76.51841064866537 85.38187434124006 8.5
  endloop
endfacet
facet normal 0.38268343236508284 -0.9238795325112896 0.0
  outer loop
    vertex 76.51841064866537 85.38187434124006 8.5
    vertex 75.91545826142168 85.13212328497849 0.0
    vertex 76.51841064866537 85.38187434124006 0.0
  endloop
endfacet
facet normal 0.38268343236508284 -0.9238795325112896 0.0
  outer loop
    vertex 75.91545826142168 85.13212328497849 0.0
    vertex 76.51841064866537 85.38187434124006 8.5
    vertex 75.91545826142168 85.13212328497849 8.5
  endloop
endfacet
facet normal 0.6087614290087292 -0.7933533402912287 0.0
  outer loop
    vertex 75.91545826142168 85.13212328497849 8.5
    vertex 75.39769130845531 84.73482672848375 0.0
    vertex 75.91545826142168 85.13212328497849 0.0
  endloop
endfacet
facet normal 0.6087614290087292 -0.7933533402912287 0.0
  outer loop
    vertex 75.39769130845531 84.73482672848375 0.0
    vertex 75.91545826142168 85.13212328497849 8.5
    vertex 75.39769130845531 84.73482672848375 8.5
  endloop
endfacet
facet normal 0.7933533402912287 -0.6087614290087292 0.0
  outer loop
    vertex 75.39769130845531 84.73482672848375 0.0
    vertex 75.00039475196057 84.2170597755174 8.5
    vertex 75.00039475196057 84.2170597755174 0.0
  endloop
endfacet
facet normal 0.7933533402912287 -0.6087614290087292 0.0
  outer loop
    vertex 75.00039475196057 84.2170597755174 8.5
    vertex 75.39769130845531 84.73482672848375 0.0
    vertex 75.39769130845531 84.73482672848375 8.5
  endloop
endfacet
facet normal 0.9238795325112896 -0.38268343236508284 0.0
  outer loop
    vertex 75.00039475196057 84.2170597755174 0.0
    vertex 74.75064369569901 83.6141073882737 8.5
    vertex 74.75064369569901 83.6141073882737 0.0
  endloop
endfacet
facet normal 0.9238795325112896 -0.38268343236508284 0.0
  outer loop
    vertex 74.75064369569901 83.6141073882737 8.5
    vertex 75.00039475196057 84.2170597755174 0.0
    vertex 75.00039475196057 84.2170597755174 8.5
  endloop
endfacet
facet normal 0.9914448613738099 -0.13052619222005613 0.0
  outer loop
    vertex 74.75064369569901 83.6141073882737 0.0
    vertex 74.66545826142168 82.9670597755174 8.5
    vertex 74.66545826142168 82.9670597755174 0.0
  endloop
endfacet
facet normal 0.9914448613738099 -0.13052619222005613 0.0
  outer loop
    vertex 74.66545826142168 82.9670597755174 8.5
    vertex 74.75064369569901 83.6141073882737 0.0
    vertex 74.75064369569901 83.6141073882737 8.5
  endloop
endfacet
facet normal 0.9914448613738099 0.13052619222005613 0.0
  outer loop
    vertex 74.66545826142168 82.9670597755174 0.0
    vertex 74.75064369569901 82.3200121627611 8.5
    vertex 74.75064369569901 82.3200121627611 0.0
  endloop
endfacet
facet normal 0.9914448613738099 0.13052619222005613 0.0
  outer loop
    vertex 74.75064369569901 82.3200121627611 8.5
    vertex 74.66545826142168 82.9670597755174 0.0
    vertex 74.66545826142168 82.9670597755174 8.5
  endloop
endfacet
facet normal 0.9238795325112896 0.38268343236508284 0.0
  outer loop
    vertex 74.75064369569901 82.3200121627611 0.0
    vertex 75.00039475196057 81.7170597755174 8.5
    vertex 75.00039475196057 81.7170597755174 0.0
  endloop
endfacet
facet normal 0.9238795325112896 0.38268343236508284 0.0
  outer loop
    vertex 75.00039475196057 81.7170597755174 8.5
    vertex 74.75064369569901 82.3200121627611 0.0
    vertex 74.75064369569901 82.3200121627611 8.5
  endloop
endfacet
facet normal 0.7933533402912287 0.6087614290087292 0.0
  outer loop
    vertex 75.00039475196057 81.7170597755174 0.0
    vertex 75.39769130845531 81.19929282255103 8.5
    vertex 75.39769130845531 81.19929282255103 0.0
  endloop
endfacet
facet normal 0.7933533402912287 0.6087614290087292 0.0
  outer loop
    vertex 75.39769130845531 81.19929282255103 8.5
    vertex 75.00039475196057 81.7170597755174 0.0
    vertex 75.00039475196057 81.7170597755174 8.5
  endloop
endfacet
facet normal 0.6087614290087292 0.7933533402912287 0.0
  outer loop
    vertex 75.39769130845531 81.19929282255103 8.5
    vertex 75.91545826142168 80.8019962660563 0.0
    vertex 75.39769130845531 81.19929282255103 0.0
  endloop
endfacet
facet normal 0.6087614290087292 0.7933533402912287 0.0
  outer loop
    vertex 75.91545826142168 80.8019962660563 0.0
    vertex 75.39769130845531 81.19929282255103 8.5
    vertex 75.91545826142168 80.8019962660563 8.5
  endloop
endfacet
facet normal 0.38268343236508284 0.9238795325112896 0.0
  outer loop
    vertex 75.91545826142168 80.8019962660563 8.5
    vertex 76.51841064866537 80.55224520979473 0.0
    vertex 75.91545826142168 80.8019962660563 0.0
  endloop
endfacet
facet normal 0.38268343236508284 0.9238795325112896 0.0
  outer loop
    vertex 76.51841064866537 80.55224520979473 0.0
    vertex 75.91545826142168 80.8019962660563 8.5
    vertex 76.51841064866537 80.55224520979473 8.5
  endloop
endfacet
facet normal 0.13052619222005613 0.9914448613738099 0.0
  outer loop
    vertex 76.51841064866537 80.55224520979473 8.5
    vertex 77.16545826142168 80.4670597755174 0.0
    vertex 76.51841064866537 80.55224520979473 0.0
  endloop
endfacet
facet normal 0.13052619222005613 0.9914448613738099 0.0
  outer loop
    vertex 77.16545826142168 80.4670597755174 0.0
    vertex 76.51841064866537 80.55224520979473 8.5
    vertex 77.16545826142168 80.4670597755174 8.5
  endloop
endfacet
facet normal -0.13052619222005613 0.9914448613738099 0.0
  outer loop
    vertex 77.16545826142168 80.4670597755174 8.5
    vertex 77.81250587417797 80.55224520979473 0.0
    vertex 77.16545826142168 80.4670597755174 0.0
  endloop
endfacet
facet normal -0.13052619222005613 0.9914448613738099 0.0
  outer loop
    vertex 77.81250587417797 80.55224520979473 0.0
    vertex 77.16545826142168 80.4670597755174 8.5
    vertex 77.81250587417797 80.55224520979473 8.5
  endloop
endfacet
facet normal -0.38268343236508284 0.9238795325112896 0.0
  outer loop
    vertex 77.81250587417797 80.55224520979473 8.5
    vertex 78.41545826142166 80.8019962660563 0.0
    vertex 77.81250587417797 80.55224520979473 0.0
  endloop
endfacet
facet normal -0.38268343236508284 0.9238795325112896 0.0
  outer loop
    vertex 78.41545826142166 80.8019962660563 0.0
    vertex 77.81250587417797 80.55224520979473 8.5
    vertex 78.41545826142166 80.8019962660563 8.5
  endloop
endfacet
facet normal -0.6087614290087292 0.7933533402912287 0.0
  outer loop
    vertex 78.41545826142166 80.8019962660563 8.5
    vertex 78.93322521438803 81.19929282255103 0.0
    vertex 78.41545826142166 80.8019962660563 0.0
  endloop
endfacet
facet normal -0.6087614290087292 0.7933533402912287 0.0
  outer loop
    vertex 78.93322521438803 81.19929282255103 0.0
    vertex 78.41545826142166 80.8019962660563 8.5
    vertex 78.93322521438803 81.19929282255103 8.5
  endloop
endfacet
facet normal -0.7933533402912287 0.6087614290087292 0.0
  outer loop
    vertex 79.33052177088277 81.7170597755174 8.5
    vertex 78.93322521438803 81.19929282255103 0.0
    vertex 78.93322521438803 81.19929282255103 8.5
  endloop
endfacet
facet normal -0.7933533402912287 0.6087614290087292 0.0
  outer loop
    vertex 78.93322521438803 81.19929282255103 0.0
    vertex 79.33052177088277 81.7170597755174 8.5
    vertex 79.33052177088277 81.7170597755174 0.0
  endloop
endfacet
facet normal -0.9238795325112896 0.38268343236508284 0.0
  outer loop
    vertex 79.58027282714433 82.3200121627611 8.5
    vertex 79.33052177088277 81.7170597755174 0.0
    vertex 79.33052177088277 81.7170597755174 8.5
  endloop
endfacet
facet normal -0.9238795325112896 0.38268343236508284 0.0
  outer loop
    vertex 79.33052177088277 81.7170597755174 0.0
    vertex 79.58027282714433 82.3200121627611 8.5
    vertex 79.58027282714433 82.3200121627611 0.0
  endloop
endfacet
facet normal -0.9914448613738099 0.13052619222005613 0.0
  outer loop
    vertex 79.66545826142166 82.9670597755174 8.5
    vertex 79.58027282714433 82.3200121627611 0.0
    vertex 79.58027282714433 82.3200121627611 8.5
  endloop
endfacet
facet normal -0.9914448613738099 0.13052619222005613 0.0
  outer loop
    vertex 79.58027282714433 82.3200121627611 0.0
    vertex 79.66545826142166 82.9670597755174 8.5
    vertex 79.66545826142166 82.9670597755174 0.0
  endloop
endfacet
facet normal -0.9914448613738099 -0.13052619222005613 -0.0
  outer loop
    vertex 79.58027282714433 83.6141073882737 8.5
    vertex 79.66545826142166 82.9670597755174 0.0
    vertex 79.66545826142166 82.9670597755174 8.5
  endloop
endfacet
facet normal -0.9914448613738099 -0.13052619222005613 -0.0
  outer loop
    vertex 79.66545826142166 82.9670597755174 0.0
    vertex 79.58027282714433 83.6141073882737 8.5
    vertex 79.58027282714433 83.6141073882737 0.0
  endloop
endfacet
facet normal -0.9238795325112896 -0.38268343236508284 -0.0
  outer loop
    vertex 79.33052177088277 84.2170597755174 8.5
    vertex 79.58027282714433 83.6141073882737 0.0
    vertex 79.58027282714433 83.6141073882737 8.5
  endloop
endfacet
facet normal -0.9238795325112896 -0.38268343236508284 -0.0
  outer loop
    vertex 79.58027282714433 83.6141073882737 0.0
    vertex 79.33052177088277 84.2170597755174 8.5
    vertex 79.33052177088277 84.2170597755174 0.0
  endloop
endfacet
facet normal -0.7933533402912287 -0.6087614290087292 -0.0
  outer loop
    vertex 78.93322521438803 84.73482672848375 8.5
    vertex 79.33052177088277 84.2170597755174 0.0
    vertex 79.33052177088277 84.2170597755174 8.5
  endloop
endfacet
facet normal -0.7933533402912287 -0.6087614290087292 -0.0
  outer loop
    vertex 79.33052177088277 84.2170597755174 0.0
    vertex 78.93322521438803 84.73482672848375 8.5
    vertex 78.93322521438803 84.73482672848375 0.0
  endloop
endfacet
facet normal -0.6087614290087292 -0.7933533402912287 -0.0
  outer loop
    vertex 78.93322521438803 84.73482672848375 8.5
    vertex 78.41545826142166 85.13212328497849 0.0
    vertex 78.93322521438803 84.73482672848375 0.0
  endloop
endfacet
facet normal -0.6087614290087292 -0.7933533402912287 -0.0
  outer loop
    vertex 78.41545826142166 85.13212328497849 0.0
    vertex 78.93322521438803 84.73482672848375 8.5
    vertex 78.41545826142166 85.13212328497849 8.5
  endloop
endfacet
facet normal -0.38268343236508284 -0.9238795325112896 -0.0
  outer loop
    vertex 78.41545826142166 85.13212328497849 8.5
    vertex 77.81250587417797 85.38187434124006 0.0
    vertex 78.41545826142166 85.13212328497849 0.0
  endloop
endfacet
facet normal -0.38268343236508284 -0.9238795325112896 -0.0
  outer loop
    vertex 77.81250587417797 85.38187434124006 0.0
    vertex 78.41545826142166 85.13212328497849 8.5
    vertex 77.81250587417797 85.38187434124006 8.5
  endloop
endfacet
facet normal -0.13052619222005613 -0.9914448613738099 -0.0
  outer loop
    vertex 77.81250587417797 85.38187434124006 8.5
    vertex 77.16545826142168 85.4670597755174 0.0
    vertex 77.81250587417797 85.38187434124006 0.0
  endloop
endfacet
facet normal -0.13052619222005613 -0.9914448613738099 -0.0
  outer loop
    vertex 77.16545826142168 85.4670597755174 0.0
    vertex 77.81250587417797 85.38187434124006 8.5
    vertex 77.16545826142168 85.4670597755174 8.5
  endloop
endfacet
facet normal -0.13052619222005613 -0.9914448613738099 -0.0
  outer loop
    vertex 87.81250587417797 85.38187434124006 8.5
    vertex 87.16545826142168 85.4670597755174 0.0
    vertex 87.81250587417797 85.38187434124006 0.0
  endloop
endfacet
facet normal -0.13052619222005613 -0.9914448613738099 -0.0
  outer loop
    vertex 87.16545826142168 85.4670597755174 0.0
    vertex 87.81250587417797 85.38187434124006 8.5
    vertex 87.16545826142168 85.4670597755174 8.5
  endloop
endfacet
facet normal 0.13052619222005613 -0.9914448613738099 0.0
  outer loop
    vertex 87.16545826142168 85.4670597755174 8.5
    vertex 86.51841064866538 85.38187434124006 0.0
    vertex 87.16545826142168 85.4670597755174 0.0
  endloop
endfacet
facet normal 0.13052619222005613 -0.9914448613738099 0.0
  outer loop
    vertex 86.51841064866538 85.38187434124006 0.0
    vertex 87.16545826142168 85.4670597755174 8.5
    vertex 86.51841064866538 85.38187434124006 8.5
  endloop
endfacet
facet normal 0.38268343236508284 -0.9238795325112896 0.0
  outer loop
    vertex 86.51841064866538 85.38187434124006 8.5
    vertex 85.91545826142168 85.13212328497849 0.0
    vertex 86.51841064866538 85.38187434124006 0.0
  endloop
endfacet
facet normal 0.38268343236508284 -0.9238795325112896 0.0
  outer loop
    vertex 85.91545826142168 85.13212328497849 0.0
    vertex 86.51841064866538 85.38187434124006 8.5
    vertex 85.91545826142168 85.13212328497849 8.5
  endloop
endfacet
facet normal 0.6087614290087292 -0.7933533402912287 0.0
  outer loop
    vertex 85.91545826142168 85.13212328497849 8.5
    vertex 85.39769130845531 84.73482672848375 0.0
    vertex 85.91545826142168 85.13212328497849 0.0
  endloop
endfacet
facet normal 0.6087614290087292 -0.7933533402912287 0.0
  outer loop
    vertex 85.39769130845531 84.73482672848375 0.0
    vertex 85.91545826142168 85.13212328497849 8.5
    vertex 85.39769130845531 84.73482672848375 8.5
  endloop
endfacet
facet normal 0.7933533402912287 -0.6087614290087292 0.0
  outer loop
    vertex 85.39769130845531 84.73482672848375 0.0
    vertex 85.00039475196058 84.2170597755174 8.5
    vertex 85.00039475196058 84.2170597755174 0.0
  endloop
endfacet
facet normal 0.7933533402912287 -0.6087614290087292 0.0
  outer loop
    vertex 85.00039475196058 84.2170597755174 8.5
    vertex 85.39769130845531 84.73482672848375 0.0
    vertex 85.39769130845531 84.73482672848375 8.5
  endloop
endfacet
facet normal 0.9238795325112896 -0.38268343236508284 0.0
  outer loop
    vertex 85.00039475196058 84.2170597755174 0.0
    vertex 84.75064369569901 83.6141073882737 8.5
    vertex 84.75064369569901 83.6141073882737 0.0
  endloop
endfacet
facet normal 0.9238795325112896 -0.38268343236508284 0.0
  outer loop
    vertex 84.75064369569901 83.6141073882737 8.5
    vertex 85.00039475196058 84.2170597755174 0.0
    vertex 85.00039475196058 84.2170597755174 8.5
  endloop
endfacet
facet normal 0.9914448613738099 -0.13052619222005613 0.0
  outer loop
    vertex 84.75064369569901 83.6141073882737 0.0
    vertex 84.66545826142168 82.9670597755174 8.5
    vertex 84.66545826142168 82.9670597755174 0.0
  endloop
endfacet
facet normal 0.9914448613738099 -0.13052619222005613 0.0
  outer loop
    vertex 84.66545826142168 82.9670597755174 8.5
    vertex 84.75064369569901 83.6141073882737 0.0
    vertex 84.75064369569901 83.6141073882737 8.5
  endloop
endfacet
facet normal 0.9914448613738099 0.13052619222005613 0.0
  outer loop
    vertex 84.66545826142168 82.9670597755174 0.0
    vertex 84.75064369569901 82.3200121627611 8.5
    vertex 84.75064369569901 82.3200121627611 0.0
  endloop
endfacet
facet normal 0.9914448613738099 0.13052619222005613 0.0
  outer loop
    vertex 84.75064369569901 82.3200121627611 8.5
    vertex 84.66545826142168 82.9670597755174 0.0
    vertex 84.66545826142168 82.9670597755174 8.5
  endloop
endfacet
facet normal 0.9238795325112896 0.38268343236508284 0.0
  outer loop
    vertex 84.75064369569901 82.3200121627611 0.0
    vertex 85.00039475196058 81.7170597755174 8.5
    vertex 85.00039475196058 81.7170597755174 0.0
  endloop
endfacet
facet normal 0.9238795325112896 0.38268343236508284 0.0
  outer loop
    vertex 85.00039475196058 81.7170597755174 8.5
    vertex 84.75064369569901 82.3200121627611 0.0
    vertex 84.75064369569901 82.3200121627611 8.5
  endloop
endfacet
facet normal 0.7933533402912287 0.6087614290087292 0.0
  outer loop
    vertex 85.00039475196058 81.7170597755174 0.0
    vertex 85.39769130845531 81.19929282255103 8.5
    vertex 85.39769130845531 81.19929282255103 0.0
  endloop
endfacet
facet normal 0.7933533402912287 0.6087614290087292 0.0
  outer loop
    vertex 85.39769130845531 81.19929282255103 8.5
    vertex 85.00039475196058 81.7170597755174 0.0
    vertex 85.00039475196058 81.7170597755174 8.5
  endloop
endfacet
facet normal 0.6087614290087292 0.7933533402912287 0.0
  outer loop
    vertex 85.39769130845531 81.19929282255103 8.5
    vertex 85.91545826142168 80.8019962660563 0.0
    vertex 85.39769130845531 81.19929282255103 0.0
  endloop
endfacet
facet normal 0.6087614290087292 0.7933533402912287 0.0
  outer loop
    vertex 85.91545826142168 80.8019962660563 0.0
    vertex 85.39769130845531 81.19929282255103 8.5
    vertex 85.91545826142168 80.8019962660563 8.5
  endloop
endfacet
facet normal 0.38268343236508284 0.9238795325112896 0.0
  outer loop
    vertex 85.91545826142168 80.8019962660563 8.5
    vertex 86.51841064866538 80.55224520979473 0.0
    vertex 85.91545826142168 80.8019962660563 0.0
  endloop
endfacet
facet normal 0.38268343236508284 0.9238795325112896 0.0
  outer loop
    vertex 86.51841064866538 80.55224520979473 0.0
    vertex 85.91545826142168 80.8019962660563 8.5
    vertex 86.51841064866538 80.55224520979473 8.5
  endloop
endfacet
facet normal 0.13052619222005613 0.9914448613738099 0.0
  outer loop
    vertex 86.51841064866538 80.55224520979473 8.5
    vertex 87.16545826142168 80.4670597755174 0.0
    vertex 86.51841064866538 80.55224520979473 0.0
  endloop
endfacet
facet normal 0.13052619222005613 0.9914448613738099 0.0
  outer loop
    vertex 87.16545826142168 80.4670597755174 0.0
    vertex 86.51841064866538 80.55224520979473 8.5
    vertex 87.16545826142168 80.4670597755174 8.5
  endloop
endfacet
facet normal -0.13052619222005613 0.9914448613738099 0.0
  outer loop
    vertex 87.16545826142168 80.4670597755174 8.5
    vertex 87.81250587417797 80.55224520979473 0.0
    vertex 87.16545826142168 80.4670597755174 0.0
  endloop
endfacet
facet normal -0.13052619222005613 0.9914448613738099 0.0
  outer loop
    vertex 87.81250587417797 80.55224520979473 0.0
    vertex 87.16545826142168 80.4670597755174 8.5
    vertex 87.81250587417797 80.55224520979473 8.5
  endloop
endfacet
facet normal -0.38268343236508284 0.9238795325112896 0.0
  outer loop
    vertex 87.81250587417797 80.55224520979473 8.5
    vertex 88.41545826142168 80.8019962660563 0.0
    vertex 87.81250587417797 80.55224520979473 0.0
  endloop
endfacet
facet normal -0.38268343236508284 0.9238795325112896 0.0
  outer loop
    vertex 88.41545826142168 80.8019962660563 0.0
    vertex 87.81250587417797 80.55224520979473 8.5
    vertex 88.41545826142168 80.8019962660563 8.5
  endloop
endfacet
facet normal -0.6087614290087292 0.7933533402912287 0.0
  outer loop
    vertex 88.41545826142168 80.8019962660563 8.5
    vertex 88.93322521438803 81.19929282255103 0.0
    vertex 88.41545826142168 80.8019962660563 0.0
  endloop
endfacet
facet normal -0.6087614290087292 0.7933533402912287 0.0
  outer loop
    vertex 88.93322521438803 81.19929282255103 0.0
    vertex 88.41545826142168 80.8019962660563 8.5
    vertex 88.93322521438803 81.19929282255103 8.5
  endloop
endfacet
facet normal -0.7933533402912287 0.6087614290087292 0.0
  outer loop
    vertex 89.33052177088277 81.7170597755174 8.5
    vertex 88.93322521438803 81.19929282255103 0.0
    vertex 88.93322521438803 81.19929282255103 8.5
  endloop
endfacet
facet normal -0.7933533402912287 0.6087614290087292 0.0
  outer loop
    vertex 88.93322521438803 81.19929282255103 0.0
    vertex 89.33052177088277 81.7170597755174 8.5
    vertex 89.33052177088277 81.7170597755174 0.0
  endloop
endfacet
facet normal -0.9238795325112896 0.38268343236508284 0.0
  outer loop
    vertex 89.58027282714434 82.3200121627611 8.5
    vertex 89.33052177088277 81.7170597755174 0.0
    vertex 89.33052177088277 81.7170597755174 8.5
  endloop
endfacet
facet normal -0.9238795325112896 0.38268343236508284 0.0
  outer loop
    vertex 89.33052177088277 81.7170597755174 0.0
    vertex 89.58027282714434 82.3200121627611 8.5
    vertex 89.58027282714434 82.3200121627611 0.0
  endloop
endfacet
facet normal -0.9914448613738099 0.13052619222005613 0.0
  outer loop
    vertex 89.66545826142168 82.9670597755174 8.5
    vertex 89.58027282714434 82.3200121627611 0.0
    vertex 89.58027282714434 82.3200121627611 8.5
  endloop
endfacet
facet normal -0.9914448613738099 0.13052619222005613 0.0
  outer loop
    vertex 89.58027282714434 82.3200121627611 0.0
    vertex 89.66545826142168 82.9670597755174 8.5
    vertex 89.66545826142168 82.9670597755174 0.0
  endloop
endfacet
facet normal -0.9914448613738099 -0.13052619222005613 -0.0
  outer loop
    vertex 89.58027282714434 83.6141073882737 8.5
    vertex 89.66545826142168 82.9670597755174 0.0
    vertex 89.66545826142168 82.9670597755174 8.5
  endloop
endfacet
facet normal -0.9914448613738099 -0.13052619222005613 -0.0
  outer loop
    vertex 89.66545826142168 82.9670597755174 0.0
    vertex 89.58027282714434 83.6141073882737 8.5
    vertex 89.58027282714434 83.6141073882737 0.0
  endloop
endfacet
facet normal -0.9238795325112896 -0.38268343236508284 -0.0
  outer loop
    vertex 89.33052177088277 84.2170597755174 8.5
    vertex 89.58027282714434 83.6141073882737 0.0
    vertex 89.58027282714434 83.6141073882737 8.5
  endloop
endfacet
facet normal -0.9238795325112896 -0.38268343236508284 -0.0
  outer loop
    vertex 89.58027282714434 83.6141073882737 0.0
    vertex 89.33052177088277 84.2170597755174 8.5
    vertex 89.33052177088277 84.2170597755174 0.0
  endloop
endfacet
facet normal -0.7933533402912287 -0.6087614290087292 -0.0
  outer loop
    vertex 88.93322521438803 84.73482672848375 8.5
    vertex 89.33052177088277 84.2170597755174 0.0
    vertex 89.33052177088277 84.2170597755174 8.5
  endloop
endfacet
facet normal -0.7933533402912287 -0.6087614290087292 -0.0
  outer loop
    vertex 89.33052177088277 84.2170597755174 0.0
    vertex 88.93322521438803 84.73482672848375 8.5
    vertex 88.93322521438803 84.73482672848375 0.0
  endloop
endfacet
facet normal -0.6087614290087292 -0.7933533402912287 -0.0
  outer loop
    vertex 88.93322521438803 84.73482672848375 8.5
    vertex 88.41545826142168 85.13212328497849 0.0
    vertex 88.93322521438803 84.73482672848375 0.0
  endloop
endfacet
facet normal -0.6087614290087292 -0.7933533402912287 -0.0
  outer loop
    vertex 88.41545826142168 85.13212328497849 0.0
    vertex 88.93322521438803 84.73482672848375 8.5
    vertex 88.41545826142168 85.13212328497849 8.5
  endloop
endfacet
facet normal -0.38268343236508284 -0.9238795325112896 -0.0
  outer loop
    vertex 88.41545826142168 85.13212328497849 8.5
    vertex 87.81250587417797 85.38187434124006 0.0
    vertex 88.41545826142168 85.13212328497849 0.0
  endloop
endfacet
facet normal -0.38268343236508284 -0.9238795325112896 -0.0
  outer loop
    vertex 87.81250587417797 85.38187434124006 0.0
    vertex 88.41545826142168 85.13212328497849 8.5
    vertex 87.81250587417797 85.38187434124006 8.5
  endloop
endfacet
endsolid hinge 2 linkage
