solid hinge pin
facet normal 0.0 0.0 -1.0
  outer loop
    vertex 54.24619228761629 30.085315401354322 0.0
    vertex 54.2461922876163 27.497124950329113 0.0
    vertex 54.07582141906163 28.79122017584172 0.0
  endloop
endfacet
facet normal 0.0 0.0 -1.0
  outer loop
    vertex 54.2461922876163 27.497124950329113 0.0
    vertex 54.24619228761629 30.085315401354322 0.0
    vertex 54.745694400139435 31.291220175841715 0.0
  endloop
endfacet
facet normal 0.0 0.0 -1.0
  outer loop
    vertex 54.2461922876163 27.497124950329113 0.0
    vertex 54.745694400139435 31.291220175841715 0.0
    vertex 54.74569440013945 26.29122017584172 0.0
  endloop
endfacet
facet normal 0.0 0.0 -1.0
  outer loop
    vertex 54.74569440013945 26.29122017584172 0.0
    vertex 54.745694400139435 31.291220175841715 0.0
    vertex 55.5402875131289 32.32675408177445 0.0
  endloop
endfacet
facet normal 0.0 0.0 -1.0
  outer loop
    vertex 54.74569440013945 26.29122017584172 0.0
    vertex 55.5402875131289 32.32675408177445 0.0
    vertex 55.5402875131289 25.255686269908978 0.0
  endloop
endfacet
facet normal 0.0 0.0 -1.0
  outer loop
    vertex 55.5402875131289 25.255686269908978 0.0
    vertex 55.5402875131289 32.32675408177445 0.0
    vertex 56.57582141906163 33.12134719476391 0.0
  endloop
endfacet
facet normal 0.0 0.0 -1.0
  outer loop
    vertex 55.5402875131289 25.255686269908978 0.0
    vertex 56.57582141906163 33.12134719476391 0.0
    vertex 56.57582141906164 24.461093156919524 0.0
  endloop
endfacet
facet normal 0.0 0.0 -1.0
  outer loop
    vertex 56.57582141906164 24.461093156919524 0.0
    vertex 56.57582141906163 33.12134719476391 0.0
    vertex 56.62582141906163 28.79122017584172 0.0
  endloop
endfacet
facet normal 0.0 0.0 -1.0
  outer loop
    vertex 56.62582141906163 28.79122017584172 0.0
    vertex 56.57582141906163 33.12134719476391 0.0
    vertex 56.709303144653425 29.4253268363429 0.0
  endloop
endfacet
facet normal 0.0 0.0 -1.0
  outer loop
    vertex 56.709303144653425 29.4253268363429 0.0
    vertex 56.57582141906163 33.12134719476391 0.0
    vertex 57.78172619354903 33.62084930728707 0.0
  endloop
endfacet
facet normal 0.0 0.0 -1.0
  outer loop
    vertex 56.709303144653425 29.4253268363429 0.0
    vertex 57.78172619354903 33.62084930728707 0.0
    vertex 56.95405917978976 30.016220175841724 0.0
  endloop
endfacet
facet normal 0.0 0.0 -1.0
  outer loop
    vertex 56.95405917978976 30.016220175841724 0.0
    vertex 57.78172619354903 33.62084930728707 0.0
    vertex 57.3434098051546 30.523631789748766 0.0
  endloop
endfacet
facet normal 0.0 0.0 -1.0
  outer loop
    vertex 57.3434098051546 30.523631789748766 0.0
    vertex 57.78172619354903 33.62084930728707 0.0
    vertex 57.85082141906163 30.912982415113596 0.0
  endloop
endfacet
facet normal 0.0 0.0 -1.0
  outer loop
    vertex 57.85082141906163 30.912982415113596 0.0
    vertex 57.78172619354903 33.62084930728707 0.0
    vertex 59.07582141906164 33.79122017584172 0.0
  endloop
endfacet
facet normal 0.0 0.0 -1.0
  outer loop
    vertex 57.85082141906163 30.912982415113596 0.0
    vertex 59.07582141906164 33.79122017584172 0.0
    vertex 58.441714758560465 31.15773845024994 0.0
  endloop
endfacet
facet normal 0.0 0.0 -1.0
  outer loop
    vertex 58.441714758560465 31.15773845024994 0.0
    vertex 59.07582141906164 33.79122017584172 0.0
    vertex 59.07582141906164 31.241220175841722 0.0
  endloop
endfacet
facet normal 0.0 0.0 -1.0
  outer loop
    vertex 59.07582141906164 31.241220175841722 0.0
    vertex 59.07582141906164 33.79122017584172 0.0
    vertex 60.36991664457424 33.62084930728707 0.0
  endloop
endfacet
facet normal 0.0 0.0 -1.0
  outer loop
    vertex 59.07582141906164 31.241220175841722 0.0
    vertex 60.36991664457424 33.62084930728707 0.0
    vertex 59.709928079562815 31.15773845024994 0.0
  endloop
endfacet
facet normal 0.0 0.0 -1.0
  outer loop
    vertex 59.709928079562815 31.15773845024994 0.0
    vertex 60.36991664457424 33.62084930728707 0.0
    vertex 60.30082141906164 30.912982415113596 0.0
  endloop
endfacet
facet normal 0.0 0.0 -1.0
  outer loop
    vertex 60.30082141906164 30.912982415113596 0.0
    vertex 60.36991664457424 33.62084930728707 0.0
    vertex 60.80823303296868 30.523631789748766 0.0
  endloop
endfacet
facet normal 0.0 0.0 -1.0
  outer loop
    vertex 60.80823303296868 30.523631789748766 0.0
    vertex 60.36991664457424 33.62084930728707 0.0
    vertex 61.57582141906163 33.12134719476391 0.0
  endloop
endfacet
facet normal 0.0 0.0 -1.0
  outer loop
    vertex 60.80823303296868 30.523631789748766 0.0
    vertex 61.57582141906163 33.12134719476391 0.0
    vertex 61.197583658333514 30.016220175841717 0.0
  endloop
endfacet
facet normal 0.0 0.0 -1.0
  outer loop
    vertex 61.197583658333514 30.016220175841717 0.0
    vertex 61.57582141906163 33.12134719476391 0.0
    vertex 61.442339693469854 29.425326836342894 0.0
  endloop
endfacet
facet normal 0.0 0.0 -1.0
  outer loop
    vertex 61.442339693469854 29.425326836342894 0.0
    vertex 61.57582141906163 33.12134719476391 0.0
    vertex 61.52582141906164 28.79122017584172 0.0
  endloop
endfacet
facet normal 0.0 0.0 -1.0
  outer loop
    vertex 56.57582141906164 24.461093156919524 0.0
    vertex 56.709303144653425 28.157113515340544 0.0
    vertex 57.781726193549034 23.96159104439638 0.0
  endloop
endfacet
facet normal 0.0 0.0 -1.0
  outer loop
    vertex 56.709303144653425 28.157113515340544 0.0
    vertex 56.57582141906164 24.461093156919524 0.0
    vertex 56.62582141906163 28.79122017584172 0.0
  endloop
endfacet
facet normal 0.0 0.0 -1.0
  outer loop
    vertex 57.781726193549034 23.96159104439638 0.0
    vertex 56.709303144653425 28.157113515340544 0.0
    vertex 56.95405917978976 27.56622017584172 0.0
  endloop
endfacet
facet normal 0.0 0.0 -1.0
  outer loop
    vertex 57.781726193549034 23.96159104439638 0.0
    vertex 56.95405917978976 27.56622017584172 0.0
    vertex 57.3434098051546 27.058808561934683 0.0
  endloop
endfacet
facet normal 0.0 0.0 -1.0
  outer loop
    vertex 57.781726193549034 23.96159104439638 0.0
    vertex 57.3434098051546 27.058808561934683 0.0
    vertex 57.85082141906163 26.66945793656984 0.0
  endloop
endfacet
facet normal 0.0 0.0 -1.0
  outer loop
    vertex 57.781726193549034 23.96159104439638 0.0
    vertex 57.85082141906163 26.66945793656984 0.0
    vertex 59.07582141906164 23.79122017584172 0.0
  endloop
endfacet
facet normal 0.0 0.0 -1.0
  outer loop
    vertex 59.07582141906164 23.79122017584172 0.0
    vertex 57.85082141906163 26.66945793656984 0.0
    vertex 58.441714758560465 26.4247019014335 0.0
  endloop
endfacet
facet normal 0.0 0.0 -1.0
  outer loop
    vertex 59.07582141906164 23.79122017584172 0.0
    vertex 58.441714758560465 26.4247019014335 0.0
    vertex 59.07582141906164 26.34122017584172 0.0
  endloop
endfacet
facet normal 0.0 0.0 -1.0
  outer loop
    vertex 59.07582141906164 23.79122017584172 0.0
    vertex 59.07582141906164 26.34122017584172 0.0
    vertex 59.709928079562815 26.4247019014335 0.0
  endloop
endfacet
facet normal 0.0 0.0 -1.0
  outer loop
    vertex 59.07582141906164 23.79122017584172 0.0
    vertex 59.709928079562815 26.4247019014335 0.0
    vertex 60.36991664457424 23.96159104439638 0.0
  endloop
endfacet
facet normal 0.0 0.0 -1.0
  outer loop
    vertex 60.36991664457424 23.96159104439638 0.0
    vertex 59.709928079562815 26.4247019014335 0.0
    vertex 60.30082141906164 26.66945793656984 0.0
  endloop
endfacet
facet normal 0.0 0.0 -1.0
  outer loop
    vertex 60.36991664457424 23.96159104439638 0.0
    vertex 60.30082141906164 26.66945793656984 0.0
    vertex 60.80823303296868 27.058808561934676 0.0
  endloop
endfacet
facet normal 0.0 0.0 -1.0
  outer loop
    vertex 60.36991664457424 23.96159104439638 0.0
    vertex 60.80823303296868 27.058808561934676 0.0
    vertex 61.57582141906165 24.461093156919524 0.0
  endloop
endfacet
facet normal 0.0 0.0 -1.0
  outer loop
    vertex 61.57582141906165 24.461093156919524 0.0
    vertex 60.80823303296868 27.058808561934676 0.0
    vertex 61.197583658333514 27.566220175841718 0.0
  endloop
endfacet
facet normal 0.0 0.0 -1.0
  outer loop
    vertex 61.57582141906165 24.461093156919524 0.0
    vertex 61.197583658333514 27.566220175841718 0.0
    vertex 61.442339693469854 28.157113515340544 0.0
  endloop
endfacet
facet normal 0.0 0.0 -1.0
  outer loop
    vertex 61.57582141906165 24.461093156919524 0.0
    vertex 61.442339693469854 28.157113515340544 0.0
    vertex 61.52582141906164 28.79122017584172 0.0
  endloop
endfacet
facet normal 0.0 0.0 -1.0
  outer loop
    vertex 61.57582141906165 24.461093156919524 0.0
    vertex 61.52582141906164 28.79122017584172 0.0
    vertex 61.57582141906163 33.12134719476391 0.0
  endloop
endfacet
facet normal 0.0 0.0 -1.0
  outer loop
    vertex 61.57582141906165 24.461093156919524 0.0
    vertex 61.57582141906163 33.12134719476391 0.0
    vertex 62.61135532499437 32.32675408177446 0.0
  endloop
endfacet
facet normal 0.0 0.0 -1.0
  outer loop
    vertex 61.57582141906165 24.461093156919524 0.0
    vertex 62.61135532499437 32.32675408177446 0.0
    vertex 62.61135532499437 25.25568626990898 0.0
  endloop
endfacet
facet normal 0.0 0.0 -1.0
  outer loop
    vertex 62.61135532499437 25.25568626990898 0.0
    vertex 62.61135532499437 32.32675408177446 0.0
    vertex 63.40594843798383 31.291220175841723 0.0
  endloop
endfacet
facet normal 0.0 0.0 -1.0
  outer loop
    vertex 62.61135532499437 25.25568626990898 0.0
    vertex 63.40594843798383 31.291220175841723 0.0
    vertex 63.40594843798383 26.29122017584172 0.0
  endloop
endfacet
facet normal 0.0 0.0 -1.0
  outer loop
    vertex 63.40594843798383 26.29122017584172 0.0
    vertex 63.40594843798383 31.291220175841723 0.0
    vertex 63.905450550506984 30.085315401354322 0.0
  endloop
endfacet
facet normal 0.0 0.0 -1.0
  outer loop
    vertex 63.40594843798383 26.29122017584172 0.0
    vertex 63.905450550506984 30.085315401354322 0.0
    vertex 63.905450550506984 27.497124950329116 0.0
  endloop
endfacet
facet normal 0.0 0.0 -1.0
  outer loop
    vertex 63.905450550506984 27.497124950329116 0.0
    vertex 63.905450550506984 30.085315401354322 0.0
    vertex 64.07582141906164 28.79122017584172 0.0
  endloop
endfacet
facet normal -0.0 -0.0 1.0
  outer loop
    vertex 56.57582141906164 24.461093156919524 5.0
    vertex 57.023229038197364 28.24122970499886 5.0
    vertex 56.95082141906163 28.79122017584172 5.0
  endloop
endfacet
facet normal -0.0 -0.0 1.0
  outer loop
    vertex 57.023229038197364 28.24122970499886 5.0
    vertex 56.57582141906164 24.461093156919524 5.0
    vertex 57.781726193549034 23.96159104439638 5.0
  endloop
endfacet
facet normal -0.0 -0.0 1.0
  outer loop
    vertex 57.023229038197364 28.24122970499886 5.0
    vertex 57.781726193549034 23.96159104439638 5.0
    vertex 57.2355174360197 27.72872017584172 5.0
  endloop
endfacet
facet normal -0.0 -0.0 1.0
  outer loop
    vertex 57.2355174360197 27.72872017584172 5.0
    vertex 57.781726193549034 23.96159104439638 5.0
    vertex 57.57321950904023 27.288618265820304 5.0
  endloop
endfacet
facet normal -0.0 -0.0 1.0
  outer loop
    vertex 57.57321950904023 27.288618265820304 5.0
    vertex 57.781726193549034 23.96159104439638 5.0
    vertex 58.01332141906164 26.950916192799788 5.0
  endloop
endfacet
facet normal -0.0 -0.0 1.0
  outer loop
    vertex 58.01332141906164 26.950916192799788 5.0
    vertex 57.781726193549034 23.96159104439638 5.0
    vertex 59.07582141906164 23.79122017584172 5.0
  endloop
endfacet
facet normal -0.0 -0.0 1.0
  outer loop
    vertex 58.01332141906164 26.950916192799788 5.0
    vertex 59.07582141906164 23.79122017584172 5.0
    vertex 58.52583094821879 26.738627794977447 5.0
  endloop
endfacet
facet normal -0.0 -0.0 1.0
  outer loop
    vertex 58.52583094821879 26.738627794977447 5.0
    vertex 59.07582141906164 23.79122017584172 5.0
    vertex 59.07582141906164 26.66622017584172 5.0
  endloop
endfacet
facet normal -0.0 -0.0 1.0
  outer loop
    vertex 59.07582141906164 26.66622017584172 5.0
    vertex 59.07582141906164 23.79122017584172 5.0
    vertex 60.36991664457424 23.96159104439638 5.0
  endloop
endfacet
facet normal -0.0 -0.0 1.0
  outer loop
    vertex 59.07582141906164 26.66622017584172 5.0
    vertex 60.36991664457424 23.96159104439638 5.0
    vertex 59.6258118899045 26.738627794977447 5.0
  endloop
endfacet
facet normal -0.0 -0.0 1.0
  outer loop
    vertex 59.6258118899045 26.738627794977447 5.0
    vertex 60.36991664457424 23.96159104439638 5.0
    vertex 60.13832141906165 26.950916192799788 5.0
  endloop
endfacet
facet normal -0.0 -0.0 1.0
  outer loop
    vertex 60.13832141906165 26.950916192799788 5.0
    vertex 60.36991664457424 23.96159104439638 5.0
    vertex 60.57842332908305 27.288618265820308 5.0
  endloop
endfacet
facet normal -0.0 -0.0 1.0
  outer loop
    vertex 60.57842332908305 27.288618265820308 5.0
    vertex 60.36991664457424 23.96159104439638 5.0
    vertex 61.57582141906165 24.461093156919524 5.0
  endloop
endfacet
facet normal -0.0 -0.0 1.0
  outer loop
    vertex 60.57842332908305 27.288618265820308 5.0
    vertex 61.57582141906165 24.461093156919524 5.0
    vertex 60.916125402103575 27.72872017584172 5.0
  endloop
endfacet
facet normal -0.0 -0.0 1.0
  outer loop
    vertex 60.916125402103575 27.72872017584172 5.0
    vertex 61.57582141906165 24.461093156919524 5.0
    vertex 61.12841379992591 28.24122970499886 5.0
  endloop
endfacet
facet normal -0.0 -0.0 1.0
  outer loop
    vertex 61.12841379992591 28.24122970499886 5.0
    vertex 61.57582141906165 24.461093156919524 5.0
    vertex 61.20082141906164 28.79122017584172 5.0
  endloop
endfacet
facet normal -0.0 -0.0 1.0
  outer loop
    vertex 61.20082141906164 28.79122017584172 5.0
    vertex 61.57582141906165 24.461093156919524 5.0
    vertex 61.57582141906163 33.12134719476391 5.0
  endloop
endfacet
facet normal -0.0 -0.0 1.0
  outer loop
    vertex 61.57582141906163 33.12134719476391 5.0
    vertex 61.57582141906165 24.461093156919524 5.0
    vertex 62.61135532499437 32.32675408177446 5.0
  endloop
endfacet
facet normal -0.0 -0.0 1.0
  outer loop
    vertex 62.61135532499437 32.32675408177446 5.0
    vertex 61.57582141906165 24.461093156919524 5.0
    vertex 62.61135532499437 25.25568626990898 5.0
  endloop
endfacet
facet normal -0.0 -0.0 1.0
  outer loop
    vertex 62.61135532499437 32.32675408177446 5.0
    vertex 62.61135532499437 25.25568626990898 5.0
    vertex 63.40594843798383 26.29122017584172 5.0
  endloop
endfacet
facet normal -0.0 -0.0 1.0
  outer loop
    vertex 62.61135532499437 32.32675408177446 5.0
    vertex 63.40594843798383 26.29122017584172 5.0
    vertex 63.40594843798383 31.291220175841723 5.0
  endloop
endfacet
facet normal -0.0 -0.0 1.0
  outer loop
    vertex 63.40594843798383 31.291220175841723 5.0
    vertex 63.40594843798383 26.29122017584172 5.0
    vertex 63.905450550506984 27.497124950329116 5.0
  endloop
endfacet
facet normal -0.0 -0.0 1.0
  outer loop
    vertex 63.40594843798383 31.291220175841723 5.0
    vertex 63.905450550506984 27.497124950329116 5.0
    vertex 63.905450550506984 30.085315401354322 5.0
  endloop
endfacet
facet normal -0.0 -0.0 1.0
  outer loop
    vertex 63.905450550506984 30.085315401354322 5.0
    vertex 63.905450550506984 27.497124950329116 5.0
    vertex 64.07582141906164 28.79122017584172 5.0
  endloop
endfacet
facet normal -0.0 -0.0 1.0
  outer loop
    vertex 54.2461922876163 27.497124950329113 5.0
    vertex 54.24619228761629 30.085315401354322 5.0
    vertex 54.07582141906163 28.79122017584172 5.0
  endloop
endfacet
facet normal -0.0 -0.0 1.0
  outer loop
    vertex 54.24619228761629 30.085315401354322 5.0
    vertex 54.2461922876163 27.497124950329113 5.0
    vertex 54.745694400139435 31.291220175841715 5.0
  endloop
endfacet
facet normal -0.0 -0.0 1.0
  outer loop
    vertex 54.745694400139435 31.291220175841715 5.0
    vertex 54.2461922876163 27.497124950329113 5.0
    vertex 54.74569440013945 26.29122017584172 5.0
  endloop
endfacet
facet normal -0.0 -0.0 1.0
  outer loop
    vertex 54.745694400139435 31.291220175841715 5.0
    vertex 54.74569440013945 26.29122017584172 5.0
    vertex 55.5402875131289 32.32675408177445 5.0
  endloop
endfacet
facet normal -0.0 -0.0 1.0
  outer loop
    vertex 55.5402875131289 32.32675408177445 5.0
    vertex 54.74569440013945 26.29122017584172 5.0
    vertex 55.5402875131289 25.255686269908978 5.0
  endloop
endfacet
facet normal -0.0 -0.0 1.0
  outer loop
    vertex 55.5402875131289 32.32675408177445 5.0
    vertex 55.5402875131289 25.255686269908978 5.0
    vertex 56.57582141906164 24.461093156919524 5.0
  endloop
endfacet
facet normal -0.0 -0.0 1.0
  outer loop
    vertex 55.5402875131289 32.32675408177445 5.0
    vertex 56.57582141906164 24.461093156919524 5.0
    vertex 56.57582141906163 33.12134719476391 5.0
  endloop
endfacet
facet normal -0.0 -0.0 1.0
  outer loop
    vertex 56.57582141906163 33.12134719476391 5.0
    vertex 56.57582141906164 24.461093156919524 5.0
    vertex 56.95082141906163 28.79122017584172 5.0
  endloop
endfacet
facet normal -0.0 -0.0 1.0
  outer loop
    vertex 56.57582141906163 33.12134719476391 5.0
    vertex 56.95082141906163 28.79122017584172 5.0
    vertex 57.023229038197364 29.341210646684576 5.0
  endloop
endfacet
facet normal -0.0 -0.0 1.0
  outer loop
    vertex 56.57582141906163 33.12134719476391 5.0
    vertex 57.023229038197364 29.341210646684576 5.0
    vertex 57.78172619354903 33.62084930728707 5.0
  endloop
endfacet
facet normal -0.0 -0.0 1.0
  outer loop
    vertex 57.78172619354903 33.62084930728707 5.0
    vertex 57.023229038197364 29.341210646684576 5.0
    vertex 57.2355174360197 29.853720175841723 5.0
  endloop
endfacet
facet normal -0.0 -0.0 1.0
  outer loop
    vertex 57.78172619354903 33.62084930728707 5.0
    vertex 57.2355174360197 29.853720175841723 5.0
    vertex 57.57321950904023 30.293822085863138 5.0
  endloop
endfacet
facet normal -0.0 -0.0 1.0
  outer loop
    vertex 57.78172619354903 33.62084930728707 5.0
    vertex 57.57321950904023 30.293822085863138 5.0
    vertex 58.01332141906163 30.631524158883654 5.0
  endloop
endfacet
facet normal -0.0 -0.0 1.0
  outer loop
    vertex 57.78172619354903 33.62084930728707 5.0
    vertex 58.01332141906163 30.631524158883654 5.0
    vertex 59.07582141906164 33.79122017584172 5.0
  endloop
endfacet
facet normal -0.0 -0.0 1.0
  outer loop
    vertex 59.07582141906164 33.79122017584172 5.0
    vertex 58.01332141906163 30.631524158883654 5.0
    vertex 58.525830948218776 30.843812556705995 5.0
  endloop
endfacet
facet normal -0.0 -0.0 1.0
  outer loop
    vertex 59.07582141906164 33.79122017584172 5.0
    vertex 58.525830948218776 30.843812556705995 5.0
    vertex 59.07582141906164 30.916220175841723 5.0
  endloop
endfacet
facet normal -0.0 -0.0 1.0
  outer loop
    vertex 59.07582141906164 33.79122017584172 5.0
    vertex 59.07582141906164 30.916220175841723 5.0
    vertex 59.6258118899045 30.843812556705995 5.0
  endloop
endfacet
facet normal -0.0 -0.0 1.0
  outer loop
    vertex 59.07582141906164 33.79122017584172 5.0
    vertex 59.6258118899045 30.843812556705995 5.0
    vertex 60.36991664457424 33.62084930728707 5.0
  endloop
endfacet
facet normal -0.0 -0.0 1.0
  outer loop
    vertex 60.36991664457424 33.62084930728707 5.0
    vertex 59.6258118899045 30.843812556705995 5.0
    vertex 60.13832141906163 30.631524158883654 5.0
  endloop
endfacet
facet normal -0.0 -0.0 1.0
  outer loop
    vertex 60.36991664457424 33.62084930728707 5.0
    vertex 60.13832141906163 30.631524158883654 5.0
    vertex 60.57842332908305 30.293822085863138 5.0
  endloop
endfacet
facet normal -0.0 -0.0 1.0
  outer loop
    vertex 60.36991664457424 33.62084930728707 5.0
    vertex 60.57842332908305 30.293822085863138 5.0
    vertex 61.57582141906163 33.12134719476391 5.0
  endloop
endfacet
facet normal -0.0 -0.0 1.0
  outer loop
    vertex 61.57582141906163 33.12134719476391 5.0
    vertex 60.57842332908305 30.293822085863138 5.0
    vertex 60.916125402103575 29.853720175841723 5.0
  endloop
endfacet
facet normal -0.0 -0.0 1.0
  outer loop
    vertex 61.57582141906163 33.12134719476391 5.0
    vertex 60.916125402103575 29.853720175841723 5.0
    vertex 61.12841379992591 29.341210646684576 5.0
  endloop
endfacet
facet normal -0.0 -0.0 1.0
  outer loop
    vertex 61.57582141906163 33.12134719476391 5.0
    vertex 61.12841379992591 29.341210646684576 5.0
    vertex 61.20082141906164 28.79122017584172 5.0
  endloop
endfacet
facet normal -0.3826834323650902 0.9238795325112866 0.0
  outer loop
    vertex 56.57582141906163 33.12134719476391 5.0
    vertex 57.78172619354903 33.62084930728707 0.0
    vertex 56.57582141906163 33.12134719476391 0.0
  endloop
endfacet
facet normal -0.3826834323650902 0.9238795325112866 0.0
  outer loop
    vertex 57.78172619354903 33.62084930728707 0.0
    vertex 56.57582141906163 33.12134719476391 5.0
    vertex 57.78172619354903 33.62084930728707 5.0
  endloop
endfacet
facet normal -0.13052619222005074 0.9914448613738106 0.0
  outer loop
    vertex 57.78172619354903 33.62084930728707 5.0
    vertex 59.07582141906164 33.79122017584172 0.0
    vertex 57.78172619354903 33.62084930728707 0.0
  endloop
endfacet
facet normal -0.13052619222005074 0.9914448613738106 0.0
  outer loop
    vertex 59.07582141906164 33.79122017584172 0.0
    vertex 57.78172619354903 33.62084930728707 5.0
    vertex 59.07582141906164 33.79122017584172 5.0
  endloop
endfacet
facet normal 0.13052619222005188 0.9914448613738104 0.0
  outer loop
    vertex 59.07582141906164 33.79122017584172 5.0
    vertex 60.36991664457424 33.62084930728707 0.0
    vertex 59.07582141906164 33.79122017584172 0.0
  endloop
endfacet
facet normal 0.13052619222005188 0.9914448613738104 0.0
  outer loop
    vertex 60.36991664457424 33.62084930728707 0.0
    vertex 59.07582141906164 33.79122017584172 5.0
    vertex 60.36991664457424 33.62084930728707 5.0
  endloop
endfacet
facet normal 0.3826834323650902 0.9238795325112866 0.0
  outer loop
    vertex 60.36991664457424 33.62084930728707 5.0
    vertex 61.57582141906163 33.12134719476391 0.0
    vertex 60.36991664457424 33.62084930728707 0.0
  endloop
endfacet
facet normal 0.3826834323650902 0.9238795325112866 0.0
  outer loop
    vertex 61.57582141906163 33.12134719476391 0.0
    vertex 60.36991664457424 33.62084930728707 5.0
    vertex 61.57582141906163 33.12134719476391 5.0
  endloop
endfacet
facet normal 0.6087614290087197 0.7933533402912362 0.0
  outer loop
    vertex 61.57582141906163 33.12134719476391 5.0
    vertex 62.61135532499437 32.32675408177446 0.0
    vertex 61.57582141906163 33.12134719476391 0.0
  endloop
endfacet
facet normal 0.6087614290087197 0.7933533402912362 0.0
  outer loop
    vertex 62.61135532499437 32.32675408177446 0.0
    vertex 61.57582141906163 33.12134719476391 5.0
    vertex 62.61135532499437 32.32675408177446 5.0
  endloop
endfacet
facet normal 0.7933533402912362 0.6087614290087197 0.0
  outer loop
    vertex 62.61135532499437 32.32675408177446 0.0
    vertex 63.40594843798383 31.291220175841723 5.0
    vertex 63.40594843798383 31.291220175841723 0.0
  endloop
endfacet
facet normal 0.7933533402912362 0.6087614290087197 0.0
  outer loop
    vertex 63.40594843798383 31.291220175841723 5.0
    vertex 62.61135532499437 32.32675408177446 0.0
    vertex 62.61135532499437 32.32675408177446 5.0
  endloop
endfacet
facet normal 0.9238795325112842 0.3826834323650961 0.0
  outer loop
    vertex 63.40594843798383 31.291220175841723 0.0
    vertex 63.905450550506984 30.085315401354322 5.0
    vertex 63.905450550506984 30.085315401354322 0.0
  endloop
endfacet
facet normal 0.9238795325112842 0.3826834323650961 0.0
  outer loop
    vertex 63.905450550506984 30.085315401354322 5.0
    vertex 63.40594843798383 31.291220175841723 0.0
    vertex 63.40594843798383 31.291220175841723 5.0
  endloop
endfacet
facet normal 0.9914448613738109 0.13052619222004763 0.0
  outer loop
    vertex 63.905450550506984 30.085315401354322 0.0
    vertex 64.07582141906164 28.79122017584172 5.0
    vertex 64.07582141906164 28.79122017584172 0.0
  endloop
endfacet
facet normal 0.9914448613738109 0.13052619222004763 0.0
  outer loop
    vertex 64.07582141906164 28.79122017584172 5.0
    vertex 63.905450550506984 30.085315401354322 0.0
    vertex 63.905450550506984 30.085315401354322 5.0
  endloop
endfacet
facet normal 0.9914448613738109 -0.13052619222004763 0.0
  outer loop
    vertex 64.07582141906164 28.79122017584172 0.0
    vertex 63.905450550506984 27.497124950329116 5.0
    vertex 63.905450550506984 27.497124950329116 0.0
  endloop
endfacet
facet normal 0.9914448613738109 -0.13052619222004763 0.0
  outer loop
    vertex 63.905450550506984 27.497124950329116 5.0
    vertex 64.07582141906164 28.79122017584172 0.0
    vertex 64.07582141906164 28.79122017584172 5.0
  endloop
endfacet
facet normal 0.9238795325112842 -0.3826834323650961 0.0
  outer loop
    vertex 63.905450550506984 27.497124950329116 0.0
    vertex 63.40594843798383 26.29122017584172 5.0
    vertex 63.40594843798383 26.29122017584172 0.0
  endloop
endfacet
facet normal 0.9238795325112842 -0.3826834323650961 0.0
  outer loop
    vertex 63.40594843798383 26.29122017584172 5.0
    vertex 63.905450550506984 27.497124950329116 0.0
    vertex 63.905450550506984 27.497124950329116 5.0
  endloop
endfacet
facet normal 0.7933533402912354 -0.6087614290087207 0.0
  outer loop
    vertex 63.40594843798383 26.29122017584172 0.0
    vertex 62.61135532499437 25.25568626990898 5.0
    vertex 62.61135532499437 25.25568626990898 0.0
  endloop
endfacet
facet normal 0.7933533402912354 -0.6087614290087207 0.0
  outer loop
    vertex 62.61135532499437 25.25568626990898 5.0
    vertex 63.40594843798383 26.29122017584172 0.0
    vertex 63.40594843798383 26.29122017584172 5.0
  endloop
endfacet
facet normal 0.6087614290087251 -0.7933533402912316 0.0
  outer loop
    vertex 62.61135532499437 25.25568626990898 5.0
    vertex 61.57582141906165 24.461093156919524 0.0
    vertex 62.61135532499437 25.25568626990898 0.0
  endloop
endfacet
facet normal 0.6087614290087251 -0.7933533402912316 0.0
  outer loop
    vertex 61.57582141906165 24.461093156919524 0.0
    vertex 62.61135532499437 25.25568626990898 5.0
    vertex 61.57582141906165 24.461093156919524 5.0
  endloop
endfacet
facet normal 0.3826834323650872 -0.9238795325112878 0.0
  outer loop
    vertex 61.57582141906165 24.461093156919524 5.0
    vertex 60.36991664457424 23.96159104439638 0.0
    vertex 61.57582141906165 24.461093156919524 0.0
  endloop
endfacet
facet normal 0.3826834323650872 -0.9238795325112878 0.0
  outer loop
    vertex 60.36991664457424 23.96159104439638 0.0
    vertex 61.57582141906165 24.461093156919524 5.0
    vertex 60.36991664457424 23.96159104439638 5.0
  endloop
endfacet
facet normal 0.13052619222005188 -0.9914448613738104 0.0
  outer loop
    vertex 60.36991664457424 23.96159104439638 5.0
    vertex 59.07582141906164 23.79122017584172 0.0
    vertex 60.36991664457424 23.96159104439638 0.0
  endloop
endfacet
facet normal 0.13052619222005188 -0.9914448613738104 0.0
  outer loop
    vertex 59.07582141906164 23.79122017584172 0.0
    vertex 60.36991664457424 23.96159104439638 5.0
    vertex 59.07582141906164 23.79122017584172 5.0
  endloop
endfacet
facet normal -0.13052619222005188 -0.9914448613738104 -0.0
  outer loop
    vertex 59.07582141906164 23.79122017584172 5.0
    vertex 57.781726193549034 23.96159104439638 0.0
    vertex 59.07582141906164 23.79122017584172 0.0
  endloop
endfacet
facet normal -0.13052619222005188 -0.9914448613738104 -0.0
  outer loop
    vertex 57.781726193549034 23.96159104439638 0.0
    vertex 59.07582141906164 23.79122017584172 5.0
    vertex 57.781726193549034 23.96159104439638 5.0
  endloop
endfacet
facet normal -0.3826834323650902 -0.9238795325112866 -0.0
  outer loop
    vertex 57.781726193549034 23.96159104439638 5.0
    vertex 56.57582141906164 24.461093156919524 0.0
    vertex 57.781726193549034 23.96159104439638 0.0
  endloop
endfacet
facet normal -0.3826834323650902 -0.9238795325112866 -0.0
  outer loop
    vertex 56.57582141906164 24.461093156919524 0.0
    vertex 57.781726193549034 23.96159104439638 5.0
    vertex 56.57582141906164 24.461093156919524 5.0
  endloop
endfacet
facet normal -0.6087614290087197 -0.7933533402912362 -0.0
  outer loop
    vertex 56.57582141906164 24.461093156919524 5.0
    vertex 55.5402875131289 25.255686269908978 0.0
    vertex 56.57582141906164 24.461093156919524 0.0
  endloop
endfacet
facet normal -0.6087614290087197 -0.7933533402912362 -0.0
  outer loop
    vertex 55.5402875131289 25.255686269908978 0.0
    vertex 56.57582141906164 24.461093156919524 5.0
    vertex 55.5402875131289 25.255686269908978 5.0
  endloop
endfacet
facet normal -0.7933533402912362 -0.6087614290087197 -0.0
  outer loop
    vertex 54.74569440013945 26.29122017584172 5.0
    vertex 55.5402875131289 25.255686269908978 0.0
    vertex 55.5402875131289 25.255686269908978 5.0
  endloop
endfacet
facet normal -0.7933533402912362 -0.6087614290087197 -0.0
  outer loop
    vertex 55.5402875131289 25.255686269908978 0.0
    vertex 54.74569440013945 26.29122017584172 5.0
    vertex 54.74569440013945 26.29122017584172 0.0
  endloop
endfacet
facet normal -0.9238795325112866 -0.3826834323650902 -0.0
  outer loop
    vertex 54.2461922876163 27.497124950329113 5.0
    vertex 54.74569440013945 26.29122017584172 0.0
    vertex 54.74569440013945 26.29122017584172 5.0
  endloop
endfacet
facet normal -0.9238795325112866 -0.3826834323650902 -0.0
  outer loop
    vertex 54.74569440013945 26.29122017584172 0.0
    vertex 54.2461922876163 27.497124950329113 5.0
    vertex 54.2461922876163 27.497124950329113 0.0
  endloop
endfacet
facet normal -0.99144486137381 -0.13052619222005557 -0.0
  outer loop
    vertex 54.07582141906163 28.79122017584172 5.0
    vertex 54.2461922876163 27.497124950329113 0.0
    vertex 54.2461922876163 27.497124950329113 5.0
  endloop
endfacet
facet normal -0.99144486137381 -0.13052619222005557 -0.0
  outer loop
    vertex 54.2461922876163 27.497124950329113 0.0
    vertex 54.07582141906163 28.79122017584172 5.0
    vertex 54.07582141906163 28.79122017584172 0.0
  endloop
endfacet
facet normal -0.9914448613738109 0.13052619222004763 0.0
  outer loop
    vertex 54.24619228761629 30.085315401354322 5.0
    vertex 54.07582141906163 28.79122017584172 0.0
    vertex 54.07582141906163 28.79122017584172 5.0
  endloop
endfacet
facet normal -0.9914448613738109 0.13052619222004763 0.0
  outer loop
    vertex 54.07582141906163 28.79122017584172 0.0
    vertex 54.24619228761629 30.085315401354322 5.0
    vertex 54.24619228761629 30.085315401354322 0.0
  endloop
endfacet
facet normal -0.9238795325112866 0.3826834323650902 0.0
  outer loop
    vertex 54.745694400139435 31.291220175841715 5.0
    vertex 54.24619228761629 30.085315401354322 0.0
    vertex 54.24619228761629 30.085315401354322 5.0
  endloop
endfacet
facet normal -0.9238795325112866 0.3826834323650902 0.0
  outer loop
    vertex 54.24619228761629 30.085315401354322 0.0
    vertex 54.745694400139435 31.291220175841715 5.0
    vertex 54.745694400139435 31.291220175841715 0.0
  endloop
endfacet
facet normal -0.793353340291232 0.6087614290087251 0.0
  outer loop
    vertex 55.5402875131289 32.32675408177445 5.0
    vertex 54.745694400139435 31.291220175841715 0.0
    vertex 54.745694400139435 31.291220175841715 5.0
  endloop
endfacet
facet normal -0.793353340291232 0.6087614290087251 0.0
  outer loop
    vertex 54.745694400139435 31.291220175841715 0.0
    vertex 55.5402875131289 32.32675408177445 5.0
    vertex 55.5402875131289 32.32675408177445 0.0
  endloop
endfacet
facet normal -0.6087614290087265 0.7933533402912308 0.0
  outer loop
    vertex 55.5402875131289 32.32675408177445 5.0
    vertex 56.57582141906163 33.12134719476391 0.0
    vertex 55.5402875131289 32.32675408177445 0.0
  endloop
endfacet
facet normal -0.6087614290087265 0.7933533402912308 0.0
  outer loop
    vertex 56.57582141906163 33.12134719476391 0.0
    vertex 55.5402875131289 32.32675408177445 5.0
    vertex 56.57582141906163 33.12134719476391 5.0
  endloop
endfacet
facet normal 0.0 0.0 1.0
  outer loop
    vertex 57.023229038197364 28.24122970499886 45.280792
    vertex 57.023229038197364 29.341210646684576 45.280792
    vertex 56.95082141906163 28.79122017584172 45.280792
  endloop
endfacet
facet normal 0.0 0.0 1.0
  outer loop
    vertex 57.023229038197364 29.341210646684576 45.280792
    vertex 57.023229038197364 28.24122970499886 45.280792
    vertex 57.2355174360197 27.72872017584172 45.280792
  endloop
endfacet
facet normal 0.0 0.0 1.0
  outer loop
    vertex 57.023229038197364 29.341210646684576 45.280792
    vertex 57.2355174360197 27.72872017584172 45.280792
    vertex 57.2355174360197 29.853720175841723 45.280792
  endloop
endfacet
facet normal 0.0 0.0 1.0
  outer loop
    vertex 57.2355174360197 29.853720175841723 45.280792
    vertex 57.2355174360197 27.72872017584172 45.280792
    vertex 57.57321950904023 27.288618265820304 45.280792
  endloop
endfacet
facet normal 0.0 0.0 1.0
  outer loop
    vertex 57.2355174360197 29.853720175841723 45.280792
    vertex 57.57321950904023 27.288618265820304 45.280792
    vertex 57.57321950904023 30.293822085863138 45.280792
  endloop
endfacet
facet normal 0.0 0.0 1.0
  outer loop
    vertex 57.57321950904023 30.293822085863138 45.280792
    vertex 57.57321950904023 27.288618265820304 45.280792
    vertex 58.01332141906164 26.950916192799788 45.280792
  endloop
endfacet
facet normal 0.0 0.0 1.0
  outer loop
    vertex 57.57321950904023 30.293822085863138 45.280792
    vertex 58.01332141906164 26.950916192799788 45.280792
    vertex 58.01332141906163 30.631524158883654 45.280792
  endloop
endfacet
facet normal 0.0 0.0 1.0
  outer loop
    vertex 58.01332141906163 30.631524158883654 45.280792
    vertex 58.01332141906164 26.950916192799788 45.280792
    vertex 58.525830948218776 30.843812556705995 45.280792
  endloop
endfacet
facet normal 0.0 0.0 1.0
  outer loop
    vertex 58.525830948218776 30.843812556705995 45.280792
    vertex 58.01332141906164 26.950916192799788 45.280792
    vertex 58.52583094821879 26.738627794977447 45.280792
  endloop
endfacet
facet normal 0.0 0.0 1.0
  outer loop
    vertex 58.525830948218776 30.843812556705995 45.280792
    vertex 58.52583094821879 26.738627794977447 45.280792
    vertex 59.07582141906164 30.916220175841723 45.280792
  endloop
endfacet
facet normal 0.0 0.0 1.0
  outer loop
    vertex 59.07582141906164 30.916220175841723 45.280792
    vertex 58.52583094821879 26.738627794977447 45.280792
    vertex 59.07582141906164 26.66622017584172 45.280792
  endloop
endfacet
facet normal 0.0 0.0 1.0
  outer loop
    vertex 59.07582141906164 30.916220175841723 45.280792
    vertex 59.07582141906164 26.66622017584172 45.280792
    vertex 59.6258118899045 26.738627794977447 45.280792
  endloop
endfacet
facet normal 0.0 0.0 1.0
  outer loop
    vertex 59.07582141906164 30.916220175841723 45.280792
    vertex 59.6258118899045 26.738627794977447 45.280792
    vertex 59.6258118899045 30.843812556705995 45.280792
  endloop
endfacet
facet normal 0.0 0.0 1.0
  outer loop
    vertex 59.6258118899045 30.843812556705995 45.280792
    vertex 59.6258118899045 26.738627794977447 45.280792
    vertex 60.13832141906165 26.950916192799788 45.280792
  endloop
endfacet
facet normal 0.0 0.0 1.0
  outer loop
    vertex 59.6258118899045 30.843812556705995 45.280792
    vertex 60.13832141906165 26.950916192799788 45.280792
    vertex 60.13832141906163 30.631524158883654 45.280792
  endloop
endfacet
facet normal 0.0 0.0 1.0
  outer loop
    vertex 60.13832141906163 30.631524158883654 45.280792
    vertex 60.13832141906165 26.950916192799788 45.280792
    vertex 60.57842332908305 30.293822085863138 45.280792
  endloop
endfacet
facet normal 0.0 0.0 1.0
  outer loop
    vertex 60.57842332908305 30.293822085863138 45.280792
    vertex 60.13832141906165 26.950916192799788 45.280792
    vertex 60.57842332908305 27.288618265820308 45.280792
  endloop
endfacet
facet normal 0.0 0.0 1.0
  outer loop
    vertex 60.57842332908305 30.293822085863138 45.280792
    vertex 60.57842332908305 27.288618265820308 45.280792
    vertex 60.916125402103575 27.72872017584172 45.280792
  endloop
endfacet
facet normal 0.0 0.0 1.0
  outer loop
    vertex 60.57842332908305 30.293822085863138 45.280792
    vertex 60.916125402103575 27.72872017584172 45.280792
    vertex 60.916125402103575 29.853720175841723 45.280792
  endloop
endfacet
facet normal 0.0 0.0 1.0
  outer loop
    vertex 60.916125402103575 29.853720175841723 45.280792
    vertex 60.916125402103575 27.72872017584172 45.280792
    vertex 61.12841379992591 28.24122970499886 45.280792
  endloop
endfacet
facet normal 0.0 0.0 1.0
  outer loop
    vertex 60.916125402103575 29.853720175841723 45.280792
    vertex 61.12841379992591 28.24122970499886 45.280792
    vertex 61.12841379992591 29.341210646684576 45.280792
  endloop
endfacet
facet normal 0.0 0.0 1.0
  outer loop
    vertex 61.12841379992591 29.341210646684576 45.280792
    vertex 61.12841379992591 28.24122970499886 45.280792
    vertex 61.20082141906164 28.79122017584172 45.280792
  endloop
endfacet
facet normal 0.13052619222004666 -0.991444861373811 0.0
  outer loop
    vertex 59.6258118899045 26.738627794977447 45.280792
    vertex 59.07582141906164 26.66622017584172 5.0
    vertex 59.6258118899045 26.738627794977447 5.0
  endloop
endfacet
facet normal 0.13052619222004666 -0.991444861373811 0.0
  outer loop
    vertex 59.07582141906164 26.66622017584172 5.0
    vertex 59.6258118899045 26.738627794977447 45.280792
    vertex 59.07582141906164 26.66622017584172 45.280792
  endloop
endfacet
facet normal 0.3826834323650944 -0.9238795325112849 0.0
  outer loop
    vertex 60.13832141906165 26.950916192799788 45.280792
    vertex 59.6258118899045 26.738627794977447 5.0
    vertex 60.13832141906165 26.950916192799788 5.0
  endloop
endfacet
facet normal 0.3826834323650944 -0.9238795325112849 0.0
  outer loop
    vertex 59.6258118899045 26.738627794977447 5.0
    vertex 60.13832141906165 26.950916192799788 45.280792
    vertex 59.6258118899045 26.738627794977447 45.280792
  endloop
endfacet
facet normal 0.6087614290087306 -0.7933533402912276 0.0
  outer loop
    vertex 60.57842332908305 27.288618265820308 45.280792
    vertex 60.13832141906165 26.950916192799788 5.0
    vertex 60.57842332908305 27.288618265820308 5.0
  endloop
endfacet
facet normal 0.6087614290087306 -0.7933533402912276 0.0
  outer loop
    vertex 60.13832141906165 26.950916192799788 5.0
    vertex 60.57842332908305 27.288618265820308 45.280792
    vertex 60.13832141906165 26.950916192799788 45.280792
  endloop
endfacet
facet normal 0.7933533402912265 -0.6087614290087321 0.0
  outer loop
    vertex 60.916125402103575 27.72872017584172 5.0
    vertex 60.57842332908305 27.288618265820308 45.280792
    vertex 60.57842332908305 27.288618265820308 5.0
  endloop
endfacet
facet normal 0.7933533402912265 -0.6087614290087321 0.0
  outer loop
    vertex 60.57842332908305 27.288618265820308 45.280792
    vertex 60.916125402103575 27.72872017584172 5.0
    vertex 60.916125402103575 27.72872017584172 45.280792
  endloop
endfacet
facet normal 0.9238795325112884 -0.38268343236508573 0.0
  outer loop
    vertex 61.12841379992591 28.24122970499886 5.0
    vertex 60.916125402103575 27.72872017584172 45.280792
    vertex 60.916125402103575 27.72872017584172 5.0
  endloop
endfacet
facet normal 0.9238795325112884 -0.38268343236508573 0.0
  outer loop
    vertex 60.916125402103575 27.72872017584172 45.280792
    vertex 61.12841379992591 28.24122970499886 5.0
    vertex 61.12841379992591 28.24122970499886 45.280792
  endloop
endfacet
facet normal 0.9914448613738109 -0.130526192220048 0.0
  outer loop
    vertex 61.20082141906164 28.79122017584172 5.0
    vertex 61.12841379992591 28.24122970499886 45.280792
    vertex 61.12841379992591 28.24122970499886 5.0
  endloop
endfacet
facet normal 0.9914448613738109 -0.130526192220048 0.0
  outer loop
    vertex 61.12841379992591 28.24122970499886 45.280792
    vertex 61.20082141906164 28.79122017584172 5.0
    vertex 61.20082141906164 28.79122017584172 45.280792
  endloop
endfacet
facet normal 0.9914448613738109 0.130526192220048 0.0
  outer loop
    vertex 61.12841379992591 29.341210646684576 5.0
    vertex 61.20082141906164 28.79122017584172 45.280792
    vertex 61.20082141906164 28.79122017584172 5.0
  endloop
endfacet
facet normal 0.9914448613738109 0.130526192220048 0.0
  outer loop
    vertex 61.20082141906164 28.79122017584172 45.280792
    vertex 61.12841379992591 29.341210646684576 5.0
    vertex 61.12841379992591 29.341210646684576 45.280792
  endloop
endfacet
facet normal 0.9238795325112884 0.38268343236508573 0.0
  outer loop
    vertex 60.916125402103575 29.853720175841723 5.0
    vertex 61.12841379992591 29.341210646684576 45.280792
    vertex 61.12841379992591 29.341210646684576 5.0
  endloop
endfacet
facet normal 0.9238795325112884 0.38268343236508573 0.0
  outer loop
    vertex 61.12841379992591 29.341210646684576 45.280792
    vertex 60.916125402103575 29.853720175841723 5.0
    vertex 60.916125402103575 29.853720175841723 45.280792
  endloop
endfacet
facet normal 0.7933533402912303 0.6087614290087272 0.0
  outer loop
    vertex 60.57842332908305 30.293822085863138 5.0
    vertex 60.916125402103575 29.853720175841723 45.280792
    vertex 60.916125402103575 29.853720175841723 5.0
  endloop
endfacet
facet normal 0.7933533402912303 0.6087614290087272 0.0
  outer loop
    vertex 60.916125402103575 29.853720175841723 45.280792
    vertex 60.57842332908305 30.293822085863138 5.0
    vertex 60.57842332908305 30.293822085863138 45.280792
  endloop
endfacet
facet normal 0.6087614290087144 0.7933533402912402 0.0
  outer loop
    vertex 60.13832141906163 30.631524158883654 45.280792
    vertex 60.57842332908305 30.293822085863138 5.0
    vertex 60.13832141906163 30.631524158883654 5.0
  endloop
endfacet
facet normal 0.6087614290087144 0.7933533402912402 0.0
  outer loop
    vertex 60.57842332908305 30.293822085863138 5.0
    vertex 60.13832141906163 30.631524158883654 45.280792
    vertex 60.57842332908305 30.293822085863138 45.280792
  endloop
endfacet
facet normal 0.38268343236510166 0.923879532511282 0.0
  outer loop
    vertex 59.6258118899045 30.843812556705995 45.280792
    vertex 60.13832141906163 30.631524158883654 5.0
    vertex 59.6258118899045 30.843812556705995 5.0
  endloop
endfacet
facet normal 0.38268343236510166 0.923879532511282 0.0
  outer loop
    vertex 60.13832141906163 30.631524158883654 5.0
    vertex 59.6258118899045 30.843812556705995 45.280792
    vertex 60.13832141906163 30.631524158883654 45.280792
  endloop
endfacet
facet normal 0.13052619222004666 0.991444861373811 0.0
  outer loop
    vertex 59.07582141906164 30.916220175841723 45.280792
    vertex 59.6258118899045 30.843812556705995 5.0
    vertex 59.07582141906164 30.916220175841723 5.0
  endloop
endfacet
facet normal 0.13052619222004666 0.991444861373811 0.0
  outer loop
    vertex 59.6258118899045 30.843812556705995 5.0
    vertex 59.07582141906164 30.916220175841723 45.280792
    vertex 59.6258118899045 30.843812556705995 45.280792
  endloop
endfacet
facet normal -0.13052619222004666 0.991444861373811 0.0
  outer loop
    vertex 58.525830948218776 30.843812556705995 45.280792
    vertex 59.07582141906164 30.916220175841723 5.0
    vertex 58.525830948218776 30.843812556705995 5.0
  endloop
endfacet
facet normal -0.13052619222004666 0.991444861373811 0.0
  outer loop
    vertex 59.07582141906164 30.916220175841723 5.0
    vertex 58.525830948218776 30.843812556705995 45.280792
    vertex 59.07582141906164 30.916220175841723 45.280792
  endloop
endfacet
facet normal -0.3826834323650944 0.9238795325112849 0.0
  outer loop
    vertex 58.01332141906163 30.631524158883654 45.280792
    vertex 58.525830948218776 30.843812556705995 5.0
    vertex 58.01332141906163 30.631524158883654 5.0
  endloop
endfacet
facet normal -0.3826834323650944 0.9238795325112849 0.0
  outer loop
    vertex 58.525830948218776 30.843812556705995 5.0
    vertex 58.01332141906163 30.631524158883654 45.280792
    vertex 58.525830948218776 30.843812556705995 45.280792
  endloop
endfacet
facet normal -0.6087614290087242 0.7933533402912325 0.0
  outer loop
    vertex 57.57321950904023 30.293822085863138 45.280792
    vertex 58.01332141906163 30.631524158883654 5.0
    vertex 57.57321950904023 30.293822085863138 5.0
  endloop
endfacet
facet normal -0.6087614290087242 0.7933533402912325 0.0
  outer loop
    vertex 58.01332141906163 30.631524158883654 5.0
    vertex 57.57321950904023 30.293822085863138 45.280792
    vertex 58.01332141906163 30.631524158883654 45.280792
  endloop
endfacet
facet normal -0.7933533402912303 0.6087614290087272 0.0
  outer loop
    vertex 57.57321950904023 30.293822085863138 45.280792
    vertex 57.2355174360197 29.853720175841723 5.0
    vertex 57.2355174360197 29.853720175841723 45.280792
  endloop
endfacet
facet normal -0.7933533402912303 0.6087614290087272 0.0
  outer loop
    vertex 57.2355174360197 29.853720175841723 5.0
    vertex 57.57321950904023 30.293822085863138 45.280792
    vertex 57.57321950904023 30.293822085863138 5.0
  endloop
endfacet
facet normal -0.9238795325112884 0.38268343236508573 0.0
  outer loop
    vertex 57.2355174360197 29.853720175841723 45.280792
    vertex 57.023229038197364 29.341210646684576 5.0
    vertex 57.023229038197364 29.341210646684576 45.280792
  endloop
endfacet
facet normal -0.9238795325112884 0.38268343236508573 0.0
  outer loop
    vertex 57.023229038197364 29.341210646684576 5.0
    vertex 57.2355174360197 29.853720175841723 45.280792
    vertex 57.2355174360197 29.853720175841723 5.0
  endloop
endfacet
facet normal -0.9914448613738109 0.130526192220048 0.0
  outer loop
    vertex 57.023229038197364 29.341210646684576 45.280792
    vertex 56.95082141906163 28.79122017584172 5.0
    vertex 56.95082141906163 28.79122017584172 45.280792
  endloop
endfacet
facet normal -0.9914448613738109 0.130526192220048 0.0
  outer loop
    vertex 56.95082141906163 28.79122017584172 5.0
    vertex 57.023229038197364 29.341210646684576 45.280792
    vertex 57.023229038197364 29.341210646684576 5.0
  endloop
endfacet
facet normal -0.9914448613738109 -0.130526192220048 -0.0
  outer loop
    vertex 56.95082141906163 28.79122017584172 45.280792
    vertex 57.023229038197364 28.24122970499886 5.0
    vertex 57.023229038197364 28.24122970499886 45.280792
  endloop
endfacet
facet normal -0.9914448613738109 -0.130526192220048 -0.0
  outer loop
    vertex 57.023229038197364 28.24122970499886 5.0
    vertex 56.95082141906163 28.79122017584172 45.280792
    vertex 56.95082141906163 28.79122017584172 5.0
  endloop
endfacet
facet normal -0.9238795325112884 -0.38268343236508573 -0.0
  outer loop
    vertex 57.023229038197364 28.24122970499886 45.280792
    vertex 57.2355174360197 27.72872017584172 5.0
    vertex 57.2355174360197 27.72872017584172 45.280792
  endloop
endfacet
facet normal -0.9238795325112884 -0.38268343236508573 -0.0
  outer loop
    vertex 57.2355174360197 27.72872017584172 5.0
    vertex 57.023229038197364 28.24122970499886 45.280792
    vertex 57.023229038197364 28.24122970499886 5.0
  endloop
endfacet
facet normal -0.7933533402912303 -0.6087614290087272 -0.0
  outer loop
    vertex 57.2355174360197 27.72872017584172 45.280792
    vertex 57.57321950904023 27.288618265820304 5.0
    vertex 57.57321950904023 27.288618265820304 45.280792
  endloop
endfacet
facet normal -0.7933533402912303 -0.6087614290087272 -0.0
  outer loop
    vertex 57.57321950904023 27.288618265820304 5.0
    vertex 57.2355174360197 27.72872017584172 45.280792
    vertex 57.2355174360197 27.72872017584172 5.0
  endloop
endfacet
facet normal -0.6087614290087144 -0.7933533402912402 -0.0
  outer loop
    vertex 58.01332141906164 26.950916192799788 45.280792
    vertex 57.57321950904023 27.288618265820304 5.0
    vertex 58.01332141906164 26.950916192799788 5.0
  endloop
endfacet
facet normal -0.6087614290087144 -0.7933533402912402 -0.0
  outer loop
    vertex 57.57321950904023 27.288618265820304 5.0
    vertex 58.01332141906164 26.950916192799788 45.280792
    vertex 57.57321950904023 27.288618265820304 45.280792
  endloop
endfacet
facet normal -0.3826834323650944 -0.9238795325112849 -0.0
  outer loop
    vertex 58.52583094821879 26.738627794977447 45.280792
    vertex 58.01332141906164 26.950916192799788 5.0
    vertex 58.52583094821879 26.738627794977447 5.0
  endloop
endfacet
facet normal -0.3826834323650944 -0.9238795325112849 -0.0
  outer loop
    vertex 58.01332141906164 26.950916192799788 5.0
    vertex 58.52583094821879 26.738627794977447 45.280792
    vertex 58.01332141906164 26.950916192799788 45.280792
  endloop
endfacet
facet normal -0.1305261922200493 -0.9914448613738107 -0.0
  outer loop
    vertex 59.07582141906164 26.66622017584172 45.280792
    vertex 58.52583094821879 26.738627794977447 5.0
    vertex 59.07582141906164 26.66622017584172 5.0
  endloop
endfacet
facet normal -0.1305261922200493 -0.9914448613738107 -0.0
  outer loop
    vertex 58.52583094821879 26.738627794977447 5.0
    vertex 59.07582141906164 26.66622017584172 45.280792
    vertex 58.52583094821879 26.738627794977447 45.280792
  endloop
endfacet
endsolid hinge pin
