solid 90 degree joining plane
facet normal 0.0 0.0 -1.0
  outer loop
    vertex 28.520389597322854 91.27755998884281 0.0
    vertex 36.83001940131698 81.73049331777221 0.0
    vertex 28.520389597322854 31.277559988842814 0.0
  endloop
endfacet
facet normal 0.0 0.0 -1.0
  outer loop
    vertex 36.83001940131698 81.73049331777221 0.0
    vertex 28.520389597322854 91.27755998884281 0.0
    vertex 37.004845140700084 82.15255998884281 0.0
  endloop
endfacet
facet normal 0.0 0.0 -1.0
  outer loop
    vertex 37.004845140700084 82.15255998884281 0.0
    vertex 28.520389597322854 91.27755998884281 0.0
    vertex 37.28295273024639 82.51499685591926 0.0
  endloop
endfacet
facet normal 0.0 0.0 -1.0
  outer loop
    vertex 37.28295273024639 82.51499685591926 0.0
    vertex 28.520389597322854 91.27755998884281 0.0
    vertex 48.520389597322854 91.27755998884281 0.0
  endloop
endfacet
facet normal 0.0 0.0 -1.0
  outer loop
    vertex 28.520389597322854 31.277559988842814 0.0
    vertex 36.83001940131698 81.73049331777221 0.0
    vertex 36.77038959732285 81.27755998884281 0.0
  endloop
endfacet
facet normal 0.0 0.0 -1.0
  outer loop
    vertex 37.28295273024639 82.51499685591926 0.0
    vertex 48.520389597322854 91.27755998884281 0.0
    vertex 37.645389597322854 82.79310444546557 0.0
  endloop
endfacet
facet normal 0.0 0.0 -1.0
  outer loop
    vertex 37.645389597322854 82.79310444546557 0.0
    vertex 48.520389597322854 91.27755998884281 0.0
    vertex 38.06745626839344 82.96793018484868 0.0
  endloop
endfacet
facet normal 0.0 0.0 -1.0
  outer loop
    vertex 38.06745626839344 82.96793018484868 0.0
    vertex 48.520389597322854 91.27755998884281 0.0
    vertex 38.520389597322854 83.02755998884281 0.0
  endloop
endfacet
facet normal 0.0 0.0 -1.0
  outer loop
    vertex 38.520389597322854 83.02755998884281 0.0
    vertex 48.520389597322854 91.27755998884281 0.0
    vertex 38.973322926252266 82.96793018484868 0.0
  endloop
endfacet
facet normal 0.0 0.0 -1.0
  outer loop
    vertex 38.973322926252266 82.96793018484868 0.0
    vertex 48.520389597322854 91.27755998884281 0.0
    vertex 39.395389597322854 82.79310444546557 0.0
  endloop
endfacet
facet normal 0.0 0.0 -1.0
  outer loop
    vertex 39.395389597322854 82.79310444546557 0.0
    vertex 48.520389597322854 91.27755998884281 0.0
    vertex 39.757826464399315 82.51499685591926 0.0
  endloop
endfacet
facet normal 0.0 0.0 -1.0
  outer loop
    vertex 39.757826464399315 82.51499685591926 0.0
    vertex 48.520389597322854 91.27755998884281 0.0
    vertex 40.035934053945624 82.15255998884281 0.0
  endloop
endfacet
facet normal 0.0 0.0 -1.0
  outer loop
    vertex 40.035934053945624 82.15255998884281 0.0
    vertex 48.520389597322854 91.27755998884281 0.0
    vertex 40.21075979332873 81.73049331777221 0.0
  endloop
endfacet
facet normal 0.0 0.0 -1.0
  outer loop
    vertex 40.21075979332873 81.73049331777221 0.0
    vertex 48.520389597322854 91.27755998884281 0.0
    vertex 40.270389597322854 81.27755998884281 0.0
  endloop
endfacet
facet normal 0.0 0.0 -1.0
  outer loop
    vertex 40.270389597322854 81.27755998884281 0.0
    vertex 48.520389597322854 91.27755998884281 0.0
    vertex 40.270389597322854 61.27755998884281 0.0
  endloop
endfacet
facet normal 0.0 0.0 -1.0
  outer loop
    vertex 48.520389597322854 91.27755998884281 0.0
    vertex 56.859509158557096 41.82890032667894 0.0
    vertex 56.77340490737544 41.380246371042865 0.0
  endloop
endfacet
facet normal 0.0 0.0 -1.0
  outer loop
    vertex 56.859509158557096 41.82890032667894 0.0
    vertex 48.520389597322854 91.27755998884281 0.0
    vertex 57.058799666905934 42.23998134942448 0.0
  endloop
endfacet
facet normal 0.0 0.0 -1.0
  outer loop
    vertex 57.058799666905934 42.23998134942448 0.0
    vertex 48.520389597322854 91.27755998884281 0.0
    vertex 57.35769511362112 42.58547494692288 0.0
  endloop
endfacet
facet normal 0.0 0.0 -1.0
  outer loop
    vertex 57.35769511362112 42.58547494692288 0.0
    vertex 48.520389597322854 91.27755998884281 0.0
    vertex 57.7358262679571 42.84183630145978 0.0
  endloop
endfacet
facet normal 0.0 0.0 -1.0
  outer loop
    vertex 57.7358262679571 42.84183630145978 0.0
    vertex 48.520389597322854 91.27755998884281 0.0
    vertex 58.167424116637164 42.99159481038067 0.0
  endloop
endfacet
facet normal 0.0 0.0 -1.0
  outer loop
    vertex 58.167424116637164 42.99159481038067 0.0
    vertex 48.520389597322854 91.27755998884281 0.0
    vertex 88.52038959732286 51.27755998884282 0.0
  endloop
endfacet
facet normal 0.0 0.0 -1.0
  outer loop
    vertex 58.167424116637164 42.99159481038067 0.0
    vertex 88.52038959732286 51.27755998884282 0.0
    vertex 58.6230759795229 43.02454467879023 0.0
  endloop
endfacet
facet normal 0.0 0.0 -1.0
  outer loop
    vertex 58.6230759795229 43.02454467879023 0.0
    vertex 88.52038959732286 51.27755998884282 0.0
    vertex 59.071729935158984 42.93844042760857 0.0
  endloop
endfacet
facet normal 0.0 0.0 -1.0
  outer loop
    vertex 59.071729935158984 42.93844042760857 0.0
    vertex 88.52038959732286 51.27755998884282 0.0
    vertex 59.482810957904526 42.73914991925973 0.0
  endloop
endfacet
facet normal 0.0 0.0 -1.0
  outer loop
    vertex 59.482810957904526 42.73914991925973 0.0
    vertex 88.52038959732286 51.27755998884282 0.0
    vertex 59.82830455540292 42.44025447254454 0.0
  endloop
endfacet
facet normal 0.0 0.0 -1.0
  outer loop
    vertex 59.82830455540292 42.44025447254454 0.0
    vertex 88.52038959732286 51.27755998884282 0.0
    vertex 60.08466590993982 42.062123318208556 0.0
  endloop
endfacet
facet normal 0.0 0.0 -1.0
  outer loop
    vertex 60.08466590993982 42.062123318208556 0.0
    vertex 88.52038959732286 51.27755998884282 0.0
    vertex 60.23442441886071 41.63052546952851 0.0
  endloop
endfacet
facet normal 0.0 0.0 -1.0
  outer loop
    vertex 60.23442441886071 41.63052546952851 0.0
    vertex 88.52038959732286 51.27755998884282 0.0
    vertex 60.259948655869316 41.27755998884281 0.0
  endloop
endfacet
facet normal 0.0 0.0 -1.0
  outer loop
    vertex 60.259948655869316 41.27755998884281 0.0
    vertex 88.52038959732286 51.27755998884282 0.0
    vertex 60.26737428727027 41.17487360664276 0.0
  endloop
endfacet
facet normal 0.0 0.0 -1.0
  outer loop
    vertex 60.26737428727027 41.17487360664276 0.0
    vertex 88.52038959732286 51.27755998884282 0.0
    vertex 77.39580694028275 42.618385796874804 0.0
  endloop
endfacet
facet normal 0.0 0.0 -1.0
  outer loop
    vertex 60.26737428727027 41.17487360664276 0.0
    vertex 77.39580694028275 42.618385796874804 0.0
    vertex 77.08709490980739 42.28163485594185 0.0
  endloop
endfacet
facet normal 0.0 0.0 -1.0
  outer loop
    vertex 60.26737428727027 41.17487360664276 0.0
    vertex 77.08709490980739 42.28163485594185 0.0
    vertex 76.87605954365472 41.87645787212827 0.0
  endloop
endfacet
facet normal 0.0 0.0 -1.0
  outer loop
    vertex 60.26737428727027 41.17487360664276 0.0
    vertex 76.87605954365472 41.87645787212827 0.0
    vertex 76.77708255327566 41.43046698729433 0.0
  endloop
endfacet
facet normal 0.0 0.0 -1.0
  outer loop
    vertex 77.39580694028275 42.618385796874804 0.0
    vertex 88.52038959732286 51.27755998884282 0.0
    vertex 77.78115742037471 42.8637616748098 0.0
  endloop
endfacet
facet normal 0.0 0.0 -1.0
  outer loop
    vertex 77.78115742037471 42.8637616748098 0.0
    vertex 88.52038959732286 51.27755998884282 0.0
    vertex 78.21688535168673 43.001040529168364 0.0
  endloop
endfacet
facet normal 0.0 0.0 -1.0
  outer loop
    vertex 78.21688535168673 43.001040529168364 0.0
    vertex 88.52038959732286 51.27755998884282 0.0
    vertex 78.67329659577437 43.02086703289 0.0
  endloop
endfacet
facet normal 0.0 0.0 -1.0
  outer loop
    vertex 78.67329659577437 43.02086703289 0.0
    vertex 88.52038959732286 51.27755998884282 0.0
    vertex 79.1192874806083 42.92189004251093 0.0
  endloop
endfacet
facet normal 0.0 0.0 -1.0
  outer loop
    vertex 79.1192874806083 42.92189004251093 0.0
    vertex 88.52038959732286 51.27755998884282 0.0
    vertex 79.5244644644219 42.71085467635828 0.0
  endloop
endfacet
facet normal 0.0 0.0 -1.0
  outer loop
    vertex 79.5244644644219 42.71085467635828 0.0
    vertex 88.52038959732286 51.27755998884282 0.0
    vertex 79.86121540535486 42.402142645882904 0.0
  endloop
endfacet
facet normal 0.0 0.0 -1.0
  outer loop
    vertex 79.86121540535486 42.402142645882904 0.0
    vertex 88.52038959732286 51.27755998884282 0.0
    vertex 80.10659128328983 42.01679216579097 0.0
  endloop
endfacet
facet normal 0.0 0.0 -1.0
  outer loop
    vertex 80.10659128328983 42.01679216579097 0.0
    vertex 88.52038959732286 51.27755998884282 0.0
    vertex 80.2438701376484 41.58106423447894 0.0
  endloop
endfacet
facet normal 0.0 0.0 -1.0
  outer loop
    vertex 80.2438701376484 41.58106423447894 0.0
    vertex 88.52038959732286 51.27755998884282 0.0
    vertex 80.25705436159903 41.27755998884281 0.0
  endloop
endfacet
facet normal 0.0 0.0 -1.0
  outer loop
    vertex 80.25705436159903 41.27755998884281 0.0
    vertex 88.52038959732286 51.27755998884282 0.0
    vertex 80.26369664137005 41.12465299039129 0.0
  endloop
endfacet
facet normal 0.0 0.0 -1.0
  outer loop
    vertex 28.520389597322854 31.277559988842814 0.0
    vertex 57.969049259486724 39.61667955007705 0.0
    vertex 88.52038959732286 31.277559988842814 0.0
  endloop
endfacet
facet normal 0.0 0.0 -1.0
  outer loop
    vertex 57.969049259486724 39.61667955007705 0.0
    vertex 28.520389597322854 31.277559988842814 0.0
    vertex 57.55796823674118 39.81597005842589 0.0
  endloop
endfacet
facet normal 0.0 0.0 -1.0
  outer loop
    vertex 57.55796823674118 39.81597005842589 0.0
    vertex 28.520389597322854 31.277559988842814 0.0
    vertex 57.21247463924279 40.11486550514108 0.0
  endloop
endfacet
facet normal 0.0 0.0 -1.0
  outer loop
    vertex 57.21247463924279 40.11486550514108 0.0
    vertex 28.520389597322854 31.277559988842814 0.0
    vertex 37.28295273024639 60.04012312176635 0.0
  endloop
endfacet
facet normal 0.0 0.0 -1.0
  outer loop
    vertex 37.28295273024639 60.04012312176635 0.0
    vertex 28.520389597322854 31.277559988842814 0.0
    vertex 37.004845140700084 60.4025599888428 0.0
  endloop
endfacet
facet normal 0.0 0.0 -1.0
  outer loop
    vertex 37.004845140700084 60.4025599888428 0.0
    vertex 28.520389597322854 31.277559988842814 0.0
    vertex 36.83001940131698 60.8246266599134 0.0
  endloop
endfacet
facet normal 0.0 0.0 -1.0
  outer loop
    vertex 36.83001940131698 60.8246266599134 0.0
    vertex 28.520389597322854 31.277559988842814 0.0
    vertex 36.77038959732285 61.27755998884281 0.0
  endloop
endfacet
facet normal 0.0 0.0 -1.0
  outer loop
    vertex 36.77038959732285 61.27755998884281 0.0
    vertex 28.520389597322854 31.277559988842814 0.0
    vertex 36.77038959732285 81.27755998884281 0.0
  endloop
endfacet
facet normal 0.0 0.0 -1.0
  outer loop
    vertex 57.21247463924279 40.11486550514108 0.0
    vertex 37.28295273024639 60.04012312176635 0.0
    vertex 37.64538959732285 59.76201553222004 0.0
  endloop
endfacet
facet normal 0.0 0.0 -1.0
  outer loop
    vertex 57.21247463924279 40.11486550514108 0.0
    vertex 37.64538959732285 59.76201553222004 0.0
    vertex 38.06745626839344 59.58718979283694 0.0
  endloop
endfacet
facet normal 0.0 0.0 -1.0
  outer loop
    vertex 57.21247463924279 40.11486550514108 0.0
    vertex 38.06745626839344 59.58718979283694 0.0
    vertex 38.520389597322854 59.52755998884281 0.0
  endloop
endfacet
facet normal 0.0 0.0 -1.0
  outer loop
    vertex 57.21247463924279 40.11486550514108 0.0
    vertex 38.520389597322854 59.52755998884281 0.0
    vertex 38.973322926252266 59.58718979283694 0.0
  endloop
endfacet
facet normal 0.0 0.0 -1.0
  outer loop
    vertex 57.21247463924279 40.11486550514108 0.0
    vertex 38.973322926252266 59.58718979283694 0.0
    vertex 39.395389597322854 59.76201553222004 0.0
  endloop
endfacet
facet normal 0.0 0.0 -1.0
  outer loop
    vertex 57.21247463924279 40.11486550514108 0.0
    vertex 39.395389597322854 59.76201553222004 0.0
    vertex 39.757826464399315 60.04012312176635 0.0
  endloop
endfacet
facet normal 0.0 0.0 -1.0
  outer loop
    vertex 57.21247463924279 40.11486550514108 0.0
    vertex 39.757826464399315 60.04012312176635 0.0
    vertex 40.035934053945624 60.4025599888428 0.0
  endloop
endfacet
facet normal 0.0 0.0 -1.0
  outer loop
    vertex 57.21247463924279 40.11486550514108 0.0
    vertex 40.035934053945624 60.4025599888428 0.0
    vertex 40.21075979332873 60.8246266599134 0.0
  endloop
endfacet
facet normal 0.0 0.0 -1.0
  outer loop
    vertex 57.21247463924279 40.11486550514108 0.0
    vertex 40.21075979332873 60.8246266599134 0.0
    vertex 40.270389597322854 61.27755998884281 0.0
  endloop
endfacet
facet normal 0.0 0.0 -1.0
  outer loop
    vertex 57.21247463924279 40.11486550514108 0.0
    vertex 40.270389597322854 61.27755998884281 0.0
    vertex 56.956113284705886 40.492996659477065 0.0
  endloop
endfacet
facet normal 0.0 0.0 -1.0
  outer loop
    vertex 56.956113284705886 40.492996659477065 0.0
    vertex 40.270389597322854 61.27755998884281 0.0
    vertex 56.806354775785 40.92459450815712 0.0
  endloop
endfacet
facet normal 0.0 0.0 -1.0
  outer loop
    vertex 56.806354775785 40.92459450815712 0.0
    vertex 40.270389597322854 61.27755998884281 0.0
    vertex 48.520389597322854 91.27755998884281 0.0
  endloop
endfacet
facet normal 0.0 0.0 -1.0
  outer loop
    vertex 56.806354775785 40.92459450815712 0.0
    vertex 48.520389597322854 91.27755998884281 0.0
    vertex 56.77340490737544 41.380246371042865 0.0
  endloop
endfacet
facet normal 0.0 0.0 -1.0
  outer loop
    vertex 56.806354775785 40.92459450815712 0.0
    vertex 56.77340490737544 41.380246371042865 0.0
    vertex 56.78083053877639 41.27755998884281 0.0
  endloop
endfacet
facet normal 0.0 0.0 -1.0
  outer loop
    vertex 88.52038959732286 31.277559988842814 0.0
    vertex 57.969049259486724 39.61667955007705 0.0
    vertex 58.417703215122806 39.5305752988954 0.0
  endloop
endfacet
facet normal 0.0 0.0 -1.0
  outer loop
    vertex 88.52038959732286 31.277559988842814 0.0
    vertex 58.417703215122806 39.5305752988954 0.0
    vertex 58.87335507800855 39.56352516730495 0.0
  endloop
endfacet
facet normal 0.0 0.0 -1.0
  outer loop
    vertex 88.52038959732286 31.277559988842814 0.0
    vertex 58.87335507800855 39.56352516730495 0.0
    vertex 59.30495292668861 39.71328367622584 0.0
  endloop
endfacet
facet normal 0.0 0.0 -1.0
  outer loop
    vertex 88.52038959732286 31.277559988842814 0.0
    vertex 59.30495292668861 39.71328367622584 0.0
    vertex 59.683084081024575 39.96964503076275 0.0
  endloop
endfacet
facet normal 0.0 0.0 -1.0
  outer loop
    vertex 88.52038959732286 31.277559988842814 0.0
    vertex 59.683084081024575 39.96964503076275 0.0
    vertex 59.981979527739774 40.315138628261145 0.0
  endloop
endfacet
facet normal 0.0 0.0 -1.0
  outer loop
    vertex 88.52038959732286 31.277559988842814 0.0
    vertex 59.981979527739774 40.315138628261145 0.0
    vertex 60.18127003608861 40.72621965100668 0.0
  endloop
endfacet
facet normal 0.0 0.0 -1.0
  outer loop
    vertex 88.52038959732286 31.277559988842814 0.0
    vertex 60.18127003608861 40.72621965100668 0.0
    vertex 60.26737428727027 41.17487360664276 0.0
  endloop
endfacet
facet normal 0.0 0.0 -1.0
  outer loop
    vertex 88.52038959732286 31.277559988842814 0.0
    vertex 60.26737428727027 41.17487360664276 0.0
    vertex 77.51631473022381 39.84426530132735 0.0
  endloop
endfacet
facet normal 0.0 0.0 -1.0
  outer loop
    vertex 77.51631473022381 39.84426530132735 0.0
    vertex 60.26737428727027 41.17487360664276 0.0
    vertex 77.17956378929085 40.15297733180272 0.0
  endloop
endfacet
facet normal 0.0 0.0 -1.0
  outer loop
    vertex 77.17956378929085 40.15297733180272 0.0
    vertex 60.26737428727027 41.17487360664276 0.0
    vertex 76.93418791135588 40.53832781189466 0.0
  endloop
endfacet
facet normal 0.0 0.0 -1.0
  outer loop
    vertex 76.93418791135588 40.53832781189466 0.0
    vertex 60.26737428727027 41.17487360664276 0.0
    vertex 76.79690905699731 40.974055743206684 0.0
  endloop
endfacet
facet normal 0.0 0.0 -1.0
  outer loop
    vertex 76.79690905699731 40.974055743206684 0.0
    vertex 60.26737428727027 41.17487360664276 0.0
    vertex 76.78372483304666 41.27755998884281 0.0
  endloop
endfacet
facet normal 0.0 0.0 -1.0
  outer loop
    vertex 76.78372483304666 41.27755998884281 0.0
    vertex 60.26737428727027 41.17487360664276 0.0
    vertex 76.77708255327566 41.43046698729433 0.0
  endloop
endfacet
facet normal 0.0 0.0 -1.0
  outer loop
    vertex 88.52038959732286 31.277559988842814 0.0
    vertex 77.51631473022381 39.84426530132735 0.0
    vertex 77.9214917140374 39.63322993517469 0.0
  endloop
endfacet
facet normal 0.0 0.0 -1.0
  outer loop
    vertex 88.52038959732286 31.277559988842814 0.0
    vertex 77.9214917140374 39.63322993517469 0.0
    vertex 78.36748259887133 39.53425294479562 0.0
  endloop
endfacet
facet normal 0.0 0.0 -1.0
  outer loop
    vertex 88.52038959732286 31.277559988842814 0.0
    vertex 78.36748259887133 39.53425294479562 0.0
    vertex 78.82389384295898 39.55407944851726 0.0
  endloop
endfacet
facet normal 0.0 0.0 -1.0
  outer loop
    vertex 88.52038959732286 31.277559988842814 0.0
    vertex 78.82389384295898 39.55407944851726 0.0
    vertex 79.259621774271 39.69135830287583 0.0
  endloop
endfacet
facet normal 0.0 0.0 -1.0
  outer loop
    vertex 88.52038959732286 31.277559988842814 0.0
    vertex 79.259621774271 39.69135830287583 0.0
    vertex 79.64497225436294 39.93673418081082 0.0
  endloop
endfacet
facet normal 0.0 0.0 -1.0
  outer loop
    vertex 88.52038959732286 31.277559988842814 0.0
    vertex 79.64497225436294 39.93673418081082 0.0
    vertex 79.95368428483832 40.273485121743775 0.0
  endloop
endfacet
facet normal 0.0 0.0 -1.0
  outer loop
    vertex 88.52038959732286 31.277559988842814 0.0
    vertex 79.95368428483832 40.273485121743775 0.0
    vertex 80.16471965099097 40.67866210555735 0.0
  endloop
endfacet
facet normal 0.0 0.0 -1.0
  outer loop
    vertex 88.52038959732286 31.277559988842814 0.0
    vertex 80.16471965099097 40.67866210555735 0.0
    vertex 80.26369664137005 41.12465299039129 0.0
  endloop
endfacet
facet normal 0.0 0.0 -1.0
  outer loop
    vertex 88.52038959732286 31.277559988842814 0.0
    vertex 80.26369664137005 41.12465299039129 0.0
    vertex 88.52038959732286 51.27755998884282 0.0
  endloop
endfacet
facet normal 0.0 0.0 -1.0
  outer loop
    vertex 36.83001940131698 80.82462665991339 0.0
    vertex 36.77038959732285 61.27755998884281 0.0
    vertex 36.77038959732285 81.27755998884281 0.0
  endloop
endfacet
facet normal 0.0 0.0 -1.0
  outer loop
    vertex 36.77038959732285 61.27755998884281 0.0
    vertex 36.83001940131698 80.82462665991339 0.0
    vertex 36.83001940131698 61.73049331777222 0.0
  endloop
endfacet
facet normal 0.0 0.0 -1.0
  outer loop
    vertex 36.83001940131698 61.73049331777222 0.0
    vertex 36.83001940131698 80.82462665991339 0.0
    vertex 37.004845140700084 80.4025599888428 0.0
  endloop
endfacet
facet normal 0.0 0.0 -1.0
  outer loop
    vertex 36.83001940131698 61.73049331777222 0.0
    vertex 37.004845140700084 80.4025599888428 0.0
    vertex 37.004845140700084 62.15255998884281 0.0
  endloop
endfacet
facet normal 0.0 0.0 -1.0
  outer loop
    vertex 37.004845140700084 62.15255998884281 0.0
    vertex 37.004845140700084 80.4025599888428 0.0
    vertex 37.28295273024639 80.04012312176634 0.0
  endloop
endfacet
facet normal 0.0 0.0 -1.0
  outer loop
    vertex 37.004845140700084 62.15255998884281 0.0
    vertex 37.28295273024639 80.04012312176634 0.0
    vertex 37.28295273024639 62.51499685591927 0.0
  endloop
endfacet
facet normal 0.0 0.0 -1.0
  outer loop
    vertex 37.28295273024639 62.51499685591927 0.0
    vertex 37.28295273024639 80.04012312176634 0.0
    vertex 37.64538959732285 79.76201553222003 0.0
  endloop
endfacet
facet normal 0.0 0.0 -1.0
  outer loop
    vertex 37.28295273024639 62.51499685591927 0.0
    vertex 37.64538959732285 79.76201553222003 0.0
    vertex 37.645389597322854 62.79310444546558 0.0
  endloop
endfacet
facet normal 0.0 0.0 -1.0
  outer loop
    vertex 37.645389597322854 62.79310444546558 0.0
    vertex 37.64538959732285 79.76201553222003 0.0
    vertex 38.06745626839344 79.58718979283694 0.0
  endloop
endfacet
facet normal 0.0 0.0 -1.0
  outer loop
    vertex 37.645389597322854 62.79310444546558 0.0
    vertex 38.06745626839344 79.58718979283694 0.0
    vertex 38.06745626839344 62.96793018484868 0.0
  endloop
endfacet
facet normal 0.0 0.0 -1.0
  outer loop
    vertex 38.06745626839344 62.96793018484868 0.0
    vertex 38.06745626839344 79.58718979283694 0.0
    vertex 38.520389597322854 79.5275599888428 0.0
  endloop
endfacet
facet normal 0.0 0.0 -1.0
  outer loop
    vertex 38.06745626839344 62.96793018484868 0.0
    vertex 38.520389597322854 79.5275599888428 0.0
    vertex 38.520389597322854 63.0275599888428 0.0
  endloop
endfacet
facet normal 0.0 0.0 -1.0
  outer loop
    vertex 38.520389597322854 63.0275599888428 0.0
    vertex 38.520389597322854 79.5275599888428 0.0
    vertex 38.973322926252266 79.58718979283694 0.0
  endloop
endfacet
facet normal 0.0 0.0 -1.0
  outer loop
    vertex 38.520389597322854 63.0275599888428 0.0
    vertex 38.973322926252266 79.58718979283694 0.0
    vertex 38.973322926252266 62.96793018484868 0.0
  endloop
endfacet
facet normal 0.0 0.0 -1.0
  outer loop
    vertex 38.973322926252266 62.96793018484868 0.0
    vertex 38.973322926252266 79.58718979283694 0.0
    vertex 39.395389597322854 79.76201553222003 0.0
  endloop
endfacet
facet normal 0.0 0.0 -1.0
  outer loop
    vertex 38.973322926252266 62.96793018484868 0.0
    vertex 39.395389597322854 79.76201553222003 0.0
    vertex 39.395389597322854 62.79310444546558 0.0
  endloop
endfacet
facet normal 0.0 0.0 -1.0
  outer loop
    vertex 39.395389597322854 62.79310444546558 0.0
    vertex 39.395389597322854 79.76201553222003 0.0
    vertex 39.757826464399315 80.04012312176634 0.0
  endloop
endfacet
facet normal 0.0 0.0 -1.0
  outer loop
    vertex 39.395389597322854 62.79310444546558 0.0
    vertex 39.757826464399315 80.04012312176634 0.0
    vertex 39.757826464399315 62.51499685591927 0.0
  endloop
endfacet
facet normal 0.0 0.0 -1.0
  outer loop
    vertex 39.757826464399315 62.51499685591927 0.0
    vertex 39.757826464399315 80.04012312176634 0.0
    vertex 40.035934053945624 80.4025599888428 0.0
  endloop
endfacet
facet normal 0.0 0.0 -1.0
  outer loop
    vertex 39.757826464399315 62.51499685591927 0.0
    vertex 40.035934053945624 80.4025599888428 0.0
    vertex 40.035934053945624 62.15255998884281 0.0
  endloop
endfacet
facet normal 0.0 0.0 -1.0
  outer loop
    vertex 40.035934053945624 62.15255998884281 0.0
    vertex 40.035934053945624 80.4025599888428 0.0
    vertex 40.21075979332873 80.82462665991339 0.0
  endloop
endfacet
facet normal 0.0 0.0 -1.0
  outer loop
    vertex 40.035934053945624 62.15255998884281 0.0
    vertex 40.21075979332873 80.82462665991339 0.0
    vertex 40.21075979332873 61.73049331777222 0.0
  endloop
endfacet
facet normal 0.0 0.0 -1.0
  outer loop
    vertex 40.21075979332873 61.73049331777222 0.0
    vertex 40.21075979332873 80.82462665991339 0.0
    vertex 40.270389597322854 81.27755998884281 0.0
  endloop
endfacet
facet normal 0.0 0.0 -1.0
  outer loop
    vertex 40.21075979332873 61.73049331777222 0.0
    vertex 40.270389597322854 81.27755998884281 0.0
    vertex 40.270389597322854 61.27755998884281 0.0
  endloop
endfacet
facet normal -0.0 -0.0 1.0
  outer loop
    vertex 28.520389597322854 91.27755998884281 5.0
    vertex 37.28295273024639 82.51499685591926 5.0
    vertex 48.520389597322854 91.27755998884281 5.0
  endloop
endfacet
facet normal -0.0 -0.0 1.0
  outer loop
    vertex 37.28295273024639 82.51499685591926 5.0
    vertex 28.520389597322854 91.27755998884281 5.0
    vertex 37.004845140700084 82.15255998884281 5.0
  endloop
endfacet
facet normal -0.0 -0.0 1.0
  outer loop
    vertex 37.004845140700084 82.15255998884281 5.0
    vertex 28.520389597322854 91.27755998884281 5.0
    vertex 36.83001940131698 81.73049331777221 5.0
  endloop
endfacet
facet normal -0.0 -0.0 1.0
  outer loop
    vertex 36.83001940131698 81.73049331777221 5.0
    vertex 28.520389597322854 91.27755998884281 5.0
    vertex 36.77038959732285 81.27755998884281 5.0
  endloop
endfacet
facet normal -0.0 -0.0 1.0
  outer loop
    vertex 36.77038959732285 81.27755998884281 5.0
    vertex 28.520389597322854 91.27755998884281 5.0
    vertex 36.77038959732285 61.27755998884281 5.0
  endloop
endfacet
facet normal -0.0 -0.0 1.0
  outer loop
    vertex 48.520389597322854 91.27755998884281 5.0
    vertex 37.28295273024639 82.51499685591926 5.0
    vertex 37.645389597322854 82.79310444546557 5.0
  endloop
endfacet
facet normal -0.0 -0.0 1.0
  outer loop
    vertex 48.520389597322854 91.27755998884281 5.0
    vertex 37.645389597322854 82.79310444546557 5.0
    vertex 38.06745626839344 82.96793018484868 5.0
  endloop
endfacet
facet normal -0.0 -0.0 1.0
  outer loop
    vertex 48.520389597322854 91.27755998884281 5.0
    vertex 38.06745626839344 82.96793018484868 5.0
    vertex 38.520389597322854 83.02755998884281 5.0
  endloop
endfacet
facet normal -0.0 -0.0 1.0
  outer loop
    vertex 48.520389597322854 91.27755998884281 5.0
    vertex 38.520389597322854 83.02755998884281 5.0
    vertex 38.973322926252266 82.96793018484868 5.0
  endloop
endfacet
facet normal -0.0 -0.0 1.0
  outer loop
    vertex 48.520389597322854 91.27755998884281 5.0
    vertex 38.973322926252266 82.96793018484868 5.0
    vertex 39.395389597322854 82.79310444546557 5.0
  endloop
endfacet
facet normal -0.0 -0.0 1.0
  outer loop
    vertex 48.520389597322854 91.27755998884281 5.0
    vertex 39.395389597322854 82.79310444546557 5.0
    vertex 39.757826464399315 82.51499685591926 5.0
  endloop
endfacet
facet normal -0.0 -0.0 1.0
  outer loop
    vertex 48.520389597322854 91.27755998884281 5.0
    vertex 39.757826464399315 82.51499685591926 5.0
    vertex 40.035934053945624 82.15255998884281 5.0
  endloop
endfacet
facet normal -0.0 -0.0 1.0
  outer loop
    vertex 48.520389597322854 91.27755998884281 5.0
    vertex 40.035934053945624 82.15255998884281 5.0
    vertex 40.21075979332873 81.73049331777221 5.0
  endloop
endfacet
facet normal -0.0 -0.0 1.0
  outer loop
    vertex 48.520389597322854 91.27755998884281 5.0
    vertex 40.21075979332873 81.73049331777221 5.0
    vertex 40.270389597322854 81.27755998884281 5.0
  endloop
endfacet
facet normal -0.0 -0.0 1.0
  outer loop
    vertex 36.83001940131698 61.73049331777222 5.0
    vertex 36.77038959732285 81.27755998884281 5.0
    vertex 36.77038959732285 61.27755998884281 5.0
  endloop
endfacet
facet normal -0.0 -0.0 1.0
  outer loop
    vertex 36.77038959732285 81.27755998884281 5.0
    vertex 36.83001940131698 61.73049331777222 5.0
    vertex 36.83001940131698 80.82462665991339 5.0
  endloop
endfacet
facet normal -0.0 -0.0 1.0
  outer loop
    vertex 36.83001940131698 80.82462665991339 5.0
    vertex 36.83001940131698 61.73049331777222 5.0
    vertex 37.004845140700084 62.15255998884281 5.0
  endloop
endfacet
facet normal -0.0 -0.0 1.0
  outer loop
    vertex 36.83001940131698 80.82462665991339 5.0
    vertex 37.004845140700084 62.15255998884281 5.0
    vertex 37.004845140700084 80.4025599888428 5.0
  endloop
endfacet
facet normal -0.0 -0.0 1.0
  outer loop
    vertex 37.004845140700084 80.4025599888428 5.0
    vertex 37.004845140700084 62.15255998884281 5.0
    vertex 37.28295273024639 62.51499685591927 5.0
  endloop
endfacet
facet normal -0.0 -0.0 1.0
  outer loop
    vertex 37.004845140700084 80.4025599888428 5.0
    vertex 37.28295273024639 62.51499685591927 5.0
    vertex 37.28295273024639 80.04012312176634 5.0
  endloop
endfacet
facet normal -0.0 -0.0 1.0
  outer loop
    vertex 37.28295273024639 80.04012312176634 5.0
    vertex 37.28295273024639 62.51499685591927 5.0
    vertex 37.645389597322854 62.79310444546558 5.0
  endloop
endfacet
facet normal -0.0 -0.0 1.0
  outer loop
    vertex 37.28295273024639 80.04012312176634 5.0
    vertex 37.645389597322854 62.79310444546558 5.0
    vertex 37.64538959732285 79.76201553222003 5.0
  endloop
endfacet
facet normal -0.0 -0.0 1.0
  outer loop
    vertex 37.64538959732285 79.76201553222003 5.0
    vertex 37.645389597322854 62.79310444546558 5.0
    vertex 38.06745626839344 79.58718979283694 5.0
  endloop
endfacet
facet normal -0.0 -0.0 1.0
  outer loop
    vertex 38.06745626839344 79.58718979283694 5.0
    vertex 37.645389597322854 62.79310444546558 5.0
    vertex 38.06745626839344 62.96793018484868 5.0
  endloop
endfacet
facet normal -0.0 -0.0 1.0
  outer loop
    vertex 38.06745626839344 79.58718979283694 5.0
    vertex 38.06745626839344 62.96793018484868 5.0
    vertex 38.520389597322854 63.0275599888428 5.0
  endloop
endfacet
facet normal -0.0 -0.0 1.0
  outer loop
    vertex 38.06745626839344 79.58718979283694 5.0
    vertex 38.520389597322854 63.0275599888428 5.0
    vertex 38.520389597322854 79.5275599888428 5.0
  endloop
endfacet
facet normal -0.0 -0.0 1.0
  outer loop
    vertex 38.520389597322854 79.5275599888428 5.0
    vertex 38.520389597322854 63.0275599888428 5.0
    vertex 38.973322926252266 62.96793018484868 5.0
  endloop
endfacet
facet normal -0.0 -0.0 1.0
  outer loop
    vertex 38.520389597322854 79.5275599888428 5.0
    vertex 38.973322926252266 62.96793018484868 5.0
    vertex 38.973322926252266 79.58718979283694 5.0
  endloop
endfacet
facet normal -0.0 -0.0 1.0
  outer loop
    vertex 38.973322926252266 79.58718979283694 5.0
    vertex 38.973322926252266 62.96793018484868 5.0
    vertex 39.395389597322854 62.79310444546558 5.0
  endloop
endfacet
facet normal -0.0 -0.0 1.0
  outer loop
    vertex 38.973322926252266 79.58718979283694 5.0
    vertex 39.395389597322854 62.79310444546558 5.0
    vertex 39.395389597322854 79.76201553222003 5.0
  endloop
endfacet
facet normal -0.0 -0.0 1.0
  outer loop
    vertex 39.395389597322854 79.76201553222003 5.0
    vertex 39.395389597322854 62.79310444546558 5.0
    vertex 39.757826464399315 80.04012312176634 5.0
  endloop
endfacet
facet normal -0.0 -0.0 1.0
  outer loop
    vertex 39.757826464399315 80.04012312176634 5.0
    vertex 39.395389597322854 62.79310444546558 5.0
    vertex 39.757826464399315 62.51499685591927 5.0
  endloop
endfacet
facet normal -0.0 -0.0 1.0
  outer loop
    vertex 39.757826464399315 80.04012312176634 5.0
    vertex 39.757826464399315 62.51499685591927 5.0
    vertex 40.035934053945624 62.15255998884281 5.0
  endloop
endfacet
facet normal -0.0 -0.0 1.0
  outer loop
    vertex 39.757826464399315 80.04012312176634 5.0
    vertex 40.035934053945624 62.15255998884281 5.0
    vertex 40.035934053945624 80.4025599888428 5.0
  endloop
endfacet
facet normal -0.0 -0.0 1.0
  outer loop
    vertex 40.035934053945624 80.4025599888428 5.0
    vertex 40.035934053945624 62.15255998884281 5.0
    vertex 40.21075979332873 61.73049331777222 5.0
  endloop
endfacet
facet normal -0.0 -0.0 1.0
  outer loop
    vertex 40.035934053945624 80.4025599888428 5.0
    vertex 40.21075979332873 61.73049331777222 5.0
    vertex 40.21075979332873 80.82462665991339 5.0
  endloop
endfacet
facet normal -0.0 -0.0 1.0
  outer loop
    vertex 40.21075979332873 80.82462665991339 5.0
    vertex 40.21075979332873 61.73049331777222 5.0
    vertex 40.270389597322854 61.27755998884281 5.0
  endloop
endfacet
facet normal -0.0 -0.0 1.0
  outer loop
    vertex 40.21075979332873 80.82462665991339 5.0
    vertex 40.270389597322854 61.27755998884281 5.0
    vertex 40.270389597322854 81.27755998884281 5.0
  endloop
endfacet
facet normal -0.0 -0.0 1.0
  outer loop
    vertex 28.520389597322854 31.277559988842814 5.0
    vertex 36.83001940131698 60.8246266599134 5.0
    vertex 28.520389597322854 91.27755998884281 5.0
  endloop
endfacet
facet normal -0.0 -0.0 1.0
  outer loop
    vertex 36.83001940131698 60.8246266599134 5.0
    vertex 28.520389597322854 31.277559988842814 5.0
    vertex 37.004845140700084 60.4025599888428 5.0
  endloop
endfacet
facet normal -0.0 -0.0 1.0
  outer loop
    vertex 37.004845140700084 60.4025599888428 5.0
    vertex 28.520389597322854 31.277559988842814 5.0
    vertex 37.28295273024639 60.04012312176635 5.0
  endloop
endfacet
facet normal -0.0 -0.0 1.0
  outer loop
    vertex 37.28295273024639 60.04012312176635 5.0
    vertex 28.520389597322854 31.277559988842814 5.0
    vertex 57.21247463924279 40.11486550514108 5.0
  endloop
endfacet
facet normal -0.0 -0.0 1.0
  outer loop
    vertex 57.21247463924279 40.11486550514108 5.0
    vertex 28.520389597322854 31.277559988842814 5.0
    vertex 57.55796823674118 39.81597005842589 5.0
  endloop
endfacet
facet normal -0.0 -0.0 1.0
  outer loop
    vertex 57.55796823674118 39.81597005842589 5.0
    vertex 28.520389597322854 31.277559988842814 5.0
    vertex 57.969049259486724 39.61667955007705 5.0
  endloop
endfacet
facet normal -0.0 -0.0 1.0
  outer loop
    vertex 57.969049259486724 39.61667955007705 5.0
    vertex 28.520389597322854 31.277559988842814 5.0
    vertex 88.52038959732286 31.277559988842814 5.0
  endloop
endfacet
facet normal -0.0 -0.0 1.0
  outer loop
    vertex 28.520389597322854 91.27755998884281 5.0
    vertex 36.83001940131698 60.8246266599134 5.0
    vertex 36.77038959732285 61.27755998884281 5.0
  endloop
endfacet
facet normal -0.0 -0.0 1.0
  outer loop
    vertex 37.28295273024639 60.04012312176635 5.0
    vertex 57.21247463924279 40.11486550514108 5.0
    vertex 37.64538959732285 59.76201553222004 5.0
  endloop
endfacet
facet normal -0.0 -0.0 1.0
  outer loop
    vertex 37.64538959732285 59.76201553222004 5.0
    vertex 57.21247463924279 40.11486550514108 5.0
    vertex 38.06745626839344 59.58718979283694 5.0
  endloop
endfacet
facet normal -0.0 -0.0 1.0
  outer loop
    vertex 38.06745626839344 59.58718979283694 5.0
    vertex 57.21247463924279 40.11486550514108 5.0
    vertex 38.520389597322854 59.52755998884281 5.0
  endloop
endfacet
facet normal -0.0 -0.0 1.0
  outer loop
    vertex 38.520389597322854 59.52755998884281 5.0
    vertex 57.21247463924279 40.11486550514108 5.0
    vertex 38.973322926252266 59.58718979283694 5.0
  endloop
endfacet
facet normal -0.0 -0.0 1.0
  outer loop
    vertex 38.973322926252266 59.58718979283694 5.0
    vertex 57.21247463924279 40.11486550514108 5.0
    vertex 39.395389597322854 59.76201553222004 5.0
  endloop
endfacet
facet normal -0.0 -0.0 1.0
  outer loop
    vertex 39.395389597322854 59.76201553222004 5.0
    vertex 57.21247463924279 40.11486550514108 5.0
    vertex 39.757826464399315 60.04012312176635 5.0
  endloop
endfacet
facet normal -0.0 -0.0 1.0
  outer loop
    vertex 39.757826464399315 60.04012312176635 5.0
    vertex 57.21247463924279 40.11486550514108 5.0
    vertex 40.035934053945624 60.4025599888428 5.0
  endloop
endfacet
facet normal -0.0 -0.0 1.0
  outer loop
    vertex 40.035934053945624 60.4025599888428 5.0
    vertex 57.21247463924279 40.11486550514108 5.0
    vertex 40.21075979332873 60.8246266599134 5.0
  endloop
endfacet
facet normal -0.0 -0.0 1.0
  outer loop
    vertex 40.21075979332873 60.8246266599134 5.0
    vertex 57.21247463924279 40.11486550514108 5.0
    vertex 40.270389597322854 61.27755998884281 5.0
  endloop
endfacet
facet normal -0.0 -0.0 1.0
  outer loop
    vertex 40.270389597322854 61.27755998884281 5.0
    vertex 57.21247463924279 40.11486550514108 5.0
    vertex 56.956113284705886 40.492996659477065 5.0
  endloop
endfacet
facet normal -0.0 -0.0 1.0
  outer loop
    vertex 40.270389597322854 61.27755998884281 5.0
    vertex 56.956113284705886 40.492996659477065 5.0
    vertex 40.270389597322854 81.27755998884281 5.0
  endloop
endfacet
facet normal -0.0 -0.0 1.0
  outer loop
    vertex 40.270389597322854 81.27755998884281 5.0
    vertex 56.956113284705886 40.492996659477065 5.0
    vertex 56.806354775785 40.92459450815712 5.0
  endloop
endfacet
facet normal -0.0 -0.0 1.0
  outer loop
    vertex 40.270389597322854 81.27755998884281 5.0
    vertex 56.806354775785 40.92459450815712 5.0
    vertex 48.520389597322854 91.27755998884281 5.0
  endloop
endfacet
facet normal -0.0 -0.0 1.0
  outer loop
    vertex 48.520389597322854 91.27755998884281 5.0
    vertex 56.806354775785 40.92459450815712 5.0
    vertex 56.77340490737544 41.380246371042865 5.0
  endloop
endfacet
facet normal -0.0 -0.0 1.0
  outer loop
    vertex 56.77340490737544 41.380246371042865 5.0
    vertex 56.806354775785 40.92459450815712 5.0
    vertex 56.78083053877639 41.27755998884281 5.0
  endloop
endfacet
facet normal -0.0 -0.0 1.0
  outer loop
    vertex 57.969049259486724 39.61667955007705 5.0
    vertex 88.52038959732286 31.277559988842814 5.0
    vertex 58.417703215122806 39.5305752988954 5.0
  endloop
endfacet
facet normal -0.0 -0.0 1.0
  outer loop
    vertex 58.417703215122806 39.5305752988954 5.0
    vertex 88.52038959732286 31.277559988842814 5.0
    vertex 58.87335507800855 39.56352516730495 5.0
  endloop
endfacet
facet normal -0.0 -0.0 1.0
  outer loop
    vertex 58.87335507800855 39.56352516730495 5.0
    vertex 88.52038959732286 31.277559988842814 5.0
    vertex 59.30495292668861 39.71328367622584 5.0
  endloop
endfacet
facet normal -0.0 -0.0 1.0
  outer loop
    vertex 59.30495292668861 39.71328367622584 5.0
    vertex 88.52038959732286 31.277559988842814 5.0
    vertex 59.683084081024575 39.96964503076275 5.0
  endloop
endfacet
facet normal -0.0 -0.0 1.0
  outer loop
    vertex 59.683084081024575 39.96964503076275 5.0
    vertex 88.52038959732286 31.277559988842814 5.0
    vertex 59.981979527739774 40.315138628261145 5.0
  endloop
endfacet
facet normal -0.0 -0.0 1.0
  outer loop
    vertex 59.981979527739774 40.315138628261145 5.0
    vertex 88.52038959732286 31.277559988842814 5.0
    vertex 60.18127003608861 40.72621965100668 5.0
  endloop
endfacet
facet normal -0.0 -0.0 1.0
  outer loop
    vertex 60.18127003608861 40.72621965100668 5.0
    vertex 88.52038959732286 31.277559988842814 5.0
    vertex 60.26737428727027 41.17487360664276 5.0
  endloop
endfacet
facet normal -0.0 -0.0 1.0
  outer loop
    vertex 60.26737428727027 41.17487360664276 5.0
    vertex 88.52038959732286 31.277559988842814 5.0
    vertex 77.51631473022381 39.84426530132735 5.0
  endloop
endfacet
facet normal -0.0 -0.0 1.0
  outer loop
    vertex 60.26737428727027 41.17487360664276 5.0
    vertex 77.51631473022381 39.84426530132735 5.0
    vertex 77.17956378929085 40.15297733180272 5.0
  endloop
endfacet
facet normal -0.0 -0.0 1.0
  outer loop
    vertex 60.26737428727027 41.17487360664276 5.0
    vertex 77.17956378929085 40.15297733180272 5.0
    vertex 76.93418791135588 40.53832781189466 5.0
  endloop
endfacet
facet normal -0.0 -0.0 1.0
  outer loop
    vertex 60.26737428727027 41.17487360664276 5.0
    vertex 76.93418791135588 40.53832781189466 5.0
    vertex 76.79690905699731 40.974055743206684 5.0
  endloop
endfacet
facet normal -0.0 -0.0 1.0
  outer loop
    vertex 60.26737428727027 41.17487360664276 5.0
    vertex 76.79690905699731 40.974055743206684 5.0
    vertex 76.78372483304666 41.27755998884281 5.0
  endloop
endfacet
facet normal -0.0 -0.0 1.0
  outer loop
    vertex 60.26737428727027 41.17487360664276 5.0
    vertex 76.78372483304666 41.27755998884281 5.0
    vertex 76.77708255327566 41.43046698729433 5.0
  endloop
endfacet
facet normal -0.0 -0.0 1.0
  outer loop
    vertex 77.51631473022381 39.84426530132735 5.0
    vertex 88.52038959732286 31.277559988842814 5.0
    vertex 77.9214917140374 39.63322993517469 5.0
  endloop
endfacet
facet normal -0.0 -0.0 1.0
  outer loop
    vertex 77.9214917140374 39.63322993517469 5.0
    vertex 88.52038959732286 31.277559988842814 5.0
    vertex 78.36748259887133 39.53425294479562 5.0
  endloop
endfacet
facet normal -0.0 -0.0 1.0
  outer loop
    vertex 78.36748259887133 39.53425294479562 5.0
    vertex 88.52038959732286 31.277559988842814 5.0
    vertex 78.82389384295898 39.55407944851726 5.0
  endloop
endfacet
facet normal -0.0 -0.0 1.0
  outer loop
    vertex 78.82389384295898 39.55407944851726 5.0
    vertex 88.52038959732286 31.277559988842814 5.0
    vertex 79.259621774271 39.69135830287583 5.0
  endloop
endfacet
facet normal -0.0 -0.0 1.0
  outer loop
    vertex 79.259621774271 39.69135830287583 5.0
    vertex 88.52038959732286 31.277559988842814 5.0
    vertex 79.64497225436294 39.93673418081082 5.0
  endloop
endfacet
facet normal -0.0 -0.0 1.0
  outer loop
    vertex 79.64497225436294 39.93673418081082 5.0
    vertex 88.52038959732286 31.277559988842814 5.0
    vertex 79.95368428483832 40.273485121743775 5.0
  endloop
endfacet
facet normal -0.0 -0.0 1.0
  outer loop
    vertex 79.95368428483832 40.273485121743775 5.0
    vertex 88.52038959732286 31.277559988842814 5.0
    vertex 80.16471965099097 40.67866210555735 5.0
  endloop
endfacet
facet normal -0.0 -0.0 1.0
  outer loop
    vertex 80.16471965099097 40.67866210555735 5.0
    vertex 88.52038959732286 31.277559988842814 5.0
    vertex 80.26369664137005 41.12465299039129 5.0
  endloop
endfacet
facet normal -0.0 -0.0 1.0
  outer loop
    vertex 48.520389597322854 91.27755998884281 5.0
    vertex 58.167424116637164 42.99159481038067 5.0
    vertex 88.52038959732286 51.27755998884282 5.0
  endloop
endfacet
facet normal -0.0 -0.0 1.0
  outer loop
    vertex 58.167424116637164 42.99159481038067 5.0
    vertex 48.520389597322854 91.27755998884281 5.0
    vertex 57.7358262679571 42.84183630145978 5.0
  endloop
endfacet
facet normal -0.0 -0.0 1.0
  outer loop
    vertex 57.7358262679571 42.84183630145978 5.0
    vertex 48.520389597322854 91.27755998884281 5.0
    vertex 57.35769511362112 42.58547494692288 5.0
  endloop
endfacet
facet normal -0.0 -0.0 1.0
  outer loop
    vertex 57.35769511362112 42.58547494692288 5.0
    vertex 48.520389597322854 91.27755998884281 5.0
    vertex 57.058799666905934 42.23998134942448 5.0
  endloop
endfacet
facet normal -0.0 -0.0 1.0
  outer loop
    vertex 57.058799666905934 42.23998134942448 5.0
    vertex 48.520389597322854 91.27755998884281 5.0
    vertex 56.859509158557096 41.82890032667894 5.0
  endloop
endfacet
facet normal -0.0 -0.0 1.0
  outer loop
    vertex 56.859509158557096 41.82890032667894 5.0
    vertex 48.520389597322854 91.27755998884281 5.0
    vertex 56.77340490737544 41.380246371042865 5.0
  endloop
endfacet
facet normal -0.0 -0.0 1.0
  outer loop
    vertex 88.52038959732286 51.27755998884282 5.0
    vertex 58.167424116637164 42.99159481038067 5.0
    vertex 58.6230759795229 43.02454467879023 5.0
  endloop
endfacet
facet normal -0.0 -0.0 1.0
  outer loop
    vertex 88.52038959732286 51.27755998884282 5.0
    vertex 58.6230759795229 43.02454467879023 5.0
    vertex 59.071729935158984 42.93844042760857 5.0
  endloop
endfacet
facet normal -0.0 -0.0 1.0
  outer loop
    vertex 88.52038959732286 51.27755998884282 5.0
    vertex 59.071729935158984 42.93844042760857 5.0
    vertex 59.482810957904526 42.73914991925973 5.0
  endloop
endfacet
facet normal -0.0 -0.0 1.0
  outer loop
    vertex 88.52038959732286 51.27755998884282 5.0
    vertex 59.482810957904526 42.73914991925973 5.0
    vertex 59.82830455540292 42.44025447254454 5.0
  endloop
endfacet
facet normal -0.0 -0.0 1.0
  outer loop
    vertex 88.52038959732286 51.27755998884282 5.0
    vertex 59.82830455540292 42.44025447254454 5.0
    vertex 60.08466590993982 42.062123318208556 5.0
  endloop
endfacet
facet normal -0.0 -0.0 1.0
  outer loop
    vertex 88.52038959732286 51.27755998884282 5.0
    vertex 60.08466590993982 42.062123318208556 5.0
    vertex 60.23442441886071 41.63052546952851 5.0
  endloop
endfacet
facet normal -0.0 -0.0 1.0
  outer loop
    vertex 88.52038959732286 51.27755998884282 5.0
    vertex 60.23442441886071 41.63052546952851 5.0
    vertex 60.259948655869316 41.27755998884281 5.0
  endloop
endfacet
facet normal -0.0 -0.0 1.0
  outer loop
    vertex 88.52038959732286 51.27755998884282 5.0
    vertex 60.259948655869316 41.27755998884281 5.0
    vertex 60.26737428727027 41.17487360664276 5.0
  endloop
endfacet
facet normal -0.0 -0.0 1.0
  outer loop
    vertex 88.52038959732286 51.27755998884282 5.0
    vertex 60.26737428727027 41.17487360664276 5.0
    vertex 77.39580694028275 42.618385796874804 5.0
  endloop
endfacet
facet normal -0.0 -0.0 1.0
  outer loop
    vertex 77.39580694028275 42.618385796874804 5.0
    vertex 60.26737428727027 41.17487360664276 5.0
    vertex 77.08709490980739 42.28163485594185 5.0
  endloop
endfacet
facet normal -0.0 -0.0 1.0
  outer loop
    vertex 77.08709490980739 42.28163485594185 5.0
    vertex 60.26737428727027 41.17487360664276 5.0
    vertex 76.87605954365472 41.87645787212827 5.0
  endloop
endfacet
facet normal -0.0 -0.0 1.0
  outer loop
    vertex 76.87605954365472 41.87645787212827 5.0
    vertex 60.26737428727027 41.17487360664276 5.0
    vertex 76.77708255327566 41.43046698729433 5.0
  endloop
endfacet
facet normal -0.0 -0.0 1.0
  outer loop
    vertex 88.52038959732286 51.27755998884282 5.0
    vertex 77.39580694028275 42.618385796874804 5.0
    vertex 77.78115742037471 42.8637616748098 5.0
  endloop
endfacet
facet normal -0.0 -0.0 1.0
  outer loop
    vertex 88.52038959732286 51.27755998884282 5.0
    vertex 77.78115742037471 42.8637616748098 5.0
    vertex 78.21688535168673 43.001040529168364 5.0
  endloop
endfacet
facet normal -0.0 -0.0 1.0
  outer loop
    vertex 88.52038959732286 51.27755998884282 5.0
    vertex 78.21688535168673 43.001040529168364 5.0
    vertex 78.67329659577437 43.02086703289 5.0
  endloop
endfacet
facet normal -0.0 -0.0 1.0
  outer loop
    vertex 88.52038959732286 51.27755998884282 5.0
    vertex 78.67329659577437 43.02086703289 5.0
    vertex 79.1192874806083 42.92189004251093 5.0
  endloop
endfacet
facet normal -0.0 -0.0 1.0
  outer loop
    vertex 88.52038959732286 51.27755998884282 5.0
    vertex 79.1192874806083 42.92189004251093 5.0
    vertex 79.5244644644219 42.71085467635828 5.0
  endloop
endfacet
facet normal -0.0 -0.0 1.0
  outer loop
    vertex 88.52038959732286 51.27755998884282 5.0
    vertex 79.5244644644219 42.71085467635828 5.0
    vertex 79.86121540535486 42.402142645882904 5.0
  endloop
endfacet
facet normal -0.0 -0.0 1.0
  outer loop
    vertex 88.52038959732286 51.27755998884282 5.0
    vertex 79.86121540535486 42.402142645882904 5.0
    vertex 80.10659128328983 42.01679216579097 5.0
  endloop
endfacet
facet normal -0.0 -0.0 1.0
  outer loop
    vertex 88.52038959732286 51.27755998884282 5.0
    vertex 80.10659128328983 42.01679216579097 5.0
    vertex 80.2438701376484 41.58106423447894 5.0
  endloop
endfacet
facet normal -0.0 -0.0 1.0
  outer loop
    vertex 88.52038959732286 51.27755998884282 5.0
    vertex 80.2438701376484 41.58106423447894 5.0
    vertex 80.25705436159903 41.27755998884281 5.0
  endloop
endfacet
facet normal -0.0 -0.0 1.0
  outer loop
    vertex 88.52038959732286 51.27755998884282 5.0
    vertex 80.25705436159903 41.27755998884281 5.0
    vertex 80.26369664137005 41.12465299039129 5.0
  endloop
endfacet
facet normal -0.0 -0.0 1.0
  outer loop
    vertex 88.52038959732286 51.27755998884282 5.0
    vertex 80.26369664137005 41.12465299039129 5.0
    vertex 88.52038959732286 31.277559988842814 5.0
  endloop
endfacet
facet normal -0.0 1.0 0.0
  outer loop
    vertex 28.520389597322854 91.27755998884281 5.0
    vertex 48.520389597322854 91.27755998884281 0.0
    vertex 28.520389597322854 91.27755998884281 0.0
  endloop
endfacet
facet normal -0.0 1.0 0.0
  outer loop
    vertex 48.520389597322854 91.27755998884281 0.0
    vertex 28.520389597322854 91.27755998884281 5.0
    vertex 48.520389597322854 91.27755998884281 5.0
  endloop
endfacet
facet normal 0.7071067811865475 0.7071067811865477 0.0
  outer loop
    vertex 48.520389597322854 91.27755998884281 5.0
    vertex 88.52038959732286 51.27755998884282 0.0
    vertex 48.520389597322854 91.27755998884281 0.0
  endloop
endfacet
facet normal 0.7071067811865475 0.7071067811865477 0.0
  outer loop
    vertex 88.52038959732286 51.27755998884282 0.0
    vertex 48.520389597322854 91.27755998884281 5.0
    vertex 88.52038959732286 51.27755998884282 5.0
  endloop
endfacet
facet normal 1.0 0.0 0.0
  outer loop
    vertex 88.52038959732286 51.27755998884282 0.0
    vertex 88.52038959732286 31.277559988842814 5.0
    vertex 88.52038959732286 31.277559988842814 0.0
  endloop
endfacet
facet normal 1.0 0.0 0.0
  outer loop
    vertex 88.52038959732286 31.277559988842814 5.0
    vertex 88.52038959732286 51.27755998884282 0.0
    vertex 88.52038959732286 51.27755998884282 5.0
  endloop
endfacet
facet normal -0.0 -1.0 -0.0
  outer loop
    vertex 88.52038959732286 31.277559988842814 5.0
    vertex 28.520389597322854 31.277559988842814 0.0
    vertex 88.52038959732286 31.277559988842814 0.0
  endloop
endfacet
facet normal -0.0 -1.0 -0.0
  outer loop
    vertex 28.520389597322854 31.277559988842814 0.0
    vertex 88.52038959732286 31.277559988842814 5.0
    vertex 28.520389597322854 31.277559988842814 5.0
  endloop
endfacet
facet normal -1.0 0.0 0.0
  outer loop
    vertex 28.520389597322854 91.27755998884281 5.0
    vertex 28.520389597322854 31.277559988842814 0.0
    vertex 28.520389597322854 31.277559988842814 5.0
  endloop
endfacet
facet normal -1.0 0.0 0.0
  outer loop
    vertex 28.520389597322854 31.277559988842814 0.0
    vertex 28.520389597322854 91.27755998884281 5.0
    vertex 28.520389597322854 91.27755998884281 0.0
  endloop
endfacet
facet normal 0.9990578165080157 0.04339906996971205 0.0
  outer loop
    vertex 76.77708255327566 41.43046698729433 0.0
    vertex 76.78372483304666 41.27755998884281 5.0
    vertex 76.78372483304666 41.27755998884281 0.0
  endloop
endfacet
facet normal 0.9990578165080157 0.04339906996971205 0.0
  outer loop
    vertex 76.78372483304666 41.27755998884281 5.0
    vertex 76.77708255327566 41.43046698729433 0.0
    vertex 76.77708255327566 41.43046698729433 5.0
  endloop
endfacet
facet normal 0.9990578165080143 0.04339906996974765 0.0
  outer loop
    vertex 76.78372483304666 41.27755998884281 0.0
    vertex 76.79690905699731 40.974055743206684 5.0
    vertex 76.79690905699731 40.974055743206684 0.0
  endloop
endfacet
facet normal 0.9990578165080143 0.04339906996974765 0.0
  outer loop
    vertex 76.79690905699731 40.974055743206684 5.0
    vertex 76.78372483304666 41.27755998884281 0.0
    vertex 76.78372483304666 41.27755998884281 5.0
  endloop
endfacet
facet normal 0.9537832410731547 0.30049547259149934 0.0
  outer loop
    vertex 76.79690905699731 40.974055743206684 0.0
    vertex 76.93418791135588 40.53832781189466 5.0
    vertex 76.93418791135588 40.53832781189466 0.0
  endloop
endfacet
facet normal 0.9537832410731547 0.30049547259149934 0.0
  outer loop
    vertex 76.93418791135588 40.53832781189466 5.0
    vertex 76.79690905699731 40.974055743206684 0.0
    vertex 76.79690905699731 40.974055743206684 5.0
  endloop
endfacet
facet normal 0.8435099139604944 0.5371136053484024 0.0
  outer loop
    vertex 76.93418791135588 40.53832781189466 0.0
    vertex 77.17956378929085 40.15297733180272 5.0
    vertex 77.17956378929085 40.15297733180272 0.0
  endloop
endfacet
facet normal 0.8435099139604944 0.5371136053484024 0.0
  outer loop
    vertex 77.17956378929085 40.15297733180272 5.0
    vertex 76.93418791135588 40.53832781189466 0.0
    vertex 76.93418791135588 40.53832781189466 5.0
  endloop
endfacet
facet normal 0.6757527801774685 0.7371283335230182 0.0
  outer loop
    vertex 77.17956378929085 40.15297733180272 5.0
    vertex 77.51631473022381 39.84426530132735 0.0
    vertex 77.17956378929085 40.15297733180272 0.0
  endloop
endfacet
facet normal 0.6757527801774685 0.7371283335230182 0.0
  outer loop
    vertex 77.51631473022381 39.84426530132735 0.0
    vertex 77.17956378929085 40.15297733180272 5.0
    vertex 77.51631473022381 39.84426530132735 5.0
  endloop
endfacet
facet normal 0.46194421115959416 0.8869089839302228 0.0
  outer loop
    vertex 77.51631473022381 39.84426530132735 5.0
    vertex 77.9214917140374 39.63322993517469 0.0
    vertex 77.51631473022381 39.84426530132735 0.0
  endloop
endfacet
facet normal 0.46194421115959416 0.8869089839302228 0.0
  outer loop
    vertex 77.9214917140374 39.63322993517469 0.0
    vertex 77.51631473022381 39.84426530132735 5.0
    vertex 77.9214917140374 39.63322993517469 5.0
  endloop
endfacet
facet normal 0.21665490755013433 0.9762482527689578 0.0
  outer loop
    vertex 77.9214917140374 39.63322993517469 5.0
    vertex 78.36748259887133 39.53425294479562 0.0
    vertex 77.9214917140374 39.63322993517469 0.0
  endloop
endfacet
facet normal 0.21665490755013433 0.9762482527689578 0.0
  outer loop
    vertex 78.36748259887133 39.53425294479562 0.0
    vertex 77.9214917140374 39.63322993517469 5.0
    vertex 78.36748259887133 39.53425294479562 5.0
  endloop
endfacet
facet normal -0.04339906996972287 0.9990578165080153 0.0
  outer loop
    vertex 78.36748259887133 39.53425294479562 5.0
    vertex 78.82389384295898 39.55407944851726 0.0
    vertex 78.36748259887133 39.53425294479562 0.0
  endloop
endfacet
facet normal -0.04339906996972287 0.9990578165080153 0.0
  outer loop
    vertex 78.82389384295898 39.55407944851726 0.0
    vertex 78.36748259887133 39.53425294479562 5.0
    vertex 78.82389384295898 39.55407944851726 5.0
  endloop
endfacet
facet normal -0.30049547259150644 0.9537832410731526 0.0
  outer loop
    vertex 78.82389384295898 39.55407944851726 5.0
    vertex 79.259621774271 39.69135830287583 0.0
    vertex 78.82389384295898 39.55407944851726 0.0
  endloop
endfacet
facet normal -0.30049547259150644 0.9537832410731526 0.0
  outer loop
    vertex 79.259621774271 39.69135830287583 0.0
    vertex 78.82389384295898 39.55407944851726 5.0
    vertex 79.259621774271 39.69135830287583 5.0
  endloop
endfacet
facet normal -0.5371136053484056 0.8435099139604924 0.0
  outer loop
    vertex 79.259621774271 39.69135830287583 5.0
    vertex 79.64497225436294 39.93673418081082 0.0
    vertex 79.259621774271 39.69135830287583 0.0
  endloop
endfacet
facet normal -0.5371136053484056 0.8435099139604924 0.0
  outer loop
    vertex 79.64497225436294 39.93673418081082 0.0
    vertex 79.259621774271 39.69135830287583 5.0
    vertex 79.64497225436294 39.93673418081082 5.0
  endloop
endfacet
facet normal -0.73712833352303 0.6757527801774557 0.0
  outer loop
    vertex 79.95368428483832 40.273485121743775 5.0
    vertex 79.64497225436294 39.93673418081082 0.0
    vertex 79.64497225436294 39.93673418081082 5.0
  endloop
endfacet
facet normal -0.73712833352303 0.6757527801774557 0.0
  outer loop
    vertex 79.64497225436294 39.93673418081082 0.0
    vertex 79.95368428483832 40.273485121743775 5.0
    vertex 79.95368428483832 40.273485121743775 0.0
  endloop
endfacet
facet normal -0.8869089839302076 0.46194421115962375 0.0
  outer loop
    vertex 80.16471965099097 40.67866210555735 5.0
    vertex 79.95368428483832 40.273485121743775 0.0
    vertex 79.95368428483832 40.273485121743775 5.0
  endloop
endfacet
facet normal -0.8869089839302076 0.46194421115962375 0.0
  outer loop
    vertex 79.95368428483832 40.273485121743775 0.0
    vertex 80.16471965099097 40.67866210555735 5.0
    vertex 80.16471965099097 40.67866210555735 0.0
  endloop
endfacet
facet normal -0.976248252768961 0.21665490755011996 0.0
  outer loop
    vertex 80.26369664137005 41.12465299039129 5.0
    vertex 80.16471965099097 40.67866210555735 0.0
    vertex 80.16471965099097 40.67866210555735 5.0
  endloop
endfacet
facet normal -0.976248252768961 0.21665490755011996 0.0
  outer loop
    vertex 80.16471965099097 40.67866210555735 0.0
    vertex 80.26369664137005 41.12465299039129 5.0
    vertex 80.26369664137005 41.12465299039129 0.0
  endloop
endfacet
facet normal -0.9990578165080125 -0.04339906996978561 -0.0
  outer loop
    vertex 80.25705436159903 41.27755998884281 5.0
    vertex 80.26369664137005 41.12465299039129 0.0
    vertex 80.26369664137005 41.12465299039129 5.0
  endloop
endfacet
facet normal -0.9990578165080125 -0.04339906996978561 -0.0
  outer loop
    vertex 80.26369664137005 41.12465299039129 0.0
    vertex 80.25705436159903 41.27755998884281 5.0
    vertex 80.25705436159903 41.27755998884281 0.0
  endloop
endfacet
facet normal -0.9990578165080157 -0.04339906996971059 -0.0
  outer loop
    vertex 80.2438701376484 41.58106423447894 5.0
    vertex 80.25705436159903 41.27755998884281 0.0
    vertex 80.25705436159903 41.27755998884281 5.0
  endloop
endfacet
facet normal -0.9990578165080157 -0.04339906996971059 -0.0
  outer loop
    vertex 80.25705436159903 41.27755998884281 0.0
    vertex 80.2438701376484 41.58106423447894 5.0
    vertex 80.2438701376484 41.58106423447894 0.0
  endloop
endfacet
facet normal -0.9537832410731547 -0.30049547259149934 -0.0
  outer loop
    vertex 80.10659128328983 42.01679216579097 5.0
    vertex 80.2438701376484 41.58106423447894 0.0
    vertex 80.2438701376484 41.58106423447894 5.0
  endloop
endfacet
facet normal -0.9537832410731547 -0.30049547259149934 -0.0
  outer loop
    vertex 80.2438701376484 41.58106423447894 0.0
    vertex 80.10659128328983 42.01679216579097 5.0
    vertex 80.10659128328983 42.01679216579097 0.0
  endloop
endfacet
facet normal -0.8435099139604944 -0.5371136053484024 -0.0
  outer loop
    vertex 79.86121540535486 42.402142645882904 5.0
    vertex 80.10659128328983 42.01679216579097 0.0
    vertex 80.10659128328983 42.01679216579097 5.0
  endloop
endfacet
facet normal -0.8435099139604944 -0.5371136053484024 -0.0
  outer loop
    vertex 80.10659128328983 42.01679216579097 0.0
    vertex 79.86121540535486 42.402142645882904 5.0
    vertex 79.86121540535486 42.402142645882904 0.0
  endloop
endfacet
facet normal -0.6757527801774685 -0.7371283335230182 -0.0
  outer loop
    vertex 79.86121540535486 42.402142645882904 5.0
    vertex 79.5244644644219 42.71085467635828 0.0
    vertex 79.86121540535486 42.402142645882904 0.0
  endloop
endfacet
facet normal -0.6757527801774685 -0.7371283335230182 -0.0
  outer loop
    vertex 79.5244644644219 42.71085467635828 0.0
    vertex 79.86121540535486 42.402142645882904 5.0
    vertex 79.5244644644219 42.71085467635828 5.0
  endloop
endfacet
facet normal -0.46194421115959416 -0.8869089839302228 -0.0
  outer loop
    vertex 79.5244644644219 42.71085467635828 5.0
    vertex 79.1192874806083 42.92189004251093 0.0
    vertex 79.5244644644219 42.71085467635828 0.0
  endloop
endfacet
facet normal -0.46194421115959416 -0.8869089839302228 -0.0
  outer loop
    vertex 79.1192874806083 42.92189004251093 0.0
    vertex 79.5244644644219 42.71085467635828 5.0
    vertex 79.1192874806083 42.92189004251093 5.0
  endloop
endfacet
facet normal -0.21665490755013433 -0.9762482527689578 -0.0
  outer loop
    vertex 79.1192874806083 42.92189004251093 5.0
    vertex 78.67329659577437 43.02086703289 0.0
    vertex 79.1192874806083 42.92189004251093 0.0
  endloop
endfacet
facet normal -0.21665490755013433 -0.9762482527689578 -0.0
  outer loop
    vertex 78.67329659577437 43.02086703289 0.0
    vertex 79.1192874806083 42.92189004251093 5.0
    vertex 78.67329659577437 43.02086703289 5.0
  endloop
endfacet
facet normal 0.04339906996972287 -0.9990578165080153 0.0
  outer loop
    vertex 78.67329659577437 43.02086703289 5.0
    vertex 78.21688535168673 43.001040529168364 0.0
    vertex 78.67329659577437 43.02086703289 0.0
  endloop
endfacet
facet normal 0.04339906996972287 -0.9990578165080153 0.0
  outer loop
    vertex 78.21688535168673 43.001040529168364 0.0
    vertex 78.67329659577437 43.02086703289 5.0
    vertex 78.21688535168673 43.001040529168364 5.0
  endloop
endfacet
facet normal 0.30049547259150644 -0.9537832410731526 0.0
  outer loop
    vertex 78.21688535168673 43.001040529168364 5.0
    vertex 77.78115742037471 42.8637616748098 0.0
    vertex 78.21688535168673 43.001040529168364 0.0
  endloop
endfacet
facet normal 0.30049547259150644 -0.9537832410731526 0.0
  outer loop
    vertex 77.78115742037471 42.8637616748098 0.0
    vertex 78.21688535168673 43.001040529168364 5.0
    vertex 77.78115742037471 42.8637616748098 5.0
  endloop
endfacet
facet normal 0.5371136053484056 -0.8435099139604924 0.0
  outer loop
    vertex 77.78115742037471 42.8637616748098 5.0
    vertex 77.39580694028275 42.618385796874804 0.0
    vertex 77.78115742037471 42.8637616748098 0.0
  endloop
endfacet
facet normal 0.5371136053484056 -0.8435099139604924 0.0
  outer loop
    vertex 77.39580694028275 42.618385796874804 0.0
    vertex 77.78115742037471 42.8637616748098 5.0
    vertex 77.39580694028275 42.618385796874804 5.0
  endloop
endfacet
facet normal 0.73712833352303 -0.6757527801774557 0.0
  outer loop
    vertex 77.39580694028275 42.618385796874804 0.0
    vertex 77.08709490980739 42.28163485594185 5.0
    vertex 77.08709490980739 42.28163485594185 0.0
  endloop
endfacet
facet normal 0.73712833352303 -0.6757527801774557 0.0
  outer loop
    vertex 77.08709490980739 42.28163485594185 5.0
    vertex 77.39580694028275 42.618385796874804 0.0
    vertex 77.39580694028275 42.618385796874804 5.0
  endloop
endfacet
facet normal 0.8869089839302076 -0.46194421115962375 0.0
  outer loop
    vertex 77.08709490980739 42.28163485594185 0.0
    vertex 76.87605954365472 41.87645787212827 5.0
    vertex 76.87605954365472 41.87645787212827 0.0
  endloop
endfacet
facet normal 0.8869089839302076 -0.46194421115962375 0.0
  outer loop
    vertex 76.87605954365472 41.87645787212827 5.0
    vertex 77.08709490980739 42.28163485594185 0.0
    vertex 77.08709490980739 42.28163485594185 5.0
  endloop
endfacet
facet normal 0.976248252768961 -0.21665490755011996 0.0
  outer loop
    vertex 76.87605954365472 41.87645787212827 0.0
    vertex 76.77708255327566 41.43046698729433 5.0
    vertex 76.77708255327566 41.43046698729433 0.0
  endloop
endfacet
facet normal 0.976248252768961 -0.21665490755011996 0.0
  outer loop
    vertex 76.77708255327566 41.43046698729433 5.0
    vertex 76.87605954365472 41.87645787212827 0.0
    vertex 76.87605954365472 41.87645787212827 5.0
  endloop
endfacet
facet normal 0.9973955749762894 0.07212535627445579 0.0
  outer loop
    vertex 56.77340490737544 41.380246371042865 0.0
    vertex 56.78083053877639 41.27755998884281 5.0
    vertex 56.78083053877639 41.27755998884281 0.0
  endloop
endfacet
facet normal 0.9973955749762894 0.07212535627445579 0.0
  outer loop
    vertex 56.78083053877639 41.27755998884281 5.0
    vertex 56.77340490737544 41.380246371042865 0.0
    vertex 56.77340490737544 41.380246371042865 5.0
  endloop
endfacet
facet normal 0.9973955749762908 0.07212535627443459 0.0
  outer loop
    vertex 56.78083053877639 41.27755998884281 0.0
    vertex 56.806354775785 40.92459450815712 5.0
    vertex 56.806354775785 40.92459450815712 0.0
  endloop
endfacet
facet normal 0.9973955749762908 0.07212535627443459 0.0
  outer loop
    vertex 56.806354775785 40.92459450815712 5.0
    vertex 56.78083053877639 41.27755998884281 0.0
    vertex 56.78083053877639 41.27755998884281 5.0
  endloop
endfacet
facet normal 0.9447427290574093 0.32781271466060996 0.0
  outer loop
    vertex 56.806354775785 40.92459450815712 0.0
    vertex 56.956113284705886 40.492996659477065 5.0
    vertex 56.956113284705886 40.492996659477065 0.0
  endloop
endfacet
facet normal 0.9447427290574093 0.32781271466060996 0.0
  outer loop
    vertex 56.956113284705886 40.492996659477065 5.0
    vertex 56.806354775785 40.92459450815712 0.0
    vertex 56.806354775785 40.92459450815712 5.0
  endloop
endfacet
facet normal 0.8277072274144414 0.5611601782788033 0.0
  outer loop
    vertex 56.956113284705886 40.492996659477065 0.0
    vertex 57.21247463924279 40.11486550514108 5.0
    vertex 57.21247463924279 40.11486550514108 0.0
  endloop
endfacet
facet normal 0.8277072274144414 0.5611601782788033 0.0
  outer loop
    vertex 57.21247463924279 40.11486550514108 5.0
    vertex 56.956113284705886 40.492996659477065 0.0
    vertex 56.956113284705886 40.492996659477065 5.0
  endloop
endfacet
facet normal 0.6542648460740499 0.7562655031083328 0.0
  outer loop
    vertex 57.21247463924279 40.11486550514108 5.0
    vertex 57.55796823674118 39.81597005842589 0.0
    vertex 57.21247463924279 40.11486550514108 0.0
  endloop
endfacet
facet normal 0.6542648460740499 0.7562655031083328 0.0
  outer loop
    vertex 57.55796823674118 39.81597005842589 0.0
    vertex 57.21247463924279 40.11486550514108 5.0
    vertex 57.55796823674118 39.81597005842589 5.0
  endloop
endfacet
facet normal 0.43623539669747263 0.8998325836888764 0.0
  outer loop
    vertex 57.55796823674118 39.81597005842589 5.0
    vertex 57.969049259486724 39.61667955007705 0.0
    vertex 57.55796823674118 39.81597005842589 0.0
  endloop
endfacet
facet normal 0.43623539669747263 0.8998325836888764 0.0
  outer loop
    vertex 57.969049259486724 39.61667955007705 0.0
    vertex 57.55796823674118 39.81597005842589 5.0
    vertex 57.969049259486724 39.61667955007705 5.0
  endloop
endfacet
facet normal 0.18847722594906724 0.9820775607346623 0.0
  outer loop
    vertex 57.969049259486724 39.61667955007705 5.0
    vertex 58.417703215122806 39.5305752988954 0.0
    vertex 57.969049259486724 39.61667955007705 0.0
  endloop
endfacet
facet normal 0.18847722594906724 0.9820775607346623 0.0
  outer loop
    vertex 58.417703215122806 39.5305752988954 0.0
    vertex 57.969049259486724 39.61667955007705 5.0
    vertex 58.417703215122806 39.5305752988954 5.0
  endloop
endfacet
facet normal -0.07212535627442798 0.9973955749762915 0.0
  outer loop
    vertex 58.417703215122806 39.5305752988954 5.0
    vertex 58.87335507800855 39.56352516730495 0.0
    vertex 58.417703215122806 39.5305752988954 0.0
  endloop
endfacet
facet normal -0.07212535627442798 0.9973955749762915 0.0
  outer loop
    vertex 58.87335507800855 39.56352516730495 0.0
    vertex 58.417703215122806 39.5305752988954 5.0
    vertex 58.87335507800855 39.56352516730495 5.0
  endloop
endfacet
facet normal -0.32781271466061723 0.944742729057407 0.0
  outer loop
    vertex 58.87335507800855 39.56352516730495 5.0
    vertex 59.30495292668861 39.71328367622584 0.0
    vertex 58.87335507800855 39.56352516730495 0.0
  endloop
endfacet
facet normal -0.32781271466061723 0.944742729057407 0.0
  outer loop
    vertex 59.30495292668861 39.71328367622584 0.0
    vertex 58.87335507800855 39.56352516730495 5.0
    vertex 59.30495292668861 39.71328367622584 5.0
  endloop
endfacet
facet normal -0.5611601782788148 0.8277072274144336 0.0
  outer loop
    vertex 59.30495292668861 39.71328367622584 5.0
    vertex 59.683084081024575 39.96964503076275 0.0
    vertex 59.30495292668861 39.71328367622584 0.0
  endloop
endfacet
facet normal -0.5611601782788148 0.8277072274144336 0.0
  outer loop
    vertex 59.683084081024575 39.96964503076275 0.0
    vertex 59.30495292668861 39.71328367622584 5.0
    vertex 59.683084081024575 39.96964503076275 5.0
  endloop
endfacet
facet normal -0.756265503108332 0.6542648460740509 0.0
  outer loop
    vertex 59.981979527739774 40.315138628261145 5.0
    vertex 59.683084081024575 39.96964503076275 0.0
    vertex 59.683084081024575 39.96964503076275 5.0
  endloop
endfacet
facet normal -0.756265503108332 0.6542648460740509 0.0
  outer loop
    vertex 59.683084081024575 39.96964503076275 0.0
    vertex 59.981979527739774 40.315138628261145 5.0
    vertex 59.981979527739774 40.315138628261145 0.0
  endloop
endfacet
facet normal -0.8998325836888741 0.4362353966974775 0.0
  outer loop
    vertex 60.18127003608861 40.72621965100668 5.0
    vertex 59.981979527739774 40.315138628261145 0.0
    vertex 59.981979527739774 40.315138628261145 5.0
  endloop
endfacet
facet normal -0.8998325836888741 0.4362353966974775 0.0
  outer loop
    vertex 59.981979527739774 40.315138628261145 0.0
    vertex 60.18127003608861 40.72621965100668 5.0
    vertex 60.18127003608861 40.72621965100668 0.0
  endloop
endfacet
facet normal -0.9820775607346618 0.18847722594906946 0.0
  outer loop
    vertex 60.26737428727027 41.17487360664276 5.0
    vertex 60.18127003608861 40.72621965100668 0.0
    vertex 60.18127003608861 40.72621965100668 5.0
  endloop
endfacet
facet normal -0.9820775607346618 0.18847722594906946 0.0
  outer loop
    vertex 60.18127003608861 40.72621965100668 0.0
    vertex 60.26737428727027 41.17487360664276 5.0
    vertex 60.26737428727027 41.17487360664276 0.0
  endloop
endfacet
facet normal -0.9973955749762894 -0.07212535627445579 -0.0
  outer loop
    vertex 60.259948655869316 41.27755998884281 5.0
    vertex 60.26737428727027 41.17487360664276 0.0
    vertex 60.26737428727027 41.17487360664276 5.0
  endloop
endfacet
facet normal -0.9973955749762894 -0.07212535627445579 -0.0
  outer loop
    vertex 60.26737428727027 41.17487360664276 0.0
    vertex 60.259948655869316 41.27755998884281 5.0
    vertex 60.259948655869316 41.27755998884281 0.0
  endloop
endfacet
facet normal -0.9973955749762908 -0.07212535627443459 -0.0
  outer loop
    vertex 60.23442441886071 41.63052546952851 5.0
    vertex 60.259948655869316 41.27755998884281 0.0
    vertex 60.259948655869316 41.27755998884281 5.0
  endloop
endfacet
facet normal -0.9973955749762908 -0.07212535627443459 -0.0
  outer loop
    vertex 60.259948655869316 41.27755998884281 0.0
    vertex 60.23442441886071 41.63052546952851 5.0
    vertex 60.23442441886071 41.63052546952851 0.0
  endloop
endfacet
facet normal -0.9447427290574093 -0.32781271466060996 -0.0
  outer loop
    vertex 60.08466590993982 42.062123318208556 5.0
    vertex 60.23442441886071 41.63052546952851 0.0
    vertex 60.23442441886071 41.63052546952851 5.0
  endloop
endfacet
facet normal -0.9447427290574093 -0.32781271466060996 -0.0
  outer loop
    vertex 60.23442441886071 41.63052546952851 0.0
    vertex 60.08466590993982 42.062123318208556 5.0
    vertex 60.08466590993982 42.062123318208556 0.0
  endloop
endfacet
facet normal -0.8277072274144414 -0.5611601782788033 -0.0
  outer loop
    vertex 59.82830455540292 42.44025447254454 5.0
    vertex 60.08466590993982 42.062123318208556 0.0
    vertex 60.08466590993982 42.062123318208556 5.0
  endloop
endfacet
facet normal -0.8277072274144414 -0.5611601782788033 -0.0
  outer loop
    vertex 60.08466590993982 42.062123318208556 0.0
    vertex 59.82830455540292 42.44025447254454 5.0
    vertex 59.82830455540292 42.44025447254454 0.0
  endloop
endfacet
facet normal -0.6542648460740499 -0.7562655031083328 -0.0
  outer loop
    vertex 59.82830455540292 42.44025447254454 5.0
    vertex 59.482810957904526 42.73914991925973 0.0
    vertex 59.82830455540292 42.44025447254454 0.0
  endloop
endfacet
facet normal -0.6542648460740499 -0.7562655031083328 -0.0
  outer loop
    vertex 59.482810957904526 42.73914991925973 0.0
    vertex 59.82830455540292 42.44025447254454 5.0
    vertex 59.482810957904526 42.73914991925973 5.0
  endloop
endfacet
facet normal -0.43623539669747263 -0.8998325836888764 -0.0
  outer loop
    vertex 59.482810957904526 42.73914991925973 5.0
    vertex 59.071729935158984 42.93844042760857 0.0
    vertex 59.482810957904526 42.73914991925973 0.0
  endloop
endfacet
facet normal -0.43623539669747263 -0.8998325836888764 -0.0
  outer loop
    vertex 59.071729935158984 42.93844042760857 0.0
    vertex 59.482810957904526 42.73914991925973 5.0
    vertex 59.071729935158984 42.93844042760857 5.0
  endloop
endfacet
facet normal -0.18847722594906724 -0.9820775607346623 -0.0
  outer loop
    vertex 59.071729935158984 42.93844042760857 5.0
    vertex 58.6230759795229 43.02454467879023 0.0
    vertex 59.071729935158984 42.93844042760857 0.0
  endloop
endfacet
facet normal -0.18847722594906724 -0.9820775607346623 -0.0
  outer loop
    vertex 58.6230759795229 43.02454467879023 0.0
    vertex 59.071729935158984 42.93844042760857 5.0
    vertex 58.6230759795229 43.02454467879023 5.0
  endloop
endfacet
facet normal 0.07212535627442798 -0.9973955749762915 0.0
  outer loop
    vertex 58.6230759795229 43.02454467879023 5.0
    vertex 58.167424116637164 42.99159481038067 0.0
    vertex 58.6230759795229 43.02454467879023 0.0
  endloop
endfacet
facet normal 0.07212535627442798 -0.9973955749762915 0.0
  outer loop
    vertex 58.167424116637164 42.99159481038067 0.0
    vertex 58.6230759795229 43.02454467879023 5.0
    vertex 58.167424116637164 42.99159481038067 5.0
  endloop
endfacet
facet normal 0.32781271466061723 -0.944742729057407 0.0
  outer loop
    vertex 58.167424116637164 42.99159481038067 5.0
    vertex 57.7358262679571 42.84183630145978 0.0
    vertex 58.167424116637164 42.99159481038067 0.0
  endloop
endfacet
facet normal 0.32781271466061723 -0.944742729057407 0.0
  outer loop
    vertex 57.7358262679571 42.84183630145978 0.0
    vertex 58.167424116637164 42.99159481038067 5.0
    vertex 57.7358262679571 42.84183630145978 5.0
  endloop
endfacet
facet normal 0.5611601782788033 -0.8277072274144414 0.0
  outer loop
    vertex 57.7358262679571 42.84183630145978 5.0
    vertex 57.35769511362112 42.58547494692288 0.0
    vertex 57.7358262679571 42.84183630145978 0.0
  endloop
endfacet
facet normal 0.5611601782788033 -0.8277072274144414 0.0
  outer loop
    vertex 57.35769511362112 42.58547494692288 0.0
    vertex 57.7358262679571 42.84183630145978 5.0
    vertex 57.35769511362112 42.58547494692288 5.0
  endloop
endfacet
facet normal 0.7562655031083442 -0.6542648460740368 0.0
  outer loop
    vertex 57.35769511362112 42.58547494692288 0.0
    vertex 57.058799666905934 42.23998134942448 5.0
    vertex 57.058799666905934 42.23998134942448 0.0
  endloop
endfacet
facet normal 0.7562655031083442 -0.6542648460740368 0.0
  outer loop
    vertex 57.058799666905934 42.23998134942448 5.0
    vertex 57.35769511362112 42.58547494692288 0.0
    vertex 57.35769511362112 42.58547494692288 5.0
  endloop
endfacet
facet normal 0.8998325836888741 -0.4362353966974775 0.0
  outer loop
    vertex 57.058799666905934 42.23998134942448 0.0
    vertex 56.859509158557096 41.82890032667894 5.0
    vertex 56.859509158557096 41.82890032667894 0.0
  endloop
endfacet
facet normal 0.8998325836888741 -0.4362353966974775 0.0
  outer loop
    vertex 56.859509158557096 41.82890032667894 5.0
    vertex 57.058799666905934 42.23998134942448 0.0
    vertex 57.058799666905934 42.23998134942448 5.0
  endloop
endfacet
facet normal 0.9820775607346618 -0.18847722594906946 0.0
  outer loop
    vertex 56.859509158557096 41.82890032667894 0.0
    vertex 56.77340490737544 41.380246371042865 5.0
    vertex 56.77340490737544 41.380246371042865 0.0
  endloop
endfacet
facet normal 0.9820775607346618 -0.18847722594906946 0.0
  outer loop
    vertex 56.77340490737544 41.380246371042865 5.0
    vertex 56.859509158557096 41.82890032667894 0.0
    vertex 56.859509158557096 41.82890032667894 5.0
  endloop
endfacet
facet normal -0.13052619222003636 -0.9914448613738124 -0.0
  outer loop
    vertex 38.973322926252266 62.96793018484868 5.0
    vertex 38.520389597322854 63.0275599888428 0.0
    vertex 38.973322926252266 62.96793018484868 0.0
  endloop
endfacet
facet normal -0.13052619222003636 -0.9914448613738124 -0.0
  outer loop
    vertex 38.520389597322854 63.0275599888428 0.0
    vertex 38.973322926252266 62.96793018484868 5.0
    vertex 38.520389597322854 63.0275599888428 5.0
  endloop
endfacet
facet normal 0.13052619222003636 -0.9914448613738124 0.0
  outer loop
    vertex 38.520389597322854 63.0275599888428 5.0
    vertex 38.06745626839344 62.96793018484868 0.0
    vertex 38.520389597322854 63.0275599888428 0.0
  endloop
endfacet
facet normal 0.13052619222003636 -0.9914448613738124 0.0
  outer loop
    vertex 38.06745626839344 62.96793018484868 0.0
    vertex 38.520389597322854 63.0275599888428 5.0
    vertex 38.06745626839344 62.96793018484868 5.0
  endloop
endfacet
facet normal 0.38268343236509433 -0.923879532511285 0.0
  outer loop
    vertex 38.06745626839344 62.96793018484868 5.0
    vertex 37.645389597322854 62.79310444546558 0.0
    vertex 38.06745626839344 62.96793018484868 0.0
  endloop
endfacet
facet normal 0.38268343236509433 -0.923879532511285 0.0
  outer loop
    vertex 37.645389597322854 62.79310444546558 0.0
    vertex 38.06745626839344 62.96793018484868 5.0
    vertex 37.645389597322854 62.79310444546558 5.0
  endloop
endfacet
facet normal 0.6087614290087147 -0.7933533402912398 0.0
  outer loop
    vertex 37.645389597322854 62.79310444546558 5.0
    vertex 37.28295273024639 62.51499685591927 0.0
    vertex 37.645389597322854 62.79310444546558 0.0
  endloop
endfacet
facet normal 0.6087614290087147 -0.7933533402912398 0.0
  outer loop
    vertex 37.28295273024639 62.51499685591927 0.0
    vertex 37.645389597322854 62.79310444546558 5.0
    vertex 37.28295273024639 62.51499685591927 5.0
  endloop
endfacet
facet normal 0.7933533402912353 -0.6087614290087207 0.0
  outer loop
    vertex 37.28295273024639 62.51499685591927 0.0
    vertex 37.004845140700084 62.15255998884281 5.0
    vertex 37.004845140700084 62.15255998884281 0.0
  endloop
endfacet
facet normal 0.7933533402912353 -0.6087614290087207 0.0
  outer loop
    vertex 37.004845140700084 62.15255998884281 5.0
    vertex 37.28295273024639 62.51499685591927 0.0
    vertex 37.28295273024639 62.51499685591927 5.0
  endloop
endfacet
facet normal 0.9238795325112866 -0.38268343236508984 0.0
  outer loop
    vertex 37.004845140700084 62.15255998884281 0.0
    vertex 36.83001940131698 61.73049331777222 5.0
    vertex 36.83001940131698 61.73049331777222 0.0
  endloop
endfacet
facet normal 0.9238795325112866 -0.38268343236508984 0.0
  outer loop
    vertex 36.83001940131698 61.73049331777222 5.0
    vertex 37.004845140700084 62.15255998884281 0.0
    vertex 37.004845140700084 62.15255998884281 5.0
  endloop
endfacet
facet normal 0.9914448613738108 -0.13052619222004852 0.0
  outer loop
    vertex 36.83001940131698 61.73049331777222 0.0
    vertex 36.77038959732285 61.27755998884281 5.0
    vertex 36.77038959732285 61.27755998884281 0.0
  endloop
endfacet
facet normal 0.9914448613738108 -0.13052619222004852 0.0
  outer loop
    vertex 36.77038959732285 61.27755998884281 5.0
    vertex 36.83001940131698 61.73049331777222 0.0
    vertex 36.83001940131698 61.73049331777222 5.0
  endloop
endfacet
facet normal 0.9914448613738108 0.13052619222004852 0.0
  outer loop
    vertex 36.77038959732285 61.27755998884281 0.0
    vertex 36.83001940131698 60.8246266599134 5.0
    vertex 36.83001940131698 60.8246266599134 0.0
  endloop
endfacet
facet normal 0.9914448613738108 0.13052619222004852 0.0
  outer loop
    vertex 36.83001940131698 60.8246266599134 5.0
    vertex 36.77038959732285 61.27755998884281 0.0
    vertex 36.77038959732285 61.27755998884281 5.0
  endloop
endfacet
facet normal 0.9238795325112866 0.38268343236508984 0.0
  outer loop
    vertex 36.83001940131698 60.8246266599134 0.0
    vertex 37.004845140700084 60.4025599888428 5.0
    vertex 37.004845140700084 60.4025599888428 0.0
  endloop
endfacet
facet normal 0.9238795325112866 0.38268343236508984 0.0
  outer loop
    vertex 37.004845140700084 60.4025599888428 5.0
    vertex 36.83001940131698 60.8246266599134 0.0
    vertex 36.83001940131698 60.8246266599134 5.0
  endloop
endfacet
facet normal 0.7933533402912353 0.6087614290087207 0.0
  outer loop
    vertex 37.004845140700084 60.4025599888428 0.0
    vertex 37.28295273024639 60.04012312176635 5.0
    vertex 37.28295273024639 60.04012312176635 0.0
  endloop
endfacet
facet normal 0.7933533402912353 0.6087614290087207 0.0
  outer loop
    vertex 37.28295273024639 60.04012312176635 5.0
    vertex 37.004845140700084 60.4025599888428 0.0
    vertex 37.004845140700084 60.4025599888428 5.0
  endloop
endfacet
facet normal 0.6087614290087207 0.7933533402912353 0.0
  outer loop
    vertex 37.28295273024639 60.04012312176635 5.0
    vertex 37.64538959732285 59.76201553222004 0.0
    vertex 37.28295273024639 60.04012312176635 0.0
  endloop
endfacet
facet normal 0.6087614290087207 0.7933533402912353 0.0
  outer loop
    vertex 37.64538959732285 59.76201553222004 0.0
    vertex 37.28295273024639 60.04012312176635 5.0
    vertex 37.64538959732285 59.76201553222004 5.0
  endloop
endfacet
facet normal 0.38268343236508984 0.9238795325112866 0.0
  outer loop
    vertex 37.64538959732285 59.76201553222004 5.0
    vertex 38.06745626839344 59.58718979283694 0.0
    vertex 37.64538959732285 59.76201553222004 0.0
  endloop
endfacet
facet normal 0.38268343236508984 0.9238795325112866 0.0
  outer loop
    vertex 38.06745626839344 59.58718979283694 0.0
    vertex 37.64538959732285 59.76201553222004 5.0
    vertex 38.06745626839344 59.58718979283694 5.0
  endloop
endfacet
facet normal 0.13052619222003636 0.9914448613738124 0.0
  outer loop
    vertex 38.06745626839344 59.58718979283694 5.0
    vertex 38.520389597322854 59.52755998884281 0.0
    vertex 38.06745626839344 59.58718979283694 0.0
  endloop
endfacet
facet normal 0.13052619222003636 0.9914448613738124 0.0
  outer loop
    vertex 38.520389597322854 59.52755998884281 0.0
    vertex 38.06745626839344 59.58718979283694 5.0
    vertex 38.520389597322854 59.52755998884281 5.0
  endloop
endfacet
facet normal -0.13052619222003636 0.9914448613738124 0.0
  outer loop
    vertex 38.520389597322854 59.52755998884281 5.0
    vertex 38.973322926252266 59.58718979283694 0.0
    vertex 38.520389597322854 59.52755998884281 0.0
  endloop
endfacet
facet normal -0.13052619222003636 0.9914448613738124 0.0
  outer loop
    vertex 38.973322926252266 59.58718979283694 0.0
    vertex 38.520389597322854 59.52755998884281 5.0
    vertex 38.973322926252266 59.58718979283694 5.0
  endloop
endfacet
facet normal -0.38268343236509433 0.923879532511285 0.0
  outer loop
    vertex 38.973322926252266 59.58718979283694 5.0
    vertex 39.395389597322854 59.76201553222004 0.0
    vertex 38.973322926252266 59.58718979283694 0.0
  endloop
endfacet
facet normal -0.38268343236509433 0.923879532511285 0.0
  outer loop
    vertex 39.395389597322854 59.76201553222004 0.0
    vertex 38.973322926252266 59.58718979283694 5.0
    vertex 39.395389597322854 59.76201553222004 5.0
  endloop
endfacet
facet normal -0.6087614290087147 0.7933533402912398 0.0
  outer loop
    vertex 39.395389597322854 59.76201553222004 5.0
    vertex 39.757826464399315 60.04012312176635 0.0
    vertex 39.395389597322854 59.76201553222004 0.0
  endloop
endfacet
facet normal -0.6087614290087147 0.7933533402912398 0.0
  outer loop
    vertex 39.757826464399315 60.04012312176635 0.0
    vertex 39.395389597322854 59.76201553222004 5.0
    vertex 39.757826464399315 60.04012312176635 5.0
  endloop
endfacet
facet normal -0.7933533402912353 0.6087614290087207 0.0
  outer loop
    vertex 40.035934053945624 60.4025599888428 5.0
    vertex 39.757826464399315 60.04012312176635 0.0
    vertex 39.757826464399315 60.04012312176635 5.0
  endloop
endfacet
facet normal -0.7933533402912353 0.6087614290087207 0.0
  outer loop
    vertex 39.757826464399315 60.04012312176635 0.0
    vertex 40.035934053945624 60.4025599888428 5.0
    vertex 40.035934053945624 60.4025599888428 0.0
  endloop
endfacet
facet normal -0.9238795325112866 0.38268343236508984 0.0
  outer loop
    vertex 40.21075979332873 60.8246266599134 5.0
    vertex 40.035934053945624 60.4025599888428 0.0
    vertex 40.035934053945624 60.4025599888428 5.0
  endloop
endfacet
facet normal -0.9238795325112866 0.38268343236508984 0.0
  outer loop
    vertex 40.035934053945624 60.4025599888428 0.0
    vertex 40.21075979332873 60.8246266599134 5.0
    vertex 40.21075979332873 60.8246266599134 0.0
  endloop
endfacet
facet normal -0.9914448613738108 0.13052619222004852 0.0
  outer loop
    vertex 40.270389597322854 61.27755998884281 5.0
    vertex 40.21075979332873 60.8246266599134 0.0
    vertex 40.21075979332873 60.8246266599134 5.0
  endloop
endfacet
facet normal -0.9914448613738108 0.13052619222004852 0.0
  outer loop
    vertex 40.21075979332873 60.8246266599134 0.0
    vertex 40.270389597322854 61.27755998884281 5.0
    vertex 40.270389597322854 61.27755998884281 0.0
  endloop
endfacet
facet normal -0.9914448613738108 -0.13052619222004852 -0.0
  outer loop
    vertex 40.21075979332873 61.73049331777222 5.0
    vertex 40.270389597322854 61.27755998884281 0.0
    vertex 40.270389597322854 61.27755998884281 5.0
  endloop
endfacet
facet normal -0.9914448613738108 -0.13052619222004852 -0.0
  outer loop
    vertex 40.270389597322854 61.27755998884281 0.0
    vertex 40.21075979332873 61.73049331777222 5.0
    vertex 40.21075979332873 61.73049331777222 0.0
  endloop
endfacet
facet normal -0.9238795325112866 -0.38268343236508984 -0.0
  outer loop
    vertex 40.035934053945624 62.15255998884281 5.0
    vertex 40.21075979332873 61.73049331777222 0.0
    vertex 40.21075979332873 61.73049331777222 5.0
  endloop
endfacet
facet normal -0.9238795325112866 -0.38268343236508984 -0.0
  outer loop
    vertex 40.21075979332873 61.73049331777222 0.0
    vertex 40.035934053945624 62.15255998884281 5.0
    vertex 40.035934053945624 62.15255998884281 0.0
  endloop
endfacet
facet normal -0.7933533402912353 -0.6087614290087207 -0.0
  outer loop
    vertex 39.757826464399315 62.51499685591927 5.0
    vertex 40.035934053945624 62.15255998884281 0.0
    vertex 40.035934053945624 62.15255998884281 5.0
  endloop
endfacet
facet normal -0.7933533402912353 -0.6087614290087207 -0.0
  outer loop
    vertex 40.035934053945624 62.15255998884281 0.0
    vertex 39.757826464399315 62.51499685591927 5.0
    vertex 39.757826464399315 62.51499685591927 0.0
  endloop
endfacet
facet normal -0.6087614290087207 -0.7933533402912353 -0.0
  outer loop
    vertex 39.757826464399315 62.51499685591927 5.0
    vertex 39.395389597322854 62.79310444546558 0.0
    vertex 39.757826464399315 62.51499685591927 0.0
  endloop
endfacet
facet normal -0.6087614290087207 -0.7933533402912353 -0.0
  outer loop
    vertex 39.395389597322854 62.79310444546558 0.0
    vertex 39.757826464399315 62.51499685591927 5.0
    vertex 39.395389597322854 62.79310444546558 5.0
  endloop
endfacet
facet normal -0.38268343236508984 -0.9238795325112866 -0.0
  outer loop
    vertex 39.395389597322854 62.79310444546558 5.0
    vertex 38.973322926252266 62.96793018484868 0.0
    vertex 39.395389597322854 62.79310444546558 0.0
  endloop
endfacet
facet normal -0.38268343236508984 -0.9238795325112866 -0.0
  outer loop
    vertex 38.973322926252266 62.96793018484868 0.0
    vertex 39.395389597322854 62.79310444546558 5.0
    vertex 38.973322926252266 62.96793018484868 5.0
  endloop
endfacet
facet normal -0.13052619222006065 -0.9914448613738094 -0.0
  outer loop
    vertex 38.973322926252266 82.96793018484868 5.0
    vertex 38.520389597322854 83.02755998884281 0.0
    vertex 38.973322926252266 82.96793018484868 0.0
  endloop
endfacet
facet normal -0.13052619222006065 -0.9914448613738094 -0.0
  outer loop
    vertex 38.520389597322854 83.02755998884281 0.0
    vertex 38.973322926252266 82.96793018484868 5.0
    vertex 38.520389597322854 83.02755998884281 5.0
  endloop
endfacet
facet normal 0.13052619222006065 -0.9914448613738094 0.0
  outer loop
    vertex 38.520389597322854 83.02755998884281 5.0
    vertex 38.06745626839344 82.96793018484868 0.0
    vertex 38.520389597322854 83.02755998884281 0.0
  endloop
endfacet
facet normal 0.13052619222006065 -0.9914448613738094 0.0
  outer loop
    vertex 38.06745626839344 82.96793018484868 0.0
    vertex 38.520389597322854 83.02755998884281 5.0
    vertex 38.06745626839344 82.96793018484868 5.0
  endloop
endfacet
facet normal 0.38268343236509433 -0.923879532511285 0.0
  outer loop
    vertex 38.06745626839344 82.96793018484868 5.0
    vertex 37.645389597322854 82.79310444546557 0.0
    vertex 38.06745626839344 82.96793018484868 0.0
  endloop
endfacet
facet normal 0.38268343236509433 -0.923879532511285 0.0
  outer loop
    vertex 37.645389597322854 82.79310444546557 0.0
    vertex 38.06745626839344 82.96793018484868 5.0
    vertex 37.645389597322854 82.79310444546557 5.0
  endloop
endfacet
facet normal 0.6087614290087147 -0.7933533402912398 0.0
  outer loop
    vertex 37.645389597322854 82.79310444546557 5.0
    vertex 37.28295273024639 82.51499685591926 0.0
    vertex 37.645389597322854 82.79310444546557 0.0
  endloop
endfacet
facet normal 0.6087614290087147 -0.7933533402912398 0.0
  outer loop
    vertex 37.28295273024639 82.51499685591926 0.0
    vertex 37.645389597322854 82.79310444546557 5.0
    vertex 37.28295273024639 82.51499685591926 5.0
  endloop
endfacet
facet normal 0.7933533402912353 -0.6087614290087207 0.0
  outer loop
    vertex 37.28295273024639 82.51499685591926 0.0
    vertex 37.004845140700084 82.15255998884281 5.0
    vertex 37.004845140700084 82.15255998884281 0.0
  endloop
endfacet
facet normal 0.7933533402912353 -0.6087614290087207 0.0
  outer loop
    vertex 37.004845140700084 82.15255998884281 5.0
    vertex 37.28295273024639 82.51499685591926 0.0
    vertex 37.28295273024639 82.51499685591926 5.0
  endloop
endfacet
facet normal 0.9238795325112866 -0.38268343236508984 0.0
  outer loop
    vertex 37.004845140700084 82.15255998884281 0.0
    vertex 36.83001940131698 81.73049331777221 5.0
    vertex 36.83001940131698 81.73049331777221 0.0
  endloop
endfacet
facet normal 0.9238795325112866 -0.38268343236508984 0.0
  outer loop
    vertex 36.83001940131698 81.73049331777221 5.0
    vertex 37.004845140700084 82.15255998884281 0.0
    vertex 37.004845140700084 82.15255998884281 5.0
  endloop
endfacet
facet normal 0.9914448613738108 -0.13052619222004852 0.0
  outer loop
    vertex 36.83001940131698 81.73049331777221 0.0
    vertex 36.77038959732285 81.27755998884281 5.0
    vertex 36.77038959732285 81.27755998884281 0.0
  endloop
endfacet
facet normal 0.9914448613738108 -0.13052619222004852 0.0
  outer loop
    vertex 36.77038959732285 81.27755998884281 5.0
    vertex 36.83001940131698 81.73049331777221 0.0
    vertex 36.83001940131698 81.73049331777221 5.0
  endloop
endfacet
facet normal 0.9914448613738108 0.13052619222004852 0.0
  outer loop
    vertex 36.77038959732285 81.27755998884281 0.0
    vertex 36.83001940131698 80.82462665991339 5.0
    vertex 36.83001940131698 80.82462665991339 0.0
  endloop
endfacet
facet normal 0.9914448613738108 0.13052619222004852 0.0
  outer loop
    vertex 36.83001940131698 80.82462665991339 5.0
    vertex 36.77038959732285 81.27755998884281 0.0
    vertex 36.77038959732285 81.27755998884281 5.0
  endloop
endfacet
facet normal 0.9238795325112866 0.38268343236508984 0.0
  outer loop
    vertex 36.83001940131698 80.82462665991339 0.0
    vertex 37.004845140700084 80.4025599888428 5.0
    vertex 37.004845140700084 80.4025599888428 0.0
  endloop
endfacet
facet normal 0.9238795325112866 0.38268343236508984 0.0
  outer loop
    vertex 37.004845140700084 80.4025599888428 5.0
    vertex 36.83001940131698 80.82462665991339 0.0
    vertex 36.83001940131698 80.82462665991339 5.0
  endloop
endfacet
facet normal 0.7933533402912353 0.6087614290087207 0.0
  outer loop
    vertex 37.004845140700084 80.4025599888428 0.0
    vertex 37.28295273024639 80.04012312176634 5.0
    vertex 37.28295273024639 80.04012312176634 0.0
  endloop
endfacet
facet normal 0.7933533402912353 0.6087614290087207 0.0
  outer loop
    vertex 37.28295273024639 80.04012312176634 5.0
    vertex 37.004845140700084 80.4025599888428 0.0
    vertex 37.004845140700084 80.4025599888428 5.0
  endloop
endfacet
facet normal 0.6087614290087207 0.7933533402912353 0.0
  outer loop
    vertex 37.28295273024639 80.04012312176634 5.0
    vertex 37.64538959732285 79.76201553222003 0.0
    vertex 37.28295273024639 80.04012312176634 0.0
  endloop
endfacet
facet normal 0.6087614290087207 0.7933533402912353 0.0
  outer loop
    vertex 37.64538959732285 79.76201553222003 0.0
    vertex 37.28295273024639 80.04012312176634 5.0
    vertex 37.64538959732285 79.76201553222003 5.0
  endloop
endfacet
facet normal 0.38268343236508984 0.9238795325112866 0.0
  outer loop
    vertex 37.64538959732285 79.76201553222003 5.0
    vertex 38.06745626839344 79.58718979283694 0.0
    vertex 37.64538959732285 79.76201553222003 0.0
  endloop
endfacet
facet normal 0.38268343236508984 0.9238795325112866 0.0
  outer loop
    vertex 38.06745626839344 79.58718979283694 0.0
    vertex 37.64538959732285 79.76201553222003 5.0
    vertex 38.06745626839344 79.58718979283694 5.0
  endloop
endfacet
facet normal 0.13052619222006065 0.9914448613738094 0.0
  outer loop
    vertex 38.06745626839344 79.58718979283694 5.0
    vertex 38.520389597322854 79.5275599888428 0.0
    vertex 38.06745626839344 79.58718979283694 0.0
  endloop
endfacet
facet normal 0.13052619222006065 0.9914448613738094 0.0
  outer loop
    vertex 38.520389597322854 79.5275599888428 0.0
    vertex 38.06745626839344 79.58718979283694 5.0
    vertex 38.520389597322854 79.5275599888428 5.0
  endloop
endfacet
facet normal -0.13052619222006065 0.9914448613738094 0.0
  outer loop
    vertex 38.520389597322854 79.5275599888428 5.0
    vertex 38.973322926252266 79.58718979283694 0.0
    vertex 38.520389597322854 79.5275599888428 0.0
  endloop
endfacet
facet normal -0.13052619222006065 0.9914448613738094 0.0
  outer loop
    vertex 38.973322926252266 79.58718979283694 0.0
    vertex 38.520389597322854 79.5275599888428 5.0
    vertex 38.973322926252266 79.58718979283694 5.0
  endloop
endfacet
facet normal -0.38268343236509433 0.923879532511285 0.0
  outer loop
    vertex 38.973322926252266 79.58718979283694 5.0
    vertex 39.395389597322854 79.76201553222003 0.0
    vertex 38.973322926252266 79.58718979283694 0.0
  endloop
endfacet
facet normal -0.38268343236509433 0.923879532511285 0.0
  outer loop
    vertex 39.395389597322854 79.76201553222003 0.0
    vertex 38.973322926252266 79.58718979283694 5.0
    vertex 39.395389597322854 79.76201553222003 5.0
  endloop
endfacet
facet normal -0.6087614290087147 0.7933533402912398 0.0
  outer loop
    vertex 39.395389597322854 79.76201553222003 5.0
    vertex 39.757826464399315 80.04012312176634 0.0
    vertex 39.395389597322854 79.76201553222003 0.0
  endloop
endfacet
facet normal -0.6087614290087147 0.7933533402912398 0.0
  outer loop
    vertex 39.757826464399315 80.04012312176634 0.0
    vertex 39.395389597322854 79.76201553222003 5.0
    vertex 39.757826464399315 80.04012312176634 5.0
  endloop
endfacet
facet normal -0.7933533402912353 0.6087614290087207 0.0
  outer loop
    vertex 40.035934053945624 80.4025599888428 5.0
    vertex 39.757826464399315 80.04012312176634 0.0
    vertex 39.757826464399315 80.04012312176634 5.0
  endloop
endfacet
facet normal -0.7933533402912353 0.6087614290087207 0.0
  outer loop
    vertex 39.757826464399315 80.04012312176634 0.0
    vertex 40.035934053945624 80.4025599888428 5.0
    vertex 40.035934053945624 80.4025599888428 0.0
  endloop
endfacet
facet normal -0.9238795325112866 0.38268343236508984 0.0
  outer loop
    vertex 40.21075979332873 80.82462665991339 5.0
    vertex 40.035934053945624 80.4025599888428 0.0
    vertex 40.035934053945624 80.4025599888428 5.0
  endloop
endfacet
facet normal -0.9238795325112866 0.38268343236508984 0.0
  outer loop
    vertex 40.035934053945624 80.4025599888428 0.0
    vertex 40.21075979332873 80.82462665991339 5.0
    vertex 40.21075979332873 80.82462665991339 0.0
  endloop
endfacet
facet normal -0.9914448613738108 0.13052619222004852 0.0
  outer loop
    vertex 40.270389597322854 81.27755998884281 5.0
    vertex 40.21075979332873 80.82462665991339 0.0
    vertex 40.21075979332873 80.82462665991339 5.0
  endloop
endfacet
facet normal -0.9914448613738108 0.13052619222004852 0.0
  outer loop
    vertex 40.21075979332873 80.82462665991339 0.0
    vertex 40.270389597322854 81.27755998884281 5.0
    vertex 40.270389597322854 81.27755998884281 0.0
  endloop
endfacet
facet normal -0.9914448613738108 -0.13052619222004852 -0.0
  outer loop
    vertex 40.21075979332873 81.73049331777221 5.0
    vertex 40.270389597322854 81.27755998884281 0.0
    vertex 40.270389597322854 81.27755998884281 5.0
  endloop
endfacet
facet normal -0.9914448613738108 -0.13052619222004852 -0.0
  outer loop
    vertex 40.270389597322854 81.27755998884281 0.0
    vertex 40.21075979332873 81.73049331777221 5.0
    vertex 40.21075979332873 81.73049331777221 0.0
  endloop
endfacet
facet normal -0.9238795325112866 -0.38268343236508984 -0.0
  outer loop
    vertex 40.035934053945624 82.15255998884281 5.0
    vertex 40.21075979332873 81.73049331777221 0.0
    vertex 40.21075979332873 81.73049331777221 5.0
  endloop
endfacet
facet normal -0.9238795325112866 -0.38268343236508984 -0.0
  outer loop
    vertex 40.21075979332873 81.73049331777221 0.0
    vertex 40.035934053945624 82.15255998884281 5.0
    vertex 40.035934053945624 82.15255998884281 0.0
  endloop
endfacet
facet normal -0.7933533402912353 -0.6087614290087207 -0.0
  outer loop
    vertex 39.757826464399315 82.51499685591926 5.0
    vertex 40.035934053945624 82.15255998884281 0.0
    vertex 40.035934053945624 82.15255998884281 5.0
  endloop
endfacet
facet normal -0.7933533402912353 -0.6087614290087207 -0.0
  outer loop
    vertex 40.035934053945624 82.15255998884281 0.0
    vertex 39.757826464399315 82.51499685591926 5.0
    vertex 39.757826464399315 82.51499685591926 0.0
  endloop
endfacet
facet normal -0.6087614290087207 -0.7933533402912353 -0.0
  outer loop
    vertex 39.757826464399315 82.51499685591926 5.0
    vertex 39.395389597322854 82.79310444546557 0.0
    vertex 39.757826464399315 82.51499685591926 0.0
  endloop
endfacet
facet normal -0.6087614290087207 -0.7933533402912353 -0.0
  outer loop
    vertex 39.395389597322854 82.79310444546557 0.0
    vertex 39.757826464399315 82.51499685591926 5.0
    vertex 39.395389597322854 82.79310444546557 5.0
  endloop
endfacet
facet normal -0.38268343236508984 -0.9238795325112866 -0.0
  outer loop
    vertex 39.395389597322854 82.79310444546557 5.0
    vertex 38.973322926252266 82.96793018484868 0.0
    vertex 39.395389597322854 82.79310444546557 0.0
  endloop
endfacet
facet normal -0.38268343236508984 -0.9238795325112866 -0.0
  outer loop
    vertex 38.973322926252266 82.96793018484868 0.0
    vertex 39.395389597322854 82.79310444546557 5.0
    vertex 38.973322926252266 82.96793018484868 5.0
  endloop
endfacet
endsolid 90 degree joining plane
