solid 90 degree single anchor
facet normal 0.0 0.0 -1.0
  outer loop
    vertex 71.09071895399673 64.94485920828056 0.0
    vertex 79.85328208692026 56.18229607535704 0.0
    vertex 71.09071895399673 44.94485920828057 0.0
  endloop
endfacet
facet normal 0.0 0.0 -1.0
  outer loop
    vertex 79.85328208692026 56.18229607535704 0.0
    vertex 71.09071895399673 64.94485920828056 0.0
    vertex 80.21571895399673 56.460403664903346 0.0
  endloop
endfacet
facet normal 0.0 0.0 -1.0
  outer loop
    vertex 80.21571895399673 56.460403664903346 0.0
    vertex 71.09071895399673 64.94485920828056 0.0
    vertex 80.63778562506731 56.635229404286434 0.0
  endloop
endfacet
facet normal 0.0 0.0 -1.0
  outer loop
    vertex 80.63778562506731 56.635229404286434 0.0
    vertex 71.09071895399673 64.94485920828056 0.0
    vertex 111.09071895399673 64.94485920828056 0.0
  endloop
endfacet
facet normal 0.0 0.0 -1.0
  outer loop
    vertex 71.09071895399673 44.94485920828057 0.0
    vertex 79.85328208692026 56.18229607535704 0.0
    vertex 79.57517449737396 55.819859208280576 0.0
  endloop
endfacet
facet normal 0.0 0.0 -1.0
  outer loop
    vertex 71.09071895399673 44.94485920828057 0.0
    vertex 79.57517449737396 55.819859208280576 0.0
    vertex 79.40034875799086 55.39779253720999 0.0
  endloop
endfacet
facet normal 0.0 0.0 -1.0
  outer loop
    vertex 71.09071895399673 44.94485920828057 0.0
    vertex 79.40034875799086 55.39779253720999 0.0
    vertex 79.34071895399673 54.944859208280576 0.0
  endloop
endfacet
facet normal 0.0 0.0 -1.0
  outer loop
    vertex 80.63778562506731 56.635229404286434 0.0
    vertex 111.09071895399673 64.94485920828056 0.0
    vertex 81.09071895399673 56.69485920828057 0.0
  endloop
endfacet
facet normal 0.0 0.0 -1.0
  outer loop
    vertex 81.09071895399673 56.69485920828057 0.0
    vertex 111.09071895399673 64.94485920828056 0.0
    vertex 81.54365228292613 56.635229404286434 0.0
  endloop
endfacet
facet normal 0.0 0.0 -1.0
  outer loop
    vertex 81.54365228292613 56.635229404286434 0.0
    vertex 111.09071895399673 64.94485920828056 0.0
    vertex 81.96571895399673 56.460403664903346 0.0
  endloop
endfacet
facet normal 0.0 0.0 -1.0
  outer loop
    vertex 81.96571895399673 56.460403664903346 0.0
    vertex 111.09071895399673 64.94485920828056 0.0
    vertex 82.32815582107318 56.18229607535702 0.0
  endloop
endfacet
facet normal 0.0 0.0 -1.0
  outer loop
    vertex 82.32815582107318 56.18229607535702 0.0
    vertex 111.09071895399673 64.94485920828056 0.0
    vertex 82.60626341061949 55.81985920828057 0.0
  endloop
endfacet
facet normal 0.0 0.0 -1.0
  outer loop
    vertex 82.60626341061949 55.81985920828057 0.0
    vertex 111.09071895399673 64.94485920828056 0.0
    vertex 82.78108915000259 55.39779253720999 0.0
  endloop
endfacet
facet normal 0.0 0.0 -1.0
  outer loop
    vertex 82.78108915000259 55.39779253720999 0.0
    vertex 111.09071895399673 64.94485920828056 0.0
    vertex 82.84071895399671 54.944859208280576 0.0
  endloop
endfacet
facet normal 0.0 0.0 -1.0
  outer loop
    vertex 82.84071895399671 54.944859208280576 0.0
    vertex 111.09071895399673 64.94485920828056 0.0
    vertex 99.85328208692027 56.18229607535704 0.0
  endloop
endfacet
facet normal 0.0 0.0 -1.0
  outer loop
    vertex 82.84071895399671 54.944859208280576 0.0
    vertex 99.85328208692027 56.18229607535704 0.0
    vertex 99.57517449737395 55.819859208280576 0.0
  endloop
endfacet
facet normal 0.0 0.0 -1.0
  outer loop
    vertex 82.84071895399671 54.944859208280576 0.0
    vertex 99.57517449737395 55.819859208280576 0.0
    vertex 99.40034875799086 55.39779253720999 0.0
  endloop
endfacet
facet normal 0.0 0.0 -1.0
  outer loop
    vertex 82.84071895399671 54.944859208280576 0.0
    vertex 99.40034875799086 55.39779253720999 0.0
    vertex 99.34071895399673 54.944859208280576 0.0
  endloop
endfacet
facet normal 0.0 0.0 -1.0
  outer loop
    vertex 99.85328208692027 56.18229607535704 0.0
    vertex 111.09071895399673 64.94485920828056 0.0
    vertex 100.21571895399673 56.460403664903346 0.0
  endloop
endfacet
facet normal 0.0 0.0 -1.0
  outer loop
    vertex 100.21571895399673 56.460403664903346 0.0
    vertex 111.09071895399673 64.94485920828056 0.0
    vertex 100.63778562506731 56.635229404286434 0.0
  endloop
endfacet
facet normal 0.0 0.0 -1.0
  outer loop
    vertex 100.63778562506731 56.635229404286434 0.0
    vertex 111.09071895399673 64.94485920828056 0.0
    vertex 101.09071895399671 56.69485920828057 0.0
  endloop
endfacet
facet normal 0.0 0.0 -1.0
  outer loop
    vertex 101.09071895399671 56.69485920828057 0.0
    vertex 111.09071895399673 64.94485920828056 0.0
    vertex 101.54365228292613 56.635229404286434 0.0
  endloop
endfacet
facet normal 0.0 0.0 -1.0
  outer loop
    vertex 101.54365228292613 56.635229404286434 0.0
    vertex 111.09071895399673 64.94485920828056 0.0
    vertex 101.96571895399673 56.460403664903346 0.0
  endloop
endfacet
facet normal 0.0 0.0 -1.0
  outer loop
    vertex 101.96571895399673 56.460403664903346 0.0
    vertex 111.09071895399673 64.94485920828056 0.0
    vertex 102.32815582107317 56.18229607535702 0.0
  endloop
endfacet
facet normal 0.0 0.0 -1.0
  outer loop
    vertex 102.32815582107317 56.18229607535702 0.0
    vertex 111.09071895399673 64.94485920828056 0.0
    vertex 102.60626341061949 55.81985920828057 0.0
  endloop
endfacet
facet normal 0.0 0.0 -1.0
  outer loop
    vertex 102.60626341061949 55.81985920828057 0.0
    vertex 111.09071895399673 64.94485920828056 0.0
    vertex 102.78108915000259 55.39779253720999 0.0
  endloop
endfacet
facet normal 0.0 0.0 -1.0
  outer loop
    vertex 102.78108915000259 55.39779253720999 0.0
    vertex 111.09071895399673 64.94485920828056 0.0
    vertex 102.8407189539967 54.944859208280576 0.0
  endloop
endfacet
facet normal 0.0 0.0 -1.0
  outer loop
    vertex 71.09071895399673 44.94485920828057 0.0
    vertex 80.63778562506731 53.25448901227471 0.0
    vertex 111.09071895399673 44.94485920828057 0.0
  endloop
endfacet
facet normal 0.0 0.0 -1.0
  outer loop
    vertex 80.63778562506731 53.25448901227471 0.0
    vertex 71.09071895399673 44.94485920828057 0.0
    vertex 80.21571895399671 53.429314751657806 0.0
  endloop
endfacet
facet normal 0.0 0.0 -1.0
  outer loop
    vertex 80.21571895399671 53.429314751657806 0.0
    vertex 71.09071895399673 44.94485920828057 0.0
    vertex 79.85328208692026 53.707422341204115 0.0
  endloop
endfacet
facet normal 0.0 0.0 -1.0
  outer loop
    vertex 79.85328208692026 53.707422341204115 0.0
    vertex 71.09071895399673 44.94485920828057 0.0
    vertex 79.57517449737395 54.06985920828058 0.0
  endloop
endfacet
facet normal 0.0 0.0 -1.0
  outer loop
    vertex 79.57517449737395 54.06985920828058 0.0
    vertex 71.09071895399673 44.94485920828057 0.0
    vertex 79.40034875799086 54.491925879351164 0.0
  endloop
endfacet
facet normal 0.0 0.0 -1.0
  outer loop
    vertex 79.40034875799086 54.491925879351164 0.0
    vertex 71.09071895399673 44.94485920828057 0.0
    vertex 79.34071895399673 54.944859208280576 0.0
  endloop
endfacet
facet normal 0.0 0.0 -1.0
  outer loop
    vertex 111.09071895399673 44.94485920828057 0.0
    vertex 80.63778562506731 53.25448901227471 0.0
    vertex 81.09071895399673 53.194859208280576 0.0
  endloop
endfacet
facet normal 0.0 0.0 -1.0
  outer loop
    vertex 111.09071895399673 44.94485920828057 0.0
    vertex 81.09071895399673 53.194859208280576 0.0
    vertex 81.54365228292613 53.25448901227471 0.0
  endloop
endfacet
facet normal 0.0 0.0 -1.0
  outer loop
    vertex 111.09071895399673 44.94485920828057 0.0
    vertex 81.54365228292613 53.25448901227471 0.0
    vertex 81.96571895399671 53.429314751657806 0.0
  endloop
endfacet
facet normal 0.0 0.0 -1.0
  outer loop
    vertex 111.09071895399673 44.94485920828057 0.0
    vertex 81.96571895399671 53.429314751657806 0.0
    vertex 82.32815582107318 53.707422341204115 0.0
  endloop
endfacet
facet normal 0.0 0.0 -1.0
  outer loop
    vertex 111.09071895399673 44.94485920828057 0.0
    vertex 82.32815582107318 53.707422341204115 0.0
    vertex 82.60626341061949 54.06985920828057 0.0
  endloop
endfacet
facet normal 0.0 0.0 -1.0
  outer loop
    vertex 111.09071895399673 44.94485920828057 0.0
    vertex 82.60626341061949 54.06985920828057 0.0
    vertex 82.78108915000259 54.491925879351164 0.0
  endloop
endfacet
facet normal 0.0 0.0 -1.0
  outer loop
    vertex 111.09071895399673 44.94485920828057 0.0
    vertex 82.78108915000259 54.491925879351164 0.0
    vertex 82.84071895399671 54.944859208280576 0.0
  endloop
endfacet
facet normal 0.0 0.0 -1.0
  outer loop
    vertex 111.09071895399673 44.94485920828057 0.0
    vertex 82.84071895399671 54.944859208280576 0.0
    vertex 99.85328208692026 53.707422341204115 0.0
  endloop
endfacet
facet normal 0.0 0.0 -1.0
  outer loop
    vertex 99.85328208692026 53.707422341204115 0.0
    vertex 82.84071895399671 54.944859208280576 0.0
    vertex 99.57517449737395 54.06985920828058 0.0
  endloop
endfacet
facet normal 0.0 0.0 -1.0
  outer loop
    vertex 99.57517449737395 54.06985920828058 0.0
    vertex 82.84071895399671 54.944859208280576 0.0
    vertex 99.40034875799086 54.491925879351164 0.0
  endloop
endfacet
facet normal 0.0 0.0 -1.0
  outer loop
    vertex 99.40034875799086 54.491925879351164 0.0
    vertex 82.84071895399671 54.944859208280576 0.0
    vertex 99.34071895399673 54.944859208280576 0.0
  endloop
endfacet
facet normal 0.0 0.0 -1.0
  outer loop
    vertex 111.09071895399673 44.94485920828057 0.0
    vertex 99.85328208692026 53.707422341204115 0.0
    vertex 100.21571895399671 53.429314751657806 0.0
  endloop
endfacet
facet normal 0.0 0.0 -1.0
  outer loop
    vertex 111.09071895399673 44.94485920828057 0.0
    vertex 100.21571895399671 53.429314751657806 0.0
    vertex 100.63778562506731 53.25448901227471 0.0
  endloop
endfacet
facet normal 0.0 0.0 -1.0
  outer loop
    vertex 111.09071895399673 44.94485920828057 0.0
    vertex 100.63778562506731 53.25448901227471 0.0
    vertex 101.09071895399671 53.194859208280576 0.0
  endloop
endfacet
facet normal 0.0 0.0 -1.0
  outer loop
    vertex 111.09071895399673 44.94485920828057 0.0
    vertex 101.09071895399671 53.194859208280576 0.0
    vertex 101.54365228292613 53.25448901227471 0.0
  endloop
endfacet
facet normal 0.0 0.0 -1.0
  outer loop
    vertex 111.09071895399673 44.94485920828057 0.0
    vertex 101.54365228292613 53.25448901227471 0.0
    vertex 101.96571895399673 53.429314751657806 0.0
  endloop
endfacet
facet normal 0.0 0.0 -1.0
  outer loop
    vertex 111.09071895399673 44.94485920828057 0.0
    vertex 101.96571895399673 53.429314751657806 0.0
    vertex 102.32815582107317 53.707422341204115 0.0
  endloop
endfacet
facet normal 0.0 0.0 -1.0
  outer loop
    vertex 111.09071895399673 44.94485920828057 0.0
    vertex 102.32815582107317 53.707422341204115 0.0
    vertex 102.60626341061949 54.06985920828057 0.0
  endloop
endfacet
facet normal 0.0 0.0 -1.0
  outer loop
    vertex 111.09071895399673 44.94485920828057 0.0
    vertex 102.60626341061949 54.06985920828057 0.0
    vertex 102.78108915000259 54.491925879351164 0.0
  endloop
endfacet
facet normal 0.0 0.0 -1.0
  outer loop
    vertex 111.09071895399673 44.94485920828057 0.0
    vertex 102.78108915000259 54.491925879351164 0.0
    vertex 102.8407189539967 54.944859208280576 0.0
  endloop
endfacet
facet normal 0.0 0.0 -1.0
  outer loop
    vertex 111.09071895399673 44.94485920828057 0.0
    vertex 102.8407189539967 54.944859208280576 0.0
    vertex 111.09071895399673 64.94485920828056 0.0
  endloop
endfacet
facet normal 0.0 0.0 -1.0
  outer loop
    vertex 71.09071895399673 64.94485920828056 5.0
    vertex 51.09071895399673 44.94485920828057 5.0
    vertex 51.09071895399673 64.94485920828056 5.0
  endloop
endfacet
facet normal 0.0 0.0 -1.0
  outer loop
    vertex 51.09071895399673 44.94485920828057 5.0
    vertex 71.09071895399673 64.94485920828056 5.0
    vertex 71.09071895399673 44.94485920828057 5.0
  endloop
endfacet
facet normal 0.0 -1.0 0.0
  outer loop
    vertex 71.09071895399673 64.94485920828056 5.0
    vertex 51.09071895399673 64.94485920828056 0.0
    vertex 71.09071895399673 64.94485920828056 0.0
  endloop
endfacet
facet normal 0.0 -1.0 0.0
  outer loop
    vertex 51.09071895399673 64.94485920828056 0.0
    vertex 71.09071895399673 64.94485920828056 5.0
    vertex 51.09071895399673 64.94485920828056 5.0
  endloop
endfacet
facet normal -0.0 1.0 -0.0
  outer loop
    vertex 51.09071895399673 44.94485920828057 5.0
    vertex 71.09071895399673 44.94485920828057 0.0
    vertex 51.09071895399673 44.94485920828057 0.0
  endloop
endfacet
facet normal -0.0 1.0 -0.0
  outer loop
    vertex 71.09071895399673 44.94485920828057 0.0
    vertex 51.09071895399673 44.94485920828057 5.0
    vertex 71.09071895399673 44.94485920828057 5.0
  endloop
endfacet
facet normal -0.0 -0.0 1.0
  outer loop
    vertex 71.09071895399673 44.94485920828057 5.0
    vertex 79.85328208692026 53.707422341204115 5.0
    vertex 71.09071895399673 64.94485920828056 5.0
  endloop
endfacet
facet normal -0.0 -0.0 1.0
  outer loop
    vertex 79.85328208692026 53.707422341204115 5.0
    vertex 71.09071895399673 44.94485920828057 5.0
    vertex 80.21571895399671 53.429314751657806 5.0
  endloop
endfacet
facet normal -0.0 -0.0 1.0
  outer loop
    vertex 80.21571895399671 53.429314751657806 5.0
    vertex 71.09071895399673 44.94485920828057 5.0
    vertex 80.63778562506731 53.25448901227471 5.0
  endloop
endfacet
facet normal -0.0 -0.0 1.0
  outer loop
    vertex 80.63778562506731 53.25448901227471 5.0
    vertex 71.09071895399673 44.94485920828057 5.0
    vertex 111.09071895399673 44.94485920828057 5.0
  endloop
endfacet
facet normal -0.0 -0.0 1.0
  outer loop
    vertex 71.09071895399673 64.94485920828056 5.0
    vertex 79.85328208692026 53.707422341204115 5.0
    vertex 79.57517449737395 54.06985920828058 5.0
  endloop
endfacet
facet normal -0.0 -0.0 1.0
  outer loop
    vertex 71.09071895399673 64.94485920828056 5.0
    vertex 79.57517449737395 54.06985920828058 5.0
    vertex 79.40034875799086 54.491925879351164 5.0
  endloop
endfacet
facet normal -0.0 -0.0 1.0
  outer loop
    vertex 71.09071895399673 64.94485920828056 5.0
    vertex 79.40034875799086 54.491925879351164 5.0
    vertex 79.34071895399673 54.944859208280576 5.0
  endloop
endfacet
facet normal -0.0 -0.0 1.0
  outer loop
    vertex 80.63778562506731 53.25448901227471 5.0
    vertex 111.09071895399673 44.94485920828057 5.0
    vertex 81.09071895399673 53.194859208280576 5.0
  endloop
endfacet
facet normal -0.0 -0.0 1.0
  outer loop
    vertex 81.09071895399673 53.194859208280576 5.0
    vertex 111.09071895399673 44.94485920828057 5.0
    vertex 81.54365228292613 53.25448901227471 5.0
  endloop
endfacet
facet normal -0.0 -0.0 1.0
  outer loop
    vertex 81.54365228292613 53.25448901227471 5.0
    vertex 111.09071895399673 44.94485920828057 5.0
    vertex 81.96571895399671 53.429314751657806 5.0
  endloop
endfacet
facet normal -0.0 -0.0 1.0
  outer loop
    vertex 81.96571895399671 53.429314751657806 5.0
    vertex 111.09071895399673 44.94485920828057 5.0
    vertex 82.32815582107318 53.707422341204115 5.0
  endloop
endfacet
facet normal -0.0 -0.0 1.0
  outer loop
    vertex 82.32815582107318 53.707422341204115 5.0
    vertex 111.09071895399673 44.94485920828057 5.0
    vertex 82.60626341061949 54.06985920828057 5.0
  endloop
endfacet
facet normal -0.0 -0.0 1.0
  outer loop
    vertex 82.60626341061949 54.06985920828057 5.0
    vertex 111.09071895399673 44.94485920828057 5.0
    vertex 82.78108915000259 54.491925879351164 5.0
  endloop
endfacet
facet normal -0.0 -0.0 1.0
  outer loop
    vertex 82.78108915000259 54.491925879351164 5.0
    vertex 111.09071895399673 44.94485920828057 5.0
    vertex 82.84071895399671 54.944859208280576 5.0
  endloop
endfacet
facet normal -0.0 -0.0 1.0
  outer loop
    vertex 82.84071895399671 54.944859208280576 5.0
    vertex 111.09071895399673 44.94485920828057 5.0
    vertex 99.85328208692026 53.707422341204115 5.0
  endloop
endfacet
facet normal -0.0 -0.0 1.0
  outer loop
    vertex 82.84071895399671 54.944859208280576 5.0
    vertex 99.85328208692026 53.707422341204115 5.0
    vertex 99.57517449737395 54.06985920828058 5.0
  endloop
endfacet
facet normal -0.0 -0.0 1.0
  outer loop
    vertex 82.84071895399671 54.944859208280576 5.0
    vertex 99.57517449737395 54.06985920828058 5.0
    vertex 99.40034875799086 54.491925879351164 5.0
  endloop
endfacet
facet normal -0.0 -0.0 1.0
  outer loop
    vertex 82.84071895399671 54.944859208280576 5.0
    vertex 99.40034875799086 54.491925879351164 5.0
    vertex 99.34071895399673 54.944859208280576 5.0
  endloop
endfacet
facet normal -0.0 -0.0 1.0
  outer loop
    vertex 99.85328208692026 53.707422341204115 5.0
    vertex 111.09071895399673 44.94485920828057 5.0
    vertex 100.21571895399671 53.429314751657806 5.0
  endloop
endfacet
facet normal -0.0 -0.0 1.0
  outer loop
    vertex 100.21571895399671 53.429314751657806 5.0
    vertex 111.09071895399673 44.94485920828057 5.0
    vertex 100.63778562506731 53.25448901227471 5.0
  endloop
endfacet
facet normal -0.0 -0.0 1.0
  outer loop
    vertex 100.63778562506731 53.25448901227471 5.0
    vertex 111.09071895399673 44.94485920828057 5.0
    vertex 101.09071895399671 53.194859208280576 5.0
  endloop
endfacet
facet normal -0.0 -0.0 1.0
  outer loop
    vertex 101.09071895399671 53.194859208280576 5.0
    vertex 111.09071895399673 44.94485920828057 5.0
    vertex 101.54365228292613 53.25448901227471 5.0
  endloop
endfacet
facet normal -0.0 -0.0 1.0
  outer loop
    vertex 101.54365228292613 53.25448901227471 5.0
    vertex 111.09071895399673 44.94485920828057 5.0
    vertex 101.96571895399673 53.429314751657806 5.0
  endloop
endfacet
facet normal -0.0 -0.0 1.0
  outer loop
    vertex 101.96571895399673 53.429314751657806 5.0
    vertex 111.09071895399673 44.94485920828057 5.0
    vertex 102.32815582107317 53.707422341204115 5.0
  endloop
endfacet
facet normal -0.0 -0.0 1.0
  outer loop
    vertex 102.32815582107317 53.707422341204115 5.0
    vertex 111.09071895399673 44.94485920828057 5.0
    vertex 102.60626341061949 54.06985920828057 5.0
  endloop
endfacet
facet normal -0.0 -0.0 1.0
  outer loop
    vertex 102.60626341061949 54.06985920828057 5.0
    vertex 111.09071895399673 44.94485920828057 5.0
    vertex 102.78108915000259 54.491925879351164 5.0
  endloop
endfacet
facet normal -0.0 -0.0 1.0
  outer loop
    vertex 102.78108915000259 54.491925879351164 5.0
    vertex 111.09071895399673 44.94485920828057 5.0
    vertex 102.8407189539967 54.944859208280576 5.0
  endloop
endfacet
facet normal -0.0 -0.0 1.0
  outer loop
    vertex 71.09071895399673 64.94485920828056 5.0
    vertex 80.63778562506731 56.635229404286434 5.0
    vertex 111.09071895399673 64.94485920828056 5.0
  endloop
endfacet
facet normal -0.0 -0.0 1.0
  outer loop
    vertex 80.63778562506731 56.635229404286434 5.0
    vertex 71.09071895399673 64.94485920828056 5.0
    vertex 80.21571895399673 56.460403664903346 5.0
  endloop
endfacet
facet normal -0.0 -0.0 1.0
  outer loop
    vertex 80.21571895399673 56.460403664903346 5.0
    vertex 71.09071895399673 64.94485920828056 5.0
    vertex 79.85328208692026 56.18229607535704 5.0
  endloop
endfacet
facet normal -0.0 -0.0 1.0
  outer loop
    vertex 79.85328208692026 56.18229607535704 5.0
    vertex 71.09071895399673 64.94485920828056 5.0
    vertex 79.57517449737396 55.819859208280576 5.0
  endloop
endfacet
facet normal -0.0 -0.0 1.0
  outer loop
    vertex 79.57517449737396 55.819859208280576 5.0
    vertex 71.09071895399673 64.94485920828056 5.0
    vertex 79.40034875799086 55.39779253720999 5.0
  endloop
endfacet
facet normal -0.0 -0.0 1.0
  outer loop
    vertex 79.40034875799086 55.39779253720999 5.0
    vertex 71.09071895399673 64.94485920828056 5.0
    vertex 79.34071895399673 54.944859208280576 5.0
  endloop
endfacet
facet normal -0.0 -0.0 1.0
  outer loop
    vertex 111.09071895399673 64.94485920828056 5.0
    vertex 80.63778562506731 56.635229404286434 5.0
    vertex 81.09071895399673 56.69485920828057 5.0
  endloop
endfacet
facet normal -0.0 -0.0 1.0
  outer loop
    vertex 111.09071895399673 64.94485920828056 5.0
    vertex 81.09071895399673 56.69485920828057 5.0
    vertex 81.54365228292613 56.635229404286434 5.0
  endloop
endfacet
facet normal -0.0 -0.0 1.0
  outer loop
    vertex 111.09071895399673 64.94485920828056 5.0
    vertex 81.54365228292613 56.635229404286434 5.0
    vertex 81.96571895399673 56.460403664903346 5.0
  endloop
endfacet
facet normal -0.0 -0.0 1.0
  outer loop
    vertex 111.09071895399673 64.94485920828056 5.0
    vertex 81.96571895399673 56.460403664903346 5.0
    vertex 82.32815582107318 56.18229607535702 5.0
  endloop
endfacet
facet normal -0.0 -0.0 1.0
  outer loop
    vertex 111.09071895399673 64.94485920828056 5.0
    vertex 82.32815582107318 56.18229607535702 5.0
    vertex 82.60626341061949 55.81985920828057 5.0
  endloop
endfacet
facet normal -0.0 -0.0 1.0
  outer loop
    vertex 111.09071895399673 64.94485920828056 5.0
    vertex 82.60626341061949 55.81985920828057 5.0
    vertex 82.78108915000259 55.39779253720999 5.0
  endloop
endfacet
facet normal -0.0 -0.0 1.0
  outer loop
    vertex 111.09071895399673 64.94485920828056 5.0
    vertex 82.78108915000259 55.39779253720999 5.0
    vertex 82.84071895399671 54.944859208280576 5.0
  endloop
endfacet
facet normal -0.0 -0.0 1.0
  outer loop
    vertex 111.09071895399673 64.94485920828056 5.0
    vertex 82.84071895399671 54.944859208280576 5.0
    vertex 99.85328208692027 56.18229607535704 5.0
  endloop
endfacet
facet normal -0.0 -0.0 1.0
  outer loop
    vertex 99.85328208692027 56.18229607535704 5.0
    vertex 82.84071895399671 54.944859208280576 5.0
    vertex 99.57517449737395 55.819859208280576 5.0
  endloop
endfacet
facet normal -0.0 -0.0 1.0
  outer loop
    vertex 99.57517449737395 55.819859208280576 5.0
    vertex 82.84071895399671 54.944859208280576 5.0
    vertex 99.40034875799086 55.39779253720999 5.0
  endloop
endfacet
facet normal -0.0 -0.0 1.0
  outer loop
    vertex 99.40034875799086 55.39779253720999 5.0
    vertex 82.84071895399671 54.944859208280576 5.0
    vertex 99.34071895399673 54.944859208280576 5.0
  endloop
endfacet
facet normal -0.0 -0.0 1.0
  outer loop
    vertex 111.09071895399673 64.94485920828056 5.0
    vertex 99.85328208692027 56.18229607535704 5.0
    vertex 100.21571895399673 56.460403664903346 5.0
  endloop
endfacet
facet normal -0.0 -0.0 1.0
  outer loop
    vertex 111.09071895399673 64.94485920828056 5.0
    vertex 100.21571895399673 56.460403664903346 5.0
    vertex 100.63778562506731 56.635229404286434 5.0
  endloop
endfacet
facet normal -0.0 -0.0 1.0
  outer loop
    vertex 111.09071895399673 64.94485920828056 5.0
    vertex 100.63778562506731 56.635229404286434 5.0
    vertex 101.09071895399671 56.69485920828057 5.0
  endloop
endfacet
facet normal -0.0 -0.0 1.0
  outer loop
    vertex 111.09071895399673 64.94485920828056 5.0
    vertex 101.09071895399671 56.69485920828057 5.0
    vertex 101.54365228292613 56.635229404286434 5.0
  endloop
endfacet
facet normal -0.0 -0.0 1.0
  outer loop
    vertex 111.09071895399673 64.94485920828056 5.0
    vertex 101.54365228292613 56.635229404286434 5.0
    vertex 101.96571895399673 56.460403664903346 5.0
  endloop
endfacet
facet normal -0.0 -0.0 1.0
  outer loop
    vertex 111.09071895399673 64.94485920828056 5.0
    vertex 101.96571895399673 56.460403664903346 5.0
    vertex 102.32815582107317 56.18229607535702 5.0
  endloop
endfacet
facet normal -0.0 -0.0 1.0
  outer loop
    vertex 111.09071895399673 64.94485920828056 5.0
    vertex 102.32815582107317 56.18229607535702 5.0
    vertex 102.60626341061949 55.81985920828057 5.0
  endloop
endfacet
facet normal -0.0 -0.0 1.0
  outer loop
    vertex 111.09071895399673 64.94485920828056 5.0
    vertex 102.60626341061949 55.81985920828057 5.0
    vertex 102.78108915000259 55.39779253720999 5.0
  endloop
endfacet
facet normal -0.0 -0.0 1.0
  outer loop
    vertex 111.09071895399673 64.94485920828056 5.0
    vertex 102.78108915000259 55.39779253720999 5.0
    vertex 102.8407189539967 54.944859208280576 5.0
  endloop
endfacet
facet normal -0.0 -0.0 1.0
  outer loop
    vertex 111.09071895399673 64.94485920828056 5.0
    vertex 102.8407189539967 54.944859208280576 5.0
    vertex 111.09071895399673 44.94485920828057 5.0
  endloop
endfacet
facet normal -0.0 1.0 -0.0
  outer loop
    vertex 71.09071895399673 64.94485920828056 5.0
    vertex 111.09071895399673 64.94485920828056 0.0
    vertex 71.09071895399673 64.94485920828056 0.0
  endloop
endfacet
facet normal -0.0 1.0 -0.0
  outer loop
    vertex 111.09071895399673 64.94485920828056 0.0
    vertex 71.09071895399673 64.94485920828056 5.0
    vertex 111.09071895399673 64.94485920828056 5.0
  endloop
endfacet
facet normal 1.0 0.0 0.0
  outer loop
    vertex 111.09071895399673 64.94485920828056 0.0
    vertex 111.09071895399673 44.94485920828057 5.0
    vertex 111.09071895399673 44.94485920828057 0.0
  endloop
endfacet
facet normal 1.0 0.0 0.0
  outer loop
    vertex 111.09071895399673 44.94485920828057 5.0
    vertex 111.09071895399673 64.94485920828056 0.0
    vertex 111.09071895399673 64.94485920828056 5.0
  endloop
endfacet
facet normal 0.0 -1.0 0.0
  outer loop
    vertex 111.09071895399673 44.94485920828057 5.0
    vertex 71.09071895399673 44.94485920828057 0.0
    vertex 111.09071895399673 44.94485920828057 0.0
  endloop
endfacet
facet normal 0.0 -1.0 0.0
  outer loop
    vertex 71.09071895399673 44.94485920828057 0.0
    vertex 111.09071895399673 44.94485920828057 5.0
    vertex 71.09071895399673 44.94485920828057 5.0
  endloop
endfacet
facet normal -0.9914448613738094 0.13052619222006065 0.0
  outer loop
    vertex 82.84071895399671 54.944859208280576 5.0
    vertex 82.78108915000259 54.491925879351164 0.0
    vertex 82.78108915000259 54.491925879351164 5.0
  endloop
endfacet
facet normal -0.9914448613738094 0.13052619222006065 0.0
  outer loop
    vertex 82.78108915000259 54.491925879351164 0.0
    vertex 82.84071895399671 54.944859208280576 5.0
    vertex 82.84071895399671 54.944859208280576 0.0
  endloop
endfacet
facet normal -0.9914448613738094 -0.13052619222006065 -0.0
  outer loop
    vertex 82.78108915000259 55.39779253720999 5.0
    vertex 82.84071895399671 54.944859208280576 0.0
    vertex 82.84071895399671 54.944859208280576 5.0
  endloop
endfacet
facet normal -0.9914448613738094 -0.13052619222006065 -0.0
  outer loop
    vertex 82.84071895399671 54.944859208280576 0.0
    vertex 82.78108915000259 55.39779253720999 5.0
    vertex 82.78108915000259 55.39779253720999 0.0
  endloop
endfacet
facet normal -0.9238795325112918 -0.3826834323650775 -0.0
  outer loop
    vertex 82.60626341061949 55.81985920828057 5.0
    vertex 82.78108915000259 55.39779253720999 0.0
    vertex 82.78108915000259 55.39779253720999 5.0
  endloop
endfacet
facet normal -0.9238795325112918 -0.3826834323650775 -0.0
  outer loop
    vertex 82.78108915000259 55.39779253720999 0.0
    vertex 82.60626341061949 55.81985920828057 5.0
    vertex 82.60626341061949 55.81985920828057 0.0
  endloop
endfacet
facet normal -0.7933533402912353 -0.6087614290087207 -0.0
  outer loop
    vertex 82.32815582107318 56.18229607535702 5.0
    vertex 82.60626341061949 55.81985920828057 0.0
    vertex 82.60626341061949 55.81985920828057 5.0
  endloop
endfacet
facet normal -0.7933533402912353 -0.6087614290087207 -0.0
  outer loop
    vertex 82.60626341061949 55.81985920828057 0.0
    vertex 82.32815582107318 56.18229607535702 5.0
    vertex 82.32815582107318 56.18229607535702 0.0
  endloop
endfacet
facet normal -0.6087614290087361 -0.7933533402912233 -0.0
  outer loop
    vertex 82.32815582107318 56.18229607535702 5.0
    vertex 81.96571895399673 56.460403664903346 0.0
    vertex 82.32815582107318 56.18229607535702 0.0
  endloop
endfacet
facet normal -0.6087614290087361 -0.7933533402912233 -0.0
  outer loop
    vertex 81.96571895399673 56.460403664903346 0.0
    vertex 82.32815582107318 56.18229607535702 5.0
    vertex 81.96571895399673 56.460403664903346 5.0
  endloop
endfacet
facet normal -0.3826834323650688 -0.9238795325112954 -0.0
  outer loop
    vertex 81.96571895399673 56.460403664903346 5.0
    vertex 81.54365228292613 56.635229404286434 0.0
    vertex 81.96571895399673 56.460403664903346 0.0
  endloop
endfacet
facet normal -0.3826834323650688 -0.9238795325112954 -0.0
  outer loop
    vertex 81.54365228292613 56.635229404286434 0.0
    vertex 81.96571895399673 56.460403664903346 5.0
    vertex 81.54365228292613 56.635229404286434 5.0
  endloop
endfacet
facet normal -0.13052619222006065 -0.9914448613738094 -0.0
  outer loop
    vertex 81.54365228292613 56.635229404286434 5.0
    vertex 81.09071895399673 56.69485920828057 0.0
    vertex 81.54365228292613 56.635229404286434 0.0
  endloop
endfacet
facet normal -0.13052619222006065 -0.9914448613738094 -0.0
  outer loop
    vertex 81.09071895399673 56.69485920828057 0.0
    vertex 81.54365228292613 56.635229404286434 5.0
    vertex 81.09071895399673 56.69485920828057 5.0
  endloop
endfacet
facet normal 0.13052619222006065 -0.9914448613738094 0.0
  outer loop
    vertex 81.09071895399673 56.69485920828057 5.0
    vertex 80.63778562506731 56.635229404286434 0.0
    vertex 81.09071895399673 56.69485920828057 0.0
  endloop
endfacet
facet normal 0.13052619222006065 -0.9914448613738094 0.0
  outer loop
    vertex 80.63778562506731 56.635229404286434 0.0
    vertex 81.09071895399673 56.69485920828057 5.0
    vertex 80.63778562506731 56.635229404286434 5.0
  endloop
endfacet
facet normal 0.3826834323650775 -0.9238795325112918 0.0
  outer loop
    vertex 80.63778562506731 56.635229404286434 5.0
    vertex 80.21571895399673 56.460403664903346 0.0
    vertex 80.63778562506731 56.635229404286434 0.0
  endloop
endfacet
facet normal 0.3826834323650775 -0.9238795325112918 0.0
  outer loop
    vertex 80.21571895399673 56.460403664903346 0.0
    vertex 80.63778562506731 56.635229404286434 5.0
    vertex 80.21571895399673 56.460403664903346 5.0
  endloop
endfacet
facet normal 0.6087614290087087 -0.7933533402912444 0.0
  outer loop
    vertex 80.21571895399673 56.460403664903346 5.0
    vertex 79.85328208692026 56.18229607535704 0.0
    vertex 80.21571895399673 56.460403664903346 0.0
  endloop
endfacet
facet normal 0.6087614290087087 -0.7933533402912444 0.0
  outer loop
    vertex 79.85328208692026 56.18229607535704 0.0
    vertex 80.21571895399673 56.460403664903346 5.0
    vertex 79.85328208692026 56.18229607535704 5.0
  endloop
endfacet
facet normal 0.7933533402912473 -0.6087614290087051 0.0
  outer loop
    vertex 79.85328208692026 56.18229607535704 0.0
    vertex 79.57517449737396 55.819859208280576 5.0
    vertex 79.57517449737396 55.819859208280576 0.0
  endloop
endfacet
facet normal 0.7933533402912473 -0.6087614290087051 0.0
  outer loop
    vertex 79.57517449737396 55.819859208280576 5.0
    vertex 79.85328208692026 56.18229607535704 0.0
    vertex 79.85328208692026 56.18229607535704 5.0
  endloop
endfacet
facet normal 0.9238795325112866 -0.38268343236508984 0.0
  outer loop
    vertex 79.57517449737396 55.819859208280576 0.0
    vertex 79.40034875799086 55.39779253720999 5.0
    vertex 79.40034875799086 55.39779253720999 0.0
  endloop
endfacet
facet normal 0.9238795325112866 -0.38268343236508984 0.0
  outer loop
    vertex 79.40034875799086 55.39779253720999 5.0
    vertex 79.57517449737396 55.819859208280576 0.0
    vertex 79.57517449737396 55.819859208280576 5.0
  endloop
endfacet
facet normal 0.9914448613738094 -0.13052619222006065 0.0
  outer loop
    vertex 79.40034875799086 55.39779253720999 0.0
    vertex 79.34071895399673 54.944859208280576 5.0
    vertex 79.34071895399673 54.944859208280576 0.0
  endloop
endfacet
facet normal 0.9914448613738094 -0.13052619222006065 0.0
  outer loop
    vertex 79.34071895399673 54.944859208280576 5.0
    vertex 79.40034875799086 55.39779253720999 0.0
    vertex 79.40034875799086 55.39779253720999 5.0
  endloop
endfacet
facet normal 0.9914448613738094 0.13052619222006065 0.0
  outer loop
    vertex 79.34071895399673 54.944859208280576 0.0
    vertex 79.40034875799086 54.491925879351164 5.0
    vertex 79.40034875799086 54.491925879351164 0.0
  endloop
endfacet
facet normal 0.9914448613738094 0.13052619222006065 0.0
  outer loop
    vertex 79.40034875799086 54.491925879351164 5.0
    vertex 79.34071895399673 54.944859208280576 0.0
    vertex 79.34071895399673 54.944859208280576 5.0
  endloop
endfacet
facet normal 0.9238795325112918 0.3826834323650775 0.0
  outer loop
    vertex 79.40034875799086 54.491925879351164 0.0
    vertex 79.57517449737395 54.06985920828058 5.0
    vertex 79.57517449737395 54.06985920828058 0.0
  endloop
endfacet
facet normal 0.9238795325112918 0.3826834323650775 0.0
  outer loop
    vertex 79.57517449737395 54.06985920828058 5.0
    vertex 79.40034875799086 54.491925879351164 0.0
    vertex 79.40034875799086 54.491925879351164 5.0
  endloop
endfacet
facet normal 0.7933533402912444 0.6087614290087087 0.0
  outer loop
    vertex 79.57517449737395 54.06985920828058 0.0
    vertex 79.85328208692026 53.707422341204115 5.0
    vertex 79.85328208692026 53.707422341204115 0.0
  endloop
endfacet
facet normal 0.7933533402912444 0.6087614290087087 0.0
  outer loop
    vertex 79.85328208692026 53.707422341204115 5.0
    vertex 79.57517449737395 54.06985920828058 0.0
    vertex 79.57517449737395 54.06985920828058 5.0
  endloop
endfacet
facet normal 0.6087614290087207 0.7933533402912353 0.0
  outer loop
    vertex 79.85328208692026 53.707422341204115 5.0
    vertex 80.21571895399671 53.429314751657806 0.0
    vertex 79.85328208692026 53.707422341204115 0.0
  endloop
endfacet
facet normal 0.6087614290087207 0.7933533402912353 0.0
  outer loop
    vertex 80.21571895399671 53.429314751657806 0.0
    vertex 79.85328208692026 53.707422341204115 5.0
    vertex 80.21571895399671 53.429314751657806 5.0
  endloop
endfacet
facet normal 0.3826834323650688 0.9238795325112954 0.0
  outer loop
    vertex 80.21571895399671 53.429314751657806 5.0
    vertex 80.63778562506731 53.25448901227471 0.0
    vertex 80.21571895399671 53.429314751657806 0.0
  endloop
endfacet
facet normal 0.3826834323650688 0.9238795325112954 0.0
  outer loop
    vertex 80.63778562506731 53.25448901227471 0.0
    vertex 80.21571895399671 53.429314751657806 5.0
    vertex 80.63778562506731 53.25448901227471 5.0
  endloop
endfacet
facet normal 0.13052619222006065 0.9914448613738094 0.0
  outer loop
    vertex 80.63778562506731 53.25448901227471 5.0
    vertex 81.09071895399673 53.194859208280576 0.0
    vertex 80.63778562506731 53.25448901227471 0.0
  endloop
endfacet
facet normal 0.13052619222006065 0.9914448613738094 0.0
  outer loop
    vertex 81.09071895399673 53.194859208280576 0.0
    vertex 80.63778562506731 53.25448901227471 5.0
    vertex 81.09071895399673 53.194859208280576 5.0
  endloop
endfacet
facet normal -0.13052619222006065 0.9914448613738094 0.0
  outer loop
    vertex 81.09071895399673 53.194859208280576 5.0
    vertex 81.54365228292613 53.25448901227471 0.0
    vertex 81.09071895399673 53.194859208280576 0.0
  endloop
endfacet
facet normal -0.13052619222006065 0.9914448613738094 0.0
  outer loop
    vertex 81.54365228292613 53.25448901227471 0.0
    vertex 81.09071895399673 53.194859208280576 5.0
    vertex 81.54365228292613 53.25448901227471 5.0
  endloop
endfacet
facet normal -0.3826834323650775 0.9238795325112918 0.0
  outer loop
    vertex 81.54365228292613 53.25448901227471 5.0
    vertex 81.96571895399671 53.429314751657806 0.0
    vertex 81.54365228292613 53.25448901227471 0.0
  endloop
endfacet
facet normal -0.3826834323650775 0.9238795325112918 0.0
  outer loop
    vertex 81.96571895399671 53.429314751657806 0.0
    vertex 81.54365228292613 53.25448901227471 5.0
    vertex 81.96571895399671 53.429314751657806 5.0
  endloop
endfacet
facet normal -0.6087614290087087 0.7933533402912444 0.0
  outer loop
    vertex 81.96571895399671 53.429314751657806 5.0
    vertex 82.32815582107318 53.707422341204115 0.0
    vertex 81.96571895399671 53.429314751657806 0.0
  endloop
endfacet
facet normal -0.6087614290087087 0.7933533402912444 0.0
  outer loop
    vertex 82.32815582107318 53.707422341204115 0.0
    vertex 81.96571895399671 53.429314751657806 5.0
    vertex 82.32815582107318 53.707422341204115 5.0
  endloop
endfacet
facet normal -0.7933533402912353 0.6087614290087207 0.0
  outer loop
    vertex 82.60626341061949 54.06985920828057 5.0
    vertex 82.32815582107318 53.707422341204115 0.0
    vertex 82.32815582107318 53.707422341204115 5.0
  endloop
endfacet
facet normal -0.7933533402912353 0.6087614290087207 0.0
  outer loop
    vertex 82.32815582107318 53.707422341204115 0.0
    vertex 82.60626341061949 54.06985920828057 5.0
    vertex 82.60626341061949 54.06985920828057 0.0
  endloop
endfacet
facet normal -0.9238795325112954 0.3826834323650688 0.0
  outer loop
    vertex 82.78108915000259 54.491925879351164 5.0
    vertex 82.60626341061949 54.06985920828057 0.0
    vertex 82.60626341061949 54.06985920828057 5.0
  endloop
endfacet
facet normal -0.9238795325112954 0.3826834323650688 0.0
  outer loop
    vertex 82.60626341061949 54.06985920828057 0.0
    vertex 82.78108915000259 54.491925879351164 5.0
    vertex 82.78108915000259 54.491925879351164 0.0
  endloop
endfacet
facet normal -0.9914448613738124 0.13052619222003636 0.0
  outer loop
    vertex 102.8407189539967 54.944859208280576 5.0
    vertex 102.78108915000259 54.491925879351164 0.0
    vertex 102.78108915000259 54.491925879351164 5.0
  endloop
endfacet
facet normal -0.9914448613738124 0.13052619222003636 0.0
  outer loop
    vertex 102.78108915000259 54.491925879351164 0.0
    vertex 102.8407189539967 54.944859208280576 5.0
    vertex 102.8407189539967 54.944859208280576 0.0
  endloop
endfacet
facet normal -0.9914448613738124 -0.13052619222003636 -0.0
  outer loop
    vertex 102.78108915000259 55.39779253720999 5.0
    vertex 102.8407189539967 54.944859208280576 0.0
    vertex 102.8407189539967 54.944859208280576 5.0
  endloop
endfacet
facet normal -0.9914448613738124 -0.13052619222003636 -0.0
  outer loop
    vertex 102.8407189539967 54.944859208280576 0.0
    vertex 102.78108915000259 55.39779253720999 5.0
    vertex 102.78108915000259 55.39779253720999 0.0
  endloop
endfacet
facet normal -0.9238795325112918 -0.3826834323650775 -0.0
  outer loop
    vertex 102.60626341061949 55.81985920828057 5.0
    vertex 102.78108915000259 55.39779253720999 0.0
    vertex 102.78108915000259 55.39779253720999 5.0
  endloop
endfacet
facet normal -0.9238795325112918 -0.3826834323650775 -0.0
  outer loop
    vertex 102.78108915000259 55.39779253720999 0.0
    vertex 102.60626341061949 55.81985920828057 5.0
    vertex 102.60626341061949 55.81985920828057 0.0
  endloop
endfacet
facet normal -0.7933533402912233 -0.6087614290087361 -0.0
  outer loop
    vertex 102.32815582107317 56.18229607535702 5.0
    vertex 102.60626341061949 55.81985920828057 0.0
    vertex 102.60626341061949 55.81985920828057 5.0
  endloop
endfacet
facet normal -0.7933533402912233 -0.6087614290087361 -0.0
  outer loop
    vertex 102.60626341061949 55.81985920828057 0.0
    vertex 102.32815582107317 56.18229607535702 5.0
    vertex 102.32815582107317 56.18229607535702 0.0
  endloop
endfacet
facet normal -0.6087614290087481 -0.7933533402912142 -0.0
  outer loop
    vertex 102.32815582107317 56.18229607535702 5.0
    vertex 101.96571895399673 56.460403664903346 0.0
    vertex 102.32815582107317 56.18229607535702 0.0
  endloop
endfacet
facet normal -0.6087614290087481 -0.7933533402912142 -0.0
  outer loop
    vertex 101.96571895399673 56.460403664903346 0.0
    vertex 102.32815582107317 56.18229607535702 5.0
    vertex 101.96571895399673 56.460403664903346 5.0
  endloop
endfacet
facet normal -0.3826834323650688 -0.9238795325112954 -0.0
  outer loop
    vertex 101.96571895399673 56.460403664903346 5.0
    vertex 101.54365228292613 56.635229404286434 0.0
    vertex 101.96571895399673 56.460403664903346 0.0
  endloop
endfacet
facet normal -0.3826834323650688 -0.9238795325112954 -0.0
  outer loop
    vertex 101.54365228292613 56.635229404286434 0.0
    vertex 101.96571895399673 56.460403664903346 5.0
    vertex 101.54365228292613 56.635229404286434 5.0
  endloop
endfacet
facet normal -0.13052619222006065 -0.9914448613738094 -0.0
  outer loop
    vertex 101.54365228292613 56.635229404286434 5.0
    vertex 101.09071895399671 56.69485920828057 0.0
    vertex 101.54365228292613 56.635229404286434 0.0
  endloop
endfacet
facet normal -0.13052619222006065 -0.9914448613738094 -0.0
  outer loop
    vertex 101.09071895399671 56.69485920828057 0.0
    vertex 101.54365228292613 56.635229404286434 5.0
    vertex 101.09071895399671 56.69485920828057 5.0
  endloop
endfacet
facet normal 0.13052619222006065 -0.9914448613738094 0.0
  outer loop
    vertex 101.09071895399671 56.69485920828057 5.0
    vertex 100.63778562506731 56.635229404286434 0.0
    vertex 101.09071895399671 56.69485920828057 0.0
  endloop
endfacet
facet normal 0.13052619222006065 -0.9914448613738094 0.0
  outer loop
    vertex 100.63778562506731 56.635229404286434 0.0
    vertex 101.09071895399671 56.69485920828057 5.0
    vertex 100.63778562506731 56.635229404286434 5.0
  endloop
endfacet
facet normal 0.3826834323650775 -0.9238795325112918 0.0
  outer loop
    vertex 100.63778562506731 56.635229404286434 5.0
    vertex 100.21571895399673 56.460403664903346 0.0
    vertex 100.63778562506731 56.635229404286434 0.0
  endloop
endfacet
facet normal 0.3826834323650775 -0.9238795325112918 0.0
  outer loop
    vertex 100.21571895399673 56.460403664903346 0.0
    vertex 100.63778562506731 56.635229404286434 5.0
    vertex 100.21571895399673 56.460403664903346 5.0
  endloop
endfacet
facet normal 0.6087614290087207 -0.7933533402912353 0.0
  outer loop
    vertex 100.21571895399673 56.460403664903346 5.0
    vertex 99.85328208692027 56.18229607535704 0.0
    vertex 100.21571895399673 56.460403664903346 0.0
  endloop
endfacet
facet normal 0.6087614290087207 -0.7933533402912353 0.0
  outer loop
    vertex 99.85328208692027 56.18229607535704 0.0
    vertex 100.21571895399673 56.460403664903346 5.0
    vertex 99.85328208692027 56.18229607535704 5.0
  endloop
endfacet
facet normal 0.7933533402912233 -0.6087614290087361 0.0
  outer loop
    vertex 99.85328208692027 56.18229607535704 0.0
    vertex 99.57517449737395 55.819859208280576 5.0
    vertex 99.57517449737395 55.819859208280576 0.0
  endloop
endfacet
facet normal 0.7933533402912233 -0.6087614290087361 0.0
  outer loop
    vertex 99.57517449737395 55.819859208280576 5.0
    vertex 99.85328208692027 56.18229607535704 0.0
    vertex 99.85328208692027 56.18229607535704 5.0
  endloop
endfacet
facet normal 0.9238795325112954 -0.3826834323650688 0.0
  outer loop
    vertex 99.57517449737395 55.819859208280576 0.0
    vertex 99.40034875799086 55.39779253720999 5.0
    vertex 99.40034875799086 55.39779253720999 0.0
  endloop
endfacet
facet normal 0.9238795325112954 -0.3826834323650688 0.0
  outer loop
    vertex 99.40034875799086 55.39779253720999 5.0
    vertex 99.57517449737395 55.819859208280576 0.0
    vertex 99.57517449737395 55.819859208280576 5.0
  endloop
endfacet
facet normal 0.9914448613738094 -0.13052619222006065 0.0
  outer loop
    vertex 99.40034875799086 55.39779253720999 0.0
    vertex 99.34071895399673 54.944859208280576 5.0
    vertex 99.34071895399673 54.944859208280576 0.0
  endloop
endfacet
facet normal 0.9914448613738094 -0.13052619222006065 0.0
  outer loop
    vertex 99.34071895399673 54.944859208280576 5.0
    vertex 99.40034875799086 55.39779253720999 0.0
    vertex 99.40034875799086 55.39779253720999 5.0
  endloop
endfacet
facet normal 0.9914448613738094 0.13052619222006065 0.0
  outer loop
    vertex 99.34071895399673 54.944859208280576 0.0
    vertex 99.40034875799086 54.491925879351164 5.0
    vertex 99.40034875799086 54.491925879351164 0.0
  endloop
endfacet
facet normal 0.9914448613738094 0.13052619222006065 0.0
  outer loop
    vertex 99.40034875799086 54.491925879351164 5.0
    vertex 99.34071895399673 54.944859208280576 0.0
    vertex 99.34071895399673 54.944859208280576 5.0
  endloop
endfacet
facet normal 0.9238795325112918 0.3826834323650775 0.0
  outer loop
    vertex 99.40034875799086 54.491925879351164 0.0
    vertex 99.57517449737395 54.06985920828058 5.0
    vertex 99.57517449737395 54.06985920828058 0.0
  endloop
endfacet
facet normal 0.9238795325112918 0.3826834323650775 0.0
  outer loop
    vertex 99.57517449737395 54.06985920828058 5.0
    vertex 99.40034875799086 54.491925879351164 0.0
    vertex 99.40034875799086 54.491925879351164 5.0
  endloop
endfacet
facet normal 0.7933533402912444 0.6087614290087087 0.0
  outer loop
    vertex 99.57517449737395 54.06985920828058 0.0
    vertex 99.85328208692026 53.707422341204115 5.0
    vertex 99.85328208692026 53.707422341204115 0.0
  endloop
endfacet
facet normal 0.7933533402912444 0.6087614290087087 0.0
  outer loop
    vertex 99.85328208692026 53.707422341204115 5.0
    vertex 99.57517449737395 54.06985920828058 0.0
    vertex 99.57517449737395 54.06985920828058 5.0
  endloop
endfacet
facet normal 0.6087614290087207 0.7933533402912353 0.0
  outer loop
    vertex 99.85328208692026 53.707422341204115 5.0
    vertex 100.21571895399671 53.429314751657806 0.0
    vertex 99.85328208692026 53.707422341204115 0.0
  endloop
endfacet
facet normal 0.6087614290087207 0.7933533402912353 0.0
  outer loop
    vertex 100.21571895399671 53.429314751657806 0.0
    vertex 99.85328208692026 53.707422341204115 5.0
    vertex 100.21571895399671 53.429314751657806 5.0
  endloop
endfacet
facet normal 0.3826834323650688 0.9238795325112954 0.0
  outer loop
    vertex 100.21571895399671 53.429314751657806 5.0
    vertex 100.63778562506731 53.25448901227471 0.0
    vertex 100.21571895399671 53.429314751657806 0.0
  endloop
endfacet
facet normal 0.3826834323650688 0.9238795325112954 0.0
  outer loop
    vertex 100.63778562506731 53.25448901227471 0.0
    vertex 100.21571895399671 53.429314751657806 5.0
    vertex 100.63778562506731 53.25448901227471 5.0
  endloop
endfacet
facet normal 0.13052619222006065 0.9914448613738094 0.0
  outer loop
    vertex 100.63778562506731 53.25448901227471 5.0
    vertex 101.09071895399671 53.194859208280576 0.0
    vertex 100.63778562506731 53.25448901227471 0.0
  endloop
endfacet
facet normal 0.13052619222006065 0.9914448613738094 0.0
  outer loop
    vertex 101.09071895399671 53.194859208280576 0.0
    vertex 100.63778562506731 53.25448901227471 5.0
    vertex 101.09071895399671 53.194859208280576 5.0
  endloop
endfacet
facet normal -0.13052619222006065 0.9914448613738094 0.0
  outer loop
    vertex 101.09071895399671 53.194859208280576 5.0
    vertex 101.54365228292613 53.25448901227471 0.0
    vertex 101.09071895399671 53.194859208280576 0.0
  endloop
endfacet
facet normal -0.13052619222006065 0.9914448613738094 0.0
  outer loop
    vertex 101.54365228292613 53.25448901227471 0.0
    vertex 101.09071895399671 53.194859208280576 5.0
    vertex 101.54365228292613 53.25448901227471 5.0
  endloop
endfacet
facet normal -0.3826834323650688 0.9238795325112954 0.0
  outer loop
    vertex 101.54365228292613 53.25448901227471 5.0
    vertex 101.96571895399673 53.429314751657806 0.0
    vertex 101.54365228292613 53.25448901227471 0.0
  endloop
endfacet
facet normal -0.3826834323650688 0.9238795325112954 0.0
  outer loop
    vertex 101.96571895399673 53.429314751657806 0.0
    vertex 101.54365228292613 53.25448901227471 5.0
    vertex 101.96571895399673 53.429314751657806 5.0
  endloop
endfacet
facet normal -0.6087614290087325 0.7933533402912261 0.0
  outer loop
    vertex 101.96571895399673 53.429314751657806 5.0
    vertex 102.32815582107317 53.707422341204115 0.0
    vertex 101.96571895399673 53.429314751657806 0.0
  endloop
endfacet
facet normal -0.6087614290087325 0.7933533402912261 0.0
  outer loop
    vertex 102.32815582107317 53.707422341204115 0.0
    vertex 101.96571895399673 53.429314751657806 5.0
    vertex 102.32815582107317 53.707422341204115 5.0
  endloop
endfacet
facet normal -0.7933533402912233 0.6087614290087361 0.0
  outer loop
    vertex 102.60626341061949 54.06985920828057 5.0
    vertex 102.32815582107317 53.707422341204115 0.0
    vertex 102.32815582107317 53.707422341204115 5.0
  endloop
endfacet
facet normal -0.7933533402912233 0.6087614290087361 0.0
  outer loop
    vertex 102.32815582107317 53.707422341204115 0.0
    vertex 102.60626341061949 54.06985920828057 5.0
    vertex 102.60626341061949 54.06985920828057 0.0
  endloop
endfacet
facet normal -0.9238795325112954 0.3826834323650688 0.0
  outer loop
    vertex 102.78108915000259 54.491925879351164 5.0
    vertex 102.60626341061949 54.06985920828057 0.0
    vertex 102.60626341061949 54.06985920828057 5.0
  endloop
endfacet
facet normal -0.9238795325112954 0.3826834323650688 0.0
  outer loop
    vertex 102.60626341061949 54.06985920828057 0.0
    vertex 102.78108915000259 54.491925879351164 5.0
    vertex 102.78108915000259 54.491925879351164 0.0
  endloop
endfacet
facet normal 0.001993596038289196 2.185882761177652e-20 -0.9999980127854435
  outer loop
    vertex 51.09071895399673 64.94485920828056 5.0
    vertex 46.09071895399673 44.94485920828057 4.990031999999999
    vertex 46.09071895399673 64.94485920828056 4.990031999999999
  endloop
endfacet
facet normal 0.001993596038289196 2.185882761177652e-20 -0.9999980127854435
  outer loop
    vertex 46.09071895399673 44.94485920828057 4.990031999999999
    vertex 51.09071895399673 64.94485920828056 5.0
    vertex 51.09071895399673 44.94485920828057 5.0
  endloop
endfacet
facet normal 0.0 -1.0 0.0
  outer loop
    vertex 51.09071895399673 64.94485920828056 5.0
    vertex 46.09071895399673 64.94485920828056 0.0
    vertex 51.09071895399673 64.94485920828056 0.0
  endloop
endfacet
facet normal 0.0 -1.0 0.0
  outer loop
    vertex 46.09071895399673 64.94485920828056 0.0
    vertex 51.09071895399673 64.94485920828056 5.0
    vertex 46.09071895399673 64.94485920828056 4.990031999999999
  endloop
endfacet
facet normal -0.0 1.0 -0.0
  outer loop
    vertex 46.09071895399673 44.94485920828057 4.990031999999999
    vertex 51.09071895399673 44.94485920828057 0.0
    vertex 46.09071895399673 44.94485920828057 0.0
  endloop
endfacet
facet normal -0.0 1.0 -0.0
  outer loop
    vertex 51.09071895399673 44.94485920828057 0.0
    vertex 46.09071895399673 44.94485920828057 4.990031999999999
    vertex 51.09071895399673 44.94485920828057 5.0
  endloop
endfacet
facet normal 1.0 -0.0 -0.0
  outer loop
    vertex 46.09071895399673 64.94485920828056 0.0
    vertex 46.09071895399673 44.94485920828057 4.990031999999999
    vertex 46.09071895399673 44.94485920828057 0.0
  endloop
endfacet
facet normal 1.0 -0.0 -0.0
  outer loop
    vertex 46.09071895399673 44.94485920828057 4.990031999999999
    vertex 46.09071895399673 64.94485920828056 0.0
    vertex 46.09071895399673 64.94485920828056 4.990031999999999
  endloop
endfacet
facet normal 1.0 -0.0 -0.0
  outer loop
    vertex 46.09071895399673 44.94485920828057 4.990031999999999
    vertex 46.09071895399673 53.707422341204115 13.762563132923542
    vertex 46.09071895399673 44.94485920828057 25.0
  endloop
endfacet
facet normal 1.0 -0.0 -0.0
  outer loop
    vertex 46.09071895399673 53.707422341204115 13.762563132923542
    vertex 46.09071895399673 44.94485920828057 4.990031999999999
    vertex 46.09071895399673 64.94485920828056 4.990031999999999
  endloop
endfacet
facet normal 1.0 -0.0 -0.0
  outer loop
    vertex 46.09071895399673 44.94485920828057 25.0
    vertex 46.09071895399673 53.707422341204115 13.762563132923542
    vertex 46.09071895399673 53.429314751657806 14.125
  endloop
endfacet
facet normal 1.0 -0.0 -0.0
  outer loop
    vertex 46.09071895399673 44.94485920828057 25.0
    vertex 46.09071895399673 53.429314751657806 14.125
    vertex 46.09071895399673 53.2544890122747 14.547066671070588
  endloop
endfacet
facet normal 1.0 -0.0 -0.0
  outer loop
    vertex 46.09071895399673 44.94485920828057 25.0
    vertex 46.09071895399673 53.2544890122747 14.547066671070588
    vertex 46.09071895399673 53.194859208280576 15.0
  endloop
endfacet
facet normal 1.0 -0.0 -0.0
  outer loop
    vertex 46.09071895399673 53.707422341204115 13.762563132923542
    vertex 46.09071895399673 64.94485920828056 4.990031999999999
    vertex 46.09071895399673 54.06985920828057 13.484455543377234
  endloop
endfacet
facet normal 1.0 -0.0 -0.0
  outer loop
    vertex 46.09071895399673 54.06985920828057 13.484455543377234
    vertex 46.09071895399673 64.94485920828056 4.990031999999999
    vertex 46.09071895399673 54.491925879351164 13.309629803994131
  endloop
endfacet
facet normal 1.0 -0.0 -0.0
  outer loop
    vertex 46.09071895399673 54.491925879351164 13.309629803994131
    vertex 46.09071895399673 64.94485920828056 4.990031999999999
    vertex 46.09071895399673 54.944859208280576 13.250000000000002
  endloop
endfacet
facet normal 1.0 -0.0 -0.0
  outer loop
    vertex 46.09071895399673 54.944859208280576 13.250000000000002
    vertex 46.09071895399673 64.94485920828056 4.990031999999999
    vertex 46.09071895399673 55.39779253720999 13.309629803994133
  endloop
endfacet
facet normal 1.0 -0.0 -0.0
  outer loop
    vertex 46.09071895399673 55.39779253720999 13.309629803994133
    vertex 46.09071895399673 64.94485920828056 4.990031999999999
    vertex 46.09071895399673 55.819859208280576 13.484455543377234
  endloop
endfacet
facet normal 1.0 -0.0 -0.0
  outer loop
    vertex 46.09071895399673 55.819859208280576 13.484455543377234
    vertex 46.09071895399673 64.94485920828056 4.990031999999999
    vertex 46.09071895399673 56.18229607535704 13.762563132923542
  endloop
endfacet
facet normal 1.0 -0.0 -0.0
  outer loop
    vertex 46.09071895399673 56.18229607535704 13.762563132923542
    vertex 46.09071895399673 64.94485920828056 4.990031999999999
    vertex 46.09071895399673 56.460403664903346 14.125000000000002
  endloop
endfacet
facet normal 1.0 -0.0 -0.0
  outer loop
    vertex 46.09071895399673 56.460403664903346 14.125000000000002
    vertex 46.09071895399673 64.94485920828056 4.990031999999999
    vertex 46.09071895399673 56.63522940428645 14.547066671070588
  endloop
endfacet
facet normal 1.0 -0.0 -0.0
  outer loop
    vertex 46.09071895399673 56.63522940428645 14.547066671070588
    vertex 46.09071895399673 64.94485920828056 4.990031999999999
    vertex 46.09071895399673 56.69485920828057 15.0
  endloop
endfacet
facet normal 1.0 -0.0 -0.0
  outer loop
    vertex 46.09071895399673 44.94485920828057 25.0
    vertex 46.09071895399673 53.707422341204115 16.237436867076458
    vertex 46.09071895399673 64.94485920828056 25.0
  endloop
endfacet
facet normal 1.0 -0.0 -0.0
  outer loop
    vertex 46.09071895399673 53.707422341204115 16.237436867076458
    vertex 46.09071895399673 44.94485920828057 25.0
    vertex 46.09071895399673 53.429314751657806 15.875
  endloop
endfacet
facet normal 1.0 -0.0 -0.0
  outer loop
    vertex 46.09071895399673 53.429314751657806 15.875
    vertex 46.09071895399673 44.94485920828057 25.0
    vertex 46.09071895399673 53.2544890122747 15.45293332892941
  endloop
endfacet
facet normal 1.0 -0.0 -0.0
  outer loop
    vertex 46.09071895399673 53.2544890122747 15.45293332892941
    vertex 46.09071895399673 44.94485920828057 25.0
    vertex 46.09071895399673 53.194859208280576 15.0
  endloop
endfacet
facet normal 1.0 -0.0 -0.0
  outer loop
    vertex 46.09071895399673 64.94485920828056 25.0
    vertex 46.09071895399673 53.707422341204115 16.237436867076458
    vertex 46.09071895399673 54.06985920828057 16.515544456622766
  endloop
endfacet
facet normal 1.0 -0.0 -0.0
  outer loop
    vertex 46.09071895399673 64.94485920828056 25.0
    vertex 46.09071895399673 54.06985920828057 16.515544456622766
    vertex 46.09071895399673 54.491925879351164 16.69037019600587
  endloop
endfacet
facet normal 1.0 -0.0 -0.0
  outer loop
    vertex 46.09071895399673 64.94485920828056 25.0
    vertex 46.09071895399673 54.491925879351164 16.69037019600587
    vertex 46.09071895399673 54.944859208280576 16.75
  endloop
endfacet
facet normal 1.0 -0.0 -0.0
  outer loop
    vertex 46.09071895399673 64.94485920828056 25.0
    vertex 46.09071895399673 54.944859208280576 16.75
    vertex 46.09071895399673 55.39779253720999 16.69037019600587
  endloop
endfacet
facet normal 1.0 -0.0 -0.0
  outer loop
    vertex 46.09071895399673 64.94485920828056 25.0
    vertex 46.09071895399673 55.39779253720999 16.69037019600587
    vertex 46.09071895399673 55.819859208280576 16.515544456622766
  endloop
endfacet
facet normal 1.0 -0.0 -0.0
  outer loop
    vertex 46.09071895399673 64.94485920828056 25.0
    vertex 46.09071895399673 55.819859208280576 16.515544456622766
    vertex 46.09071895399673 56.18229607535704 16.237436867076458
  endloop
endfacet
facet normal 1.0 -0.0 -0.0
  outer loop
    vertex 46.09071895399673 64.94485920828056 25.0
    vertex 46.09071895399673 56.18229607535704 16.237436867076458
    vertex 46.09071895399673 56.460403664903346 15.875000000000002
  endloop
endfacet
facet normal 1.0 -0.0 -0.0
  outer loop
    vertex 46.09071895399673 64.94485920828056 25.0
    vertex 46.09071895399673 56.460403664903346 15.875000000000002
    vertex 46.09071895399673 56.63522940428645 15.452933328929413
  endloop
endfacet
facet normal 1.0 -0.0 -0.0
  outer loop
    vertex 46.09071895399673 64.94485920828056 25.0
    vertex 46.09071895399673 56.63522940428645 15.452933328929413
    vertex 46.09071895399673 56.69485920828057 15.0
  endloop
endfacet
facet normal 1.0 -0.0 -0.0
  outer loop
    vertex 46.09071895399673 64.94485920828056 25.0
    vertex 46.09071895399673 56.69485920828057 15.0
    vertex 46.09071895399673 64.94485920828056 4.990031999999999
  endloop
endfacet
facet normal 0.0 -1.0 0.0
  outer loop
    vertex 51.09071895399673 64.94485920828056 5.0
    vertex 46.09071895399673 64.94485920828056 25.0
    vertex 46.09071895399673 64.94485920828056 4.990031999999999
  endloop
endfacet
facet normal 0.0 -1.0 0.0
  outer loop
    vertex 46.09071895399673 64.94485920828056 25.0
    vertex 51.09071895399673 64.94485920828056 5.0
    vertex 51.09071895399673 64.94485920828056 25.0
  endloop
endfacet
facet normal -0.0 -0.0 -1.0
  outer loop
    vertex 51.09071895399673 64.94485920828056 25.0
    vertex 46.09071895399673 44.94485920828057 25.0
    vertex 46.09071895399673 64.94485920828056 25.0
  endloop
endfacet
facet normal -0.0 -0.0 -1.0
  outer loop
    vertex 46.09071895399673 44.94485920828057 25.0
    vertex 51.09071895399673 64.94485920828056 25.0
    vertex 51.09071895399673 44.94485920828057 25.0
  endloop
endfacet
facet normal -0.0 1.0 -0.0
  outer loop
    vertex 46.09071895399673 44.94485920828057 25.0
    vertex 51.09071895399673 44.94485920828057 5.0
    vertex 46.09071895399673 44.94485920828057 4.990031999999999
  endloop
endfacet
facet normal -0.0 1.0 -0.0
  outer loop
    vertex 51.09071895399673 44.94485920828057 5.0
    vertex 46.09071895399673 44.94485920828057 25.0
    vertex 51.09071895399673 44.94485920828057 25.0
  endloop
endfacet
facet normal 0.0 0.13052619222005457 -0.99144486137381
  outer loop
    vertex 51.09071895399673 55.39779253720999 13.309629803994133
    vertex 46.09071895399673 54.944859208280576 13.250000000000002
    vertex 46.09071895399673 55.39779253720999 13.309629803994133
  endloop
endfacet
facet normal 0.0 0.13052619222005457 -0.99144486137381
  outer loop
    vertex 46.09071895399673 54.944859208280576 13.250000000000002
    vertex 51.09071895399673 55.39779253720999 13.309629803994133
    vertex 51.09071895399673 54.944859208280576 13.250000000000002
  endloop
endfacet
facet normal 0.0 -0.13052619222004852 -0.9914448613738109
  outer loop
    vertex 51.09071895399673 54.944859208280576 13.250000000000002
    vertex 46.09071895399673 54.491925879351164 13.309629803994131
    vertex 46.09071895399673 54.944859208280576 13.250000000000002
  endloop
endfacet
facet normal 0.0 -0.13052619222004852 -0.9914448613738109
  outer loop
    vertex 46.09071895399673 54.491925879351164 13.309629803994131
    vertex 51.09071895399673 54.944859208280576 13.250000000000002
    vertex 51.09071895399673 54.491925879351164 13.309629803994131
  endloop
endfacet
facet normal 0.0 -0.38268343236508995 -0.9238795325112867
  outer loop
    vertex 51.09071895399673 54.491925879351164 13.309629803994131
    vertex 46.09071895399673 54.06985920828057 13.484455543377234
    vertex 46.09071895399673 54.491925879351164 13.309629803994131
  endloop
endfacet
facet normal 0.0 -0.38268343236508995 -0.9238795325112867
  outer loop
    vertex 46.09071895399673 54.06985920828057 13.484455543377234
    vertex 51.09071895399673 54.491925879351164 13.309629803994131
    vertex 51.09071895399673 54.06985920828057 13.484455543377234
  endloop
endfacet
facet normal 0.0 -0.6087614290087205 -0.7933533402912353
  outer loop
    vertex 51.09071895399673 54.06985920828057 13.484455543377234
    vertex 46.09071895399673 53.707422341204115 13.762563132923542
    vertex 46.09071895399673 54.06985920828057 13.484455543377234
  endloop
endfacet
facet normal 0.0 -0.6087614290087205 -0.7933533402912353
  outer loop
    vertex 46.09071895399673 53.707422341204115 13.762563132923542
    vertex 51.09071895399673 54.06985920828057 13.484455543377234
    vertex 51.09071895399673 53.707422341204115 13.762563132923542
  endloop
endfacet
facet normal 0.0 -0.7933533402912353 -0.6087614290087205
  outer loop
    vertex 51.09071895399673 53.429314751657806 14.125
    vertex 46.09071895399673 53.707422341204115 13.762563132923542
    vertex 51.09071895399673 53.707422341204115 13.762563132923542
  endloop
endfacet
facet normal 0.0 -0.7933533402912353 -0.6087614290087205
  outer loop
    vertex 46.09071895399673 53.707422341204115 13.762563132923542
    vertex 51.09071895399673 53.429314751657806 14.125
    vertex 46.09071895399673 53.429314751657806 14.125
  endloop
endfacet
facet normal 0.0 -0.923879532511286 -0.3826834323650921
  outer loop
    vertex 51.09071895399673 53.2544890122747 14.547066671070588
    vertex 46.09071895399673 53.429314751657806 14.125
    vertex 51.09071895399673 53.429314751657806 14.125
  endloop
endfacet
facet normal 0.0 -0.923879532511286 -0.3826834323650921
  outer loop
    vertex 46.09071895399673 53.429314751657806 14.125
    vertex 51.09071895399673 53.2544890122747 14.547066671070588
    vertex 46.09071895399673 53.2544890122747 14.547066671070588
  endloop
endfacet
facet normal 0.0 -0.9914448613738125 -0.13052619222003636
  outer loop
    vertex 51.09071895399673 53.194859208280576 15.0
    vertex 46.09071895399673 53.2544890122747 14.547066671070588
    vertex 51.09071895399673 53.2544890122747 14.547066671070588
  endloop
endfacet
facet normal 0.0 -0.9914448613738125 -0.13052619222003636
  outer loop
    vertex 46.09071895399673 53.2544890122747 14.547066671070588
    vertex 51.09071895399673 53.194859208280576 15.0
    vertex 46.09071895399673 53.194859208280576 15.0
  endloop
endfacet
facet normal 0.0 -0.9914448613738123 0.13052619222003714
  outer loop
    vertex 51.09071895399673 53.2544890122747 15.45293332892941
    vertex 46.09071895399673 53.194859208280576 15.0
    vertex 51.09071895399673 53.194859208280576 15.0
  endloop
endfacet
facet normal 0.0 -0.9914448613738123 0.13052619222003714
  outer loop
    vertex 46.09071895399673 53.194859208280576 15.0
    vertex 51.09071895399673 53.2544890122747 15.45293332892941
    vertex 46.09071895399673 53.2544890122747 15.45293332892941
  endloop
endfacet
facet normal 0.0 -0.923879532511286 0.3826834323650921
  outer loop
    vertex 51.09071895399673 53.429314751657806 15.875
    vertex 46.09071895399673 53.2544890122747 15.45293332892941
    vertex 51.09071895399673 53.2544890122747 15.45293332892941
  endloop
endfacet
facet normal 0.0 -0.923879532511286 0.3826834323650921
  outer loop
    vertex 46.09071895399673 53.2544890122747 15.45293332892941
    vertex 51.09071895399673 53.429314751657806 15.875
    vertex 46.09071895399673 53.429314751657806 15.875
  endloop
endfacet
facet normal 0.0 -0.7933533402912375 0.6087614290087177
  outer loop
    vertex 51.09071895399673 53.707422341204115 16.237436867076458
    vertex 46.09071895399673 53.429314751657806 15.875
    vertex 51.09071895399673 53.429314751657806 15.875
  endloop
endfacet
facet normal 0.0 -0.7933533402912375 0.6087614290087177
  outer loop
    vertex 46.09071895399673 53.429314751657806 15.875
    vertex 51.09071895399673 53.707422341204115 16.237436867076458
    vertex 46.09071895399673 53.707422341204115 16.237436867076458
  endloop
endfacet
facet normal -0.0 -0.6087614290087205 0.7933533402912353
  outer loop
    vertex 51.09071895399673 53.707422341204115 16.237436867076458
    vertex 46.09071895399673 54.06985920828057 16.515544456622766
    vertex 46.09071895399673 53.707422341204115 16.237436867076458
  endloop
endfacet
facet normal -0.0 -0.6087614290087205 0.7933533402912353
  outer loop
    vertex 46.09071895399673 54.06985920828057 16.515544456622766
    vertex 51.09071895399673 53.707422341204115 16.237436867076458
    vertex 51.09071895399673 54.06985920828057 16.515544456622766
  endloop
endfacet
facet normal -0.0 -0.3826834323650846 0.9238795325112888
  outer loop
    vertex 51.09071895399673 54.06985920828057 16.515544456622766
    vertex 46.09071895399673 54.491925879351164 16.69037019600587
    vertex 46.09071895399673 54.06985920828057 16.515544456622766
  endloop
endfacet
facet normal -0.0 -0.3826834323650846 0.9238795325112888
  outer loop
    vertex 46.09071895399673 54.491925879351164 16.69037019600587
    vertex 51.09071895399673 54.06985920828057 16.515544456622766
    vertex 51.09071895399673 54.491925879351164 16.69037019600587
  endloop
endfacet
facet normal -0.0 -0.13052619222005457 0.99144486137381
  outer loop
    vertex 51.09071895399673 54.491925879351164 16.69037019600587
    vertex 46.09071895399673 54.944859208280576 16.75
    vertex 46.09071895399673 54.491925879351164 16.69037019600587
  endloop
endfacet
facet normal -0.0 -0.13052619222005457 0.99144486137381
  outer loop
    vertex 46.09071895399673 54.944859208280576 16.75
    vertex 51.09071895399673 54.491925879351164 16.69037019600587
    vertex 51.09071895399673 54.944859208280576 16.75
  endloop
endfacet
facet normal -0.0 0.13052619222005457 0.99144486137381
  outer loop
    vertex 51.09071895399673 54.944859208280576 16.75
    vertex 46.09071895399673 55.39779253720999 16.69037019600587
    vertex 46.09071895399673 54.944859208280576 16.75
  endloop
endfacet
facet normal -0.0 0.13052619222005457 0.99144486137381
  outer loop
    vertex 46.09071895399673 55.39779253720999 16.69037019600587
    vertex 51.09071895399673 54.944859208280576 16.75
    vertex 51.09071895399673 55.39779253720999 16.69037019600587
  endloop
endfacet
facet normal -0.0 0.3826834323650846 0.9238795325112888
  outer loop
    vertex 51.09071895399673 55.39779253720999 16.69037019600587
    vertex 46.09071895399673 55.819859208280576 16.515544456622766
    vertex 46.09071895399673 55.39779253720999 16.69037019600587
  endloop
endfacet
facet normal -0.0 0.3826834323650846 0.9238795325112888
  outer loop
    vertex 46.09071895399673 55.819859208280576 16.515544456622766
    vertex 51.09071895399673 55.39779253720999 16.69037019600587
    vertex 51.09071895399673 55.819859208280576 16.515544456622766
  endloop
endfacet
facet normal -0.0 0.6087614290087205 0.7933533402912353
  outer loop
    vertex 51.09071895399673 55.819859208280576 16.515544456622766
    vertex 46.09071895399673 56.18229607535704 16.237436867076458
    vertex 46.09071895399673 55.819859208280576 16.515544456622766
  endloop
endfacet
facet normal -0.0 0.6087614290087205 0.7933533402912353
  outer loop
    vertex 46.09071895399673 56.18229607535704 16.237436867076458
    vertex 51.09071895399673 55.819859208280576 16.515544456622766
    vertex 51.09071895399673 56.18229607535704 16.237436867076458
  endloop
endfacet
facet normal -0.0 0.7933533402912353 0.6087614290087205
  outer loop
    vertex 46.09071895399673 56.18229607535704 16.237436867076458
    vertex 51.09071895399673 56.460403664903346 15.875000000000002
    vertex 46.09071895399673 56.460403664903346 15.875000000000002
  endloop
endfacet
facet normal -0.0 0.7933533402912353 0.6087614290087205
  outer loop
    vertex 51.09071895399673 56.460403664903346 15.875000000000002
    vertex 46.09071895399673 56.18229607535704 16.237436867076458
    vertex 51.09071895399673 56.18229607535704 16.237436867076458
  endloop
endfacet
facet normal -0.0 0.923879532511286 0.3826834323650921
  outer loop
    vertex 46.09071895399673 56.460403664903346 15.875000000000002
    vertex 51.09071895399673 56.63522940428645 15.452933328929413
    vertex 46.09071895399673 56.63522940428645 15.452933328929413
  endloop
endfacet
facet normal -0.0 0.923879532511286 0.3826834323650921
  outer loop
    vertex 51.09071895399673 56.63522940428645 15.452933328929413
    vertex 46.09071895399673 56.460403664903346 15.875000000000002
    vertex 51.09071895399673 56.460403664903346 15.875000000000002
  endloop
endfacet
facet normal -0.0 0.9914448613738125 0.13052619222003636
  outer loop
    vertex 46.09071895399673 56.63522940428645 15.452933328929413
    vertex 51.09071895399673 56.69485920828057 15.0
    vertex 46.09071895399673 56.69485920828057 15.0
  endloop
endfacet
facet normal -0.0 0.9914448613738125 0.13052619222003636
  outer loop
    vertex 51.09071895399673 56.69485920828057 15.0
    vertex 46.09071895399673 56.63522940428645 15.452933328929413
    vertex 51.09071895399673 56.63522940428645 15.452933328929413
  endloop
endfacet
facet normal -0.0 0.9914448613738125 -0.13052619222003636
  outer loop
    vertex 46.09071895399673 56.69485920828057 15.0
    vertex 51.09071895399673 56.63522940428645 14.547066671070588
    vertex 46.09071895399673 56.63522940428645 14.547066671070588
  endloop
endfacet
facet normal -0.0 0.9914448613738125 -0.13052619222003636
  outer loop
    vertex 51.09071895399673 56.63522940428645 14.547066671070588
    vertex 46.09071895399673 56.69485920828057 15.0
    vertex 51.09071895399673 56.69485920828057 15.0
  endloop
endfacet
facet normal -0.0 0.9238795325112851 -0.3826834323650942
  outer loop
    vertex 46.09071895399673 56.63522940428645 14.547066671070588
    vertex 51.09071895399673 56.460403664903346 14.125000000000002
    vertex 46.09071895399673 56.460403664903346 14.125000000000002
  endloop
endfacet
facet normal -0.0 0.9238795325112851 -0.3826834323650942
  outer loop
    vertex 51.09071895399673 56.460403664903346 14.125000000000002
    vertex 46.09071895399673 56.63522940428645 14.547066671070588
    vertex 51.09071895399673 56.63522940428645 14.547066671070588
  endloop
endfacet
facet normal -0.0 0.7933533402912375 -0.6087614290087177
  outer loop
    vertex 46.09071895399673 56.460403664903346 14.125000000000002
    vertex 51.09071895399673 56.18229607535704 13.762563132923542
    vertex 46.09071895399673 56.18229607535704 13.762563132923542
  endloop
endfacet
facet normal -0.0 0.7933533402912375 -0.6087614290087177
  outer loop
    vertex 51.09071895399673 56.18229607535704 13.762563132923542
    vertex 46.09071895399673 56.460403664903346 14.125000000000002
    vertex 51.09071895399673 56.460403664903346 14.125000000000002
  endloop
endfacet
facet normal 0.0 0.6087614290087205 -0.7933533402912353
  outer loop
    vertex 51.09071895399673 56.18229607535704 13.762563132923542
    vertex 46.09071895399673 55.819859208280576 13.484455543377234
    vertex 46.09071895399673 56.18229607535704 13.762563132923542
  endloop
endfacet
facet normal 0.0 0.6087614290087205 -0.7933533402912353
  outer loop
    vertex 46.09071895399673 55.819859208280576 13.484455543377234
    vertex 51.09071895399673 56.18229607535704 13.762563132923542
    vertex 51.09071895399673 55.819859208280576 13.484455543377234
  endloop
endfacet
facet normal 0.0 0.3826834323650846 -0.9238795325112888
  outer loop
    vertex 51.09071895399673 55.819859208280576 13.484455543377234
    vertex 46.09071895399673 55.39779253720999 13.309629803994133
    vertex 46.09071895399673 55.819859208280576 13.484455543377234
  endloop
endfacet
facet normal 0.0 0.3826834323650846 -0.9238795325112888
  outer loop
    vertex 46.09071895399673 55.39779253720999 13.309629803994133
    vertex 51.09071895399673 55.819859208280576 13.484455543377234
    vertex 51.09071895399673 55.39779253720999 13.309629803994133
  endloop
endfacet
facet normal -1.0 0.0 0.0
  outer loop
    vertex 51.09071895399673 44.94485920828057 25.0
    vertex 51.09071895399673 53.707422341204115 16.237436867076458
    vertex 51.09071895399673 44.94485920828057 5.0
  endloop
endfacet
facet normal -1.0 0.0 0.0
  outer loop
    vertex 51.09071895399673 53.707422341204115 16.237436867076458
    vertex 51.09071895399673 44.94485920828057 25.0
    vertex 51.09071895399673 64.94485920828056 25.0
  endloop
endfacet
facet normal -1.0 0.0 0.0
  outer loop
    vertex 51.09071895399673 44.94485920828057 5.0
    vertex 51.09071895399673 53.707422341204115 16.237436867076458
    vertex 51.09071895399673 53.429314751657806 15.875
  endloop
endfacet
facet normal -1.0 0.0 0.0
  outer loop
    vertex 51.09071895399673 44.94485920828057 5.0
    vertex 51.09071895399673 53.429314751657806 15.875
    vertex 51.09071895399673 53.2544890122747 15.45293332892941
  endloop
endfacet
facet normal -1.0 0.0 0.0
  outer loop
    vertex 51.09071895399673 44.94485920828057 5.0
    vertex 51.09071895399673 53.2544890122747 15.45293332892941
    vertex 51.09071895399673 53.194859208280576 15.0
  endloop
endfacet
facet normal -1.0 0.0 0.0
  outer loop
    vertex 51.09071895399673 53.707422341204115 16.237436867076458
    vertex 51.09071895399673 64.94485920828056 25.0
    vertex 51.09071895399673 54.06985920828057 16.515544456622766
  endloop
endfacet
facet normal -1.0 0.0 0.0
  outer loop
    vertex 51.09071895399673 54.06985920828057 16.515544456622766
    vertex 51.09071895399673 64.94485920828056 25.0
    vertex 51.09071895399673 54.491925879351164 16.69037019600587
  endloop
endfacet
facet normal -1.0 0.0 0.0
  outer loop
    vertex 51.09071895399673 54.491925879351164 16.69037019600587
    vertex 51.09071895399673 64.94485920828056 25.0
    vertex 51.09071895399673 54.944859208280576 16.75
  endloop
endfacet
facet normal -1.0 0.0 0.0
  outer loop
    vertex 51.09071895399673 54.944859208280576 16.75
    vertex 51.09071895399673 64.94485920828056 25.0
    vertex 51.09071895399673 55.39779253720999 16.69037019600587
  endloop
endfacet
facet normal -1.0 0.0 0.0
  outer loop
    vertex 51.09071895399673 55.39779253720999 16.69037019600587
    vertex 51.09071895399673 64.94485920828056 25.0
    vertex 51.09071895399673 55.819859208280576 16.515544456622766
  endloop
endfacet
facet normal -1.0 0.0 0.0
  outer loop
    vertex 51.09071895399673 55.819859208280576 16.515544456622766
    vertex 51.09071895399673 64.94485920828056 25.0
    vertex 51.09071895399673 56.18229607535704 16.237436867076458
  endloop
endfacet
facet normal -1.0 0.0 0.0
  outer loop
    vertex 51.09071895399673 56.18229607535704 16.237436867076458
    vertex 51.09071895399673 64.94485920828056 25.0
    vertex 51.09071895399673 56.460403664903346 15.875000000000002
  endloop
endfacet
facet normal -1.0 0.0 0.0
  outer loop
    vertex 51.09071895399673 56.460403664903346 15.875000000000002
    vertex 51.09071895399673 64.94485920828056 25.0
    vertex 51.09071895399673 56.63522940428645 15.452933328929413
  endloop
endfacet
facet normal -1.0 0.0 0.0
  outer loop
    vertex 51.09071895399673 56.63522940428645 15.452933328929413
    vertex 51.09071895399673 64.94485920828056 25.0
    vertex 51.09071895399673 56.69485920828057 15.0
  endloop
endfacet
facet normal -1.0 0.0 0.0
  outer loop
    vertex 51.09071895399673 44.94485920828057 5.0
    vertex 51.09071895399673 53.707422341204115 13.762563132923542
    vertex 51.09071895399673 64.94485920828056 5.0
  endloop
endfacet
facet normal -1.0 0.0 0.0
  outer loop
    vertex 51.09071895399673 53.707422341204115 13.762563132923542
    vertex 51.09071895399673 44.94485920828057 5.0
    vertex 51.09071895399673 53.429314751657806 14.125
  endloop
endfacet
facet normal -1.0 0.0 0.0
  outer loop
    vertex 51.09071895399673 53.429314751657806 14.125
    vertex 51.09071895399673 44.94485920828057 5.0
    vertex 51.09071895399673 53.2544890122747 14.547066671070588
  endloop
endfacet
facet normal -1.0 0.0 0.0
  outer loop
    vertex 51.09071895399673 53.2544890122747 14.547066671070588
    vertex 51.09071895399673 44.94485920828057 5.0
    vertex 51.09071895399673 53.194859208280576 15.0
  endloop
endfacet
facet normal -1.0 0.0 0.0
  outer loop
    vertex 51.09071895399673 64.94485920828056 5.0
    vertex 51.09071895399673 53.707422341204115 13.762563132923542
    vertex 51.09071895399673 54.06985920828057 13.484455543377234
  endloop
endfacet
facet normal -1.0 0.0 0.0
  outer loop
    vertex 51.09071895399673 64.94485920828056 5.0
    vertex 51.09071895399673 54.06985920828057 13.484455543377234
    vertex 51.09071895399673 54.491925879351164 13.309629803994131
  endloop
endfacet
facet normal -1.0 0.0 0.0
  outer loop
    vertex 51.09071895399673 64.94485920828056 5.0
    vertex 51.09071895399673 54.491925879351164 13.309629803994131
    vertex 51.09071895399673 54.944859208280576 13.250000000000002
  endloop
endfacet
facet normal -1.0 0.0 0.0
  outer loop
    vertex 51.09071895399673 64.94485920828056 5.0
    vertex 51.09071895399673 54.944859208280576 13.250000000000002
    vertex 51.09071895399673 55.39779253720999 13.309629803994133
  endloop
endfacet
facet normal -1.0 0.0 0.0
  outer loop
    vertex 51.09071895399673 64.94485920828056 5.0
    vertex 51.09071895399673 55.39779253720999 13.309629803994133
    vertex 51.09071895399673 55.819859208280576 13.484455543377234
  endloop
endfacet
facet normal -1.0 0.0 0.0
  outer loop
    vertex 51.09071895399673 64.94485920828056 5.0
    vertex 51.09071895399673 55.819859208280576 13.484455543377234
    vertex 51.09071895399673 56.18229607535704 13.762563132923542
  endloop
endfacet
facet normal -1.0 0.0 0.0
  outer loop
    vertex 51.09071895399673 64.94485920828056 5.0
    vertex 51.09071895399673 56.18229607535704 13.762563132923542
    vertex 51.09071895399673 56.460403664903346 14.125000000000002
  endloop
endfacet
facet normal -1.0 0.0 0.0
  outer loop
    vertex 51.09071895399673 64.94485920828056 5.0
    vertex 51.09071895399673 56.460403664903346 14.125000000000002
    vertex 51.09071895399673 56.63522940428645 14.547066671070588
  endloop
endfacet
facet normal -1.0 0.0 0.0
  outer loop
    vertex 51.09071895399673 64.94485920828056 5.0
    vertex 51.09071895399673 56.63522940428645 14.547066671070588
    vertex 51.09071895399673 56.69485920828057 15.0
  endloop
endfacet
facet normal -1.0 0.0 0.0
  outer loop
    vertex 51.09071895399673 64.94485920828056 5.0
    vertex 51.09071895399673 56.69485920828057 15.0
    vertex 51.09071895399673 64.94485920828056 25.0
  endloop
endfacet
facet normal 0.0 0.0 -1.0
  outer loop
    vertex 51.09071895399673 64.94485920828056 0.0
    vertex 46.09071895399673 44.94485920828057 0.0
    vertex 46.09071895399673 64.94485920828056 0.0
  endloop
endfacet
facet normal 0.0 0.0 -1.0
  outer loop
    vertex 46.09071895399673 44.94485920828057 0.0
    vertex 51.09071895399673 64.94485920828056 0.0
    vertex 51.09071895399673 44.94485920828057 0.0
  endloop
endfacet
facet normal 0.0 0.0 -1.0
  outer loop
    vertex 51.09071895399673 44.94485920828057 0.0
    vertex 51.09071895399673 64.94485920828056 0.0
    vertex 71.09071895399673 64.94485920828056 0.0
  endloop
endfacet
facet normal 0.0 0.0 -1.0
  outer loop
    vertex 51.09071895399673 44.94485920828057 0.0
    vertex 71.09071895399673 64.94485920828056 0.0
    vertex 71.09071895399673 44.94485920828057 0.0
  endloop
endfacet
facet normal -1.0 0.0 0.0
  outer loop
    vertex 71.09071895399673 64.94485920828056 5.0
    vertex 71.09071895399673 44.94485920828057 0.0
    vertex 71.09071895399673 44.94485920828057 5.0
  endloop
endfacet
facet normal -1.0 0.0 0.0
  outer loop
    vertex 71.09071895399673 44.94485920828057 0.0
    vertex 71.09071895399673 64.94485920828056 5.0
    vertex 71.09071895399673 64.94485920828056 0.0
  endloop
endfacet
endsolid 90 degree single anchor
