solid liniar slide
facet normal 0.0 0.0 -1.0
  outer loop
    vertex 64.17159533601 147.224044551772 0.0
    vertex 124.17159533601 77.22404455177201 0.0
    vertex 64.17159533601 77.22404455177201 0.0
  endloop
endfacet
facet normal 0.0 0.0 -1.0
  outer loop
    vertex 124.17159533601 77.22404455177201 0.0
    vertex 64.17159533601 147.224044551772 0.0
    vertex 124.17159533601 147.224044551772 0.0
  endloop
endfacet
facet normal 1.0 0.0 0.0
  outer loop
    vertex 124.17159533601 122.72404455177202 12.999999999999998
    vertex 124.17159533601 118.22404455177202 17.0
    vertex 124.17159533601 118.22404455177202 12.999999999999998
  endloop
endfacet
facet normal 1.0 0.0 0.0
  outer loop
    vertex 124.17159533601 118.22404455177202 17.0
    vertex 124.17159533601 122.72404455177202 12.999999999999998
    vertex 124.17159533601 122.72404455177202 17.0
  endloop
endfacet
facet normal 1.0 0.0 0.0
  outer loop
    vertex 124.17159533601 147.224044551772 0.0
    vertex 124.17159533601 77.22404455177201 5.0
    vertex 124.17159533601 77.22404455177201 0.0
  endloop
endfacet
facet normal 1.0 0.0 0.0
  outer loop
    vertex 124.17159533601 77.22404455177201 5.0
    vertex 124.17159533601 147.224044551772 0.0
    vertex 124.17159533601 101.72404455177201 4.5
  endloop
endfacet
facet normal 1.0 0.0 0.0
  outer loop
    vertex 124.17159533601 77.22404455177201 5.0
    vertex 124.17159533601 101.72404455177201 4.5
    vertex 124.17159533601 97.22404455177201 5.0
  endloop
endfacet
facet normal 1.0 0.0 0.0
  outer loop
    vertex 124.17159533601 97.22404455177201 5.0
    vertex 124.17159533601 101.72404455177201 4.5
    vertex 124.17159533601 97.22404455177201 23.5
  endloop
endfacet
facet normal 1.0 0.0 0.0
  outer loop
    vertex 124.17159533601 101.72404455177201 4.5
    vertex 124.17159533601 147.224044551772 0.0
    vertex 124.17159533601 110.22404455177202 4.5
  endloop
endfacet
facet normal 1.0 0.0 0.0
  outer loop
    vertex 124.17159533601 110.22404455177202 4.5
    vertex 124.17159533601 147.224044551772 0.0
    vertex 124.17159533601 114.22404455177201 4.5
  endloop
endfacet
facet normal 1.0 0.0 0.0
  outer loop
    vertex 124.17159533601 110.22404455177202 4.5
    vertex 124.17159533601 114.22404455177201 4.5
    vertex 124.17159533601 110.22404455177202 9.0
  endloop
endfacet
facet normal 1.0 0.0 0.0
  outer loop
    vertex 124.17159533601 114.22404455177201 4.5
    vertex 124.17159533601 147.224044551772 0.0
    vertex 124.17159533601 122.72404455177202 4.5
  endloop
endfacet
facet normal 1.0 0.0 0.0
  outer loop
    vertex 124.17159533601 122.72404455177202 4.5
    vertex 124.17159533601 147.224044551772 0.0
    vertex 124.17159533601 127.22404455177201 5.0
  endloop
endfacet
facet normal 1.0 0.0 0.0
  outer loop
    vertex 124.17159533601 122.72404455177202 4.5
    vertex 124.17159533601 127.22404455177201 5.0
    vertex 124.17159533601 122.72404455177202 12.999999999999998
  endloop
endfacet
facet normal 1.0 0.0 0.0
  outer loop
    vertex 124.17159533601 122.72404455177202 12.999999999999998
    vertex 124.17159533601 127.22404455177201 5.0
    vertex 124.17159533601 122.72404455177202 17.0
  endloop
endfacet
facet normal 1.0 0.0 0.0
  outer loop
    vertex 124.17159533601 122.72404455177202 17.0
    vertex 124.17159533601 127.22404455177201 5.0
    vertex 124.17159533601 122.72404455177202 23.5
  endloop
endfacet
facet normal 1.0 0.0 0.0
  outer loop
    vertex 124.17159533601 127.22404455177201 5.0
    vertex 124.17159533601 147.224044551772 0.0
    vertex 124.17159533601 147.224044551772 5.0
  endloop
endfacet
facet normal 1.0 0.0 0.0
  outer loop
    vertex 124.17159533601 127.22404455177201 23.5
    vertex 124.17159533601 122.72404455177202 23.5
    vertex 124.17159533601 127.22404455177201 5.0
  endloop
endfacet
facet normal 1.0 0.0 0.0
  outer loop
    vertex 124.17159533601 114.22404455177201 9.0
    vertex 124.17159533601 110.22404455177202 9.0
    vertex 124.17159533601 114.22404455177201 4.5
  endloop
endfacet
facet normal 1.0 0.0 0.0
  outer loop
    vertex 124.17159533601 106.22404455177201 12.999999999999998
    vertex 124.17159533601 101.72404455177201 17.0
    vertex 124.17159533601 101.72404455177201 12.999999999999998
  endloop
endfacet
facet normal 1.0 0.0 0.0
  outer loop
    vertex 124.17159533601 101.72404455177201 17.0
    vertex 124.17159533601 106.22404455177201 12.999999999999998
    vertex 124.17159533601 106.22404455177201 17.0
  endloop
endfacet
facet normal 1.0 0.0 0.0
  outer loop
    vertex 124.17159533601 101.72404455177201 4.5
    vertex 124.17159533601 101.72404455177201 23.5
    vertex 124.17159533601 97.22404455177201 23.5
  endloop
endfacet
facet normal 1.0 0.0 0.0
  outer loop
    vertex 124.17159533601 101.72404455177201 23.5
    vertex 124.17159533601 101.72404455177201 4.5
    vertex 124.17159533601 101.72404455177201 12.999999999999998
  endloop
endfacet
facet normal 1.0 0.0 0.0
  outer loop
    vertex 124.17159533601 101.72404455177201 23.5
    vertex 124.17159533601 101.72404455177201 12.999999999999998
    vertex 124.17159533601 101.72404455177201 17.0
  endloop
endfacet
facet normal -1.0 0.0 0.0
  outer loop
    vertex 64.17159533601 106.22404455177201 17.0
    vertex 64.17159533601 101.72404455177201 12.999999999999998
    vertex 64.17159533601 101.72404455177201 17.0
  endloop
endfacet
facet normal -1.0 0.0 0.0
  outer loop
    vertex 64.17159533601 101.72404455177201 12.999999999999998
    vertex 64.17159533601 106.22404455177201 17.0
    vertex 64.17159533601 106.22404455177201 12.999999999999998
  endloop
endfacet
facet normal -1.0 0.0 0.0
  outer loop
    vertex 64.17159533601 101.72404455177201 23.5
    vertex 64.17159533601 97.22404455177201 5.0
    vertex 64.17159533601 97.22404455177201 23.5
  endloop
endfacet
facet normal -1.0 0.0 0.0
  outer loop
    vertex 64.17159533601 97.22404455177201 5.0
    vertex 64.17159533601 101.72404455177201 23.5
    vertex 64.17159533601 101.72404455177201 5.0
  endloop
endfacet
facet normal -1.0 0.0 0.0
  outer loop
    vertex 64.17159533601 101.72404455177201 5.0
    vertex 64.17159533601 101.72404455177201 23.5
    vertex 64.17159533601 101.72404455177201 17.0
  endloop
endfacet
facet normal -1.0 0.0 0.0
  outer loop
    vertex 64.17159533601 101.72404455177201 5.0
    vertex 64.17159533601 101.72404455177201 17.0
    vertex 64.17159533601 101.72404455177201 12.999999999999998
  endloop
endfacet
facet normal 0.0 0.0 1.0
  outer loop
    vertex 124.17159533601 114.22404455177201 4.5
    vertex 64.17159533601 122.72404455177202 4.5
    vertex 64.17159533601 114.22404455177201 4.5
  endloop
endfacet
facet normal 0.0 0.0 1.0
  outer loop
    vertex 64.17159533601 122.72404455177202 4.5
    vertex 124.17159533601 114.22404455177201 4.5
    vertex 124.17159533601 122.72404455177202 4.5
  endloop
endfacet
facet normal 0.0 0.0 1.0
  outer loop
    vertex 124.17159533601 122.72404455177202 23.5
    vertex 64.17159533601 127.22404455177201 23.5
    vertex 64.17159533601 122.72404455177202 23.5
  endloop
endfacet
facet normal 0.0 0.0 1.0
  outer loop
    vertex 64.17159533601 127.22404455177201 23.5
    vertex 124.17159533601 122.72404455177202 23.5
    vertex 124.17159533601 127.22404455177201 23.5
  endloop
endfacet
facet normal 0.0 -1.0 0.0
  outer loop
    vertex 124.17159533601 122.72404455177202 23.5
    vertex 64.17159533601 122.72404455177202 17.0
    vertex 124.17159533601 122.72404455177202 17.0
  endloop
endfacet
facet normal 0.0 -1.0 0.0
  outer loop
    vertex 64.17159533601 122.72404455177202 17.0
    vertex 124.17159533601 122.72404455177202 23.5
    vertex 64.17159533601 122.72404455177202 23.5
  endloop
endfacet
facet normal 0.0 0.0 1.0
  outer loop
    vertex 124.17159533601 97.22404455177201 23.5
    vertex 64.17159533601 101.72404455177201 23.5
    vertex 64.17159533601 97.22404455177201 23.5
  endloop
endfacet
facet normal 0.0 0.0 1.0
  outer loop
    vertex 64.17159533601 101.72404455177201 23.5
    vertex 124.17159533601 97.22404455177201 23.5
    vertex 124.17159533601 101.72404455177201 23.5
  endloop
endfacet
facet normal 0.0 1.0 0.0
  outer loop
    vertex 64.17159533601 101.72404455177201 5.0
    vertex 124.17159533601 101.72404455177201 4.5
    vertex 64.17159533601 101.72404455177201 4.5
  endloop
endfacet
facet normal 0.0 1.0 0.0
  outer loop
    vertex 124.17159533601 101.72404455177201 4.5
    vertex 64.17159533601 101.72404455177201 5.0
    vertex 124.17159533601 101.72404455177201 12.999999999999998
  endloop
endfacet
facet normal 0.0 1.0 0.0
  outer loop
    vertex 124.17159533601 101.72404455177201 12.999999999999998
    vertex 64.17159533601 101.72404455177201 5.0
    vertex 64.17159533601 101.72404455177201 12.999999999999998
  endloop
endfacet
facet normal -1.0 7.961175402389315e-17 2.6280944909037202e-17
  outer loop
    vertex 64.17159533601 114.22404455177201 9.0
    vertex 64.17159533601 110.22404455177202 4.5
    vertex 64.17159533601 110.22404455177202 9.0
  endloop
endfacet
facet normal -1.0 7.961175402389315e-17 2.6280944909037202e-17
  outer loop
    vertex 64.17159533601 127.22404455177201 23.5
    vertex 64.17159533601 122.72404455177202 17.0
    vertex 64.17159533601 122.72404455177202 23.5
  endloop
endfacet
facet normal -1.0 7.961175402389315e-17 2.6280944909037202e-17
  outer loop
    vertex 64.17159533601 122.72404455177202 17.0
    vertex 64.17159533601 127.22404455177201 23.5
    vertex 64.17159533601 122.72404455177202 12.999999999999998
  endloop
endfacet
facet normal -1.0 7.961175402389315e-17 2.6280944909037202e-17
  outer loop
    vertex 64.17159533601 122.72404455177202 12.999999999999998
    vertex 64.17159533601 127.22404455177201 23.5
    vertex 64.17159533601 122.72404455177202 4.5
  endloop
endfacet
facet normal -1.0 7.961175402389315e-17 2.6280944909037202e-17
  outer loop
    vertex 64.17159533601 97.22404455177201 5.0
    vertex 64.17159533601 77.22404455177201 0.0
    vertex 64.17159533601 77.22404455177201 5.0
  endloop
endfacet
facet normal -1.0 7.961175402389315e-17 2.6280944909037202e-17
  outer loop
    vertex 64.17159533601 77.22404455177201 0.0
    vertex 64.17159533601 97.22404455177201 5.0
    vertex 64.17159533601 101.72404455177201 4.5
  endloop
endfacet
facet normal -1.0 7.961175402389315e-17 2.6280944909037202e-17
  outer loop
    vertex 64.17159533601 77.22404455177201 0.0
    vertex 64.17159533601 101.72404455177201 4.5
    vertex 64.17159533601 147.224044551772 0.0
  endloop
endfacet
facet normal -1.0 7.961175402389315e-17 2.6280944909037202e-17
  outer loop
    vertex 64.17159533601 101.72404455177201 4.5
    vertex 64.17159533601 97.22404455177201 5.0
    vertex 64.17159533601 101.72404455177201 5.0
  endloop
endfacet
facet normal -1.0 7.961175402389315e-17 2.6280944909037202e-17
  outer loop
    vertex 64.17159533601 147.224044551772 0.0
    vertex 64.17159533601 101.72404455177201 4.5
    vertex 64.17159533601 110.22404455177202 4.5
  endloop
endfacet
facet normal -1.0 7.961175402389315e-17 2.6280944909037202e-17
  outer loop
    vertex 64.17159533601 147.224044551772 0.0
    vertex 64.17159533601 110.22404455177202 4.5
    vertex 64.17159533601 114.22404455177201 4.5
  endloop
endfacet
facet normal -1.0 7.961175402389315e-17 2.6280944909037202e-17
  outer loop
    vertex 64.17159533601 114.22404455177201 4.5
    vertex 64.17159533601 110.22404455177202 4.5
    vertex 64.17159533601 114.22404455177201 9.0
  endloop
endfacet
facet normal -1.0 7.961175402389315e-17 2.6280944909037202e-17
  outer loop
    vertex 64.17159533601 147.224044551772 0.0
    vertex 64.17159533601 114.22404455177201 4.5
    vertex 64.17159533601 122.72404455177202 4.5
  endloop
endfacet
facet normal -1.0 7.961175402389315e-17 2.6280944909037202e-17
  outer loop
    vertex 64.17159533601 147.224044551772 0.0
    vertex 64.17159533601 122.72404455177202 4.5
    vertex 64.17159533601 127.22404455177201 5.0
  endloop
endfacet
facet normal -1.0 7.961175402389315e-17 2.6280944909037202e-17
  outer loop
    vertex 64.17159533601 127.22404455177201 5.0
    vertex 64.17159533601 122.72404455177202 4.5
    vertex 64.17159533601 127.22404455177201 23.5
  endloop
endfacet
facet normal -1.0 7.961175402389315e-17 2.6280944909037202e-17
  outer loop
    vertex 64.17159533601 147.224044551772 0.0
    vertex 64.17159533601 127.22404455177201 5.0
    vertex 64.17159533601 147.224044551772 5.0
  endloop
endfacet
facet normal -1.0 7.961175402389315e-17 2.6280944909037202e-17
  outer loop
    vertex 64.17159533601 122.72404455177202 17.0
    vertex 64.17159533601 118.22404455177202 12.999999999999998
    vertex 64.17159533601 118.22404455177202 17.0
  endloop
endfacet
facet normal -1.0 7.961175402389315e-17 2.6280944909037202e-17
  outer loop
    vertex 64.17159533601 118.22404455177202 12.999999999999998
    vertex 64.17159533601 122.72404455177202 17.0
    vertex 64.17159533601 122.72404455177202 12.999999999999998
  endloop
endfacet
facet normal 0.0 -1.0 0.0
  outer loop
    vertex 124.17159533601 97.22404455177201 23.5
    vertex 64.17159533601 97.22404455177201 5.0
    vertex 124.17159533601 97.22404455177201 5.0
  endloop
endfacet
facet normal 0.0 -1.0 0.0
  outer loop
    vertex 64.17159533601 97.22404455177201 5.0
    vertex 124.17159533601 97.22404455177201 23.5
    vertex 64.17159533601 97.22404455177201 23.5
  endloop
endfacet
facet normal -0.0 1.0 -0.0
  outer loop
    vertex 64.17159533601 127.22404455177201 23.5
    vertex 124.17159533601 127.22404455177201 5.0
    vertex 64.17159533601 127.22404455177201 5.0
  endloop
endfacet
facet normal -0.0 1.0 -0.0
  outer loop
    vertex 124.17159533601 127.22404455177201 5.0
    vertex 64.17159533601 127.22404455177201 23.5
    vertex 124.17159533601 127.22404455177201 23.5
  endloop
endfacet
facet normal 0.0 1.0 0.0
  outer loop
    vertex 64.17159533601 147.224044551772 5.0
    vertex 124.17159533601 147.224044551772 0.0
    vertex 64.17159533601 147.224044551772 0.0
  endloop
endfacet
facet normal 0.0 1.0 0.0
  outer loop
    vertex 124.17159533601 147.224044551772 0.0
    vertex 64.17159533601 147.224044551772 5.0
    vertex 124.17159533601 147.224044551772 5.0
  endloop
endfacet
facet normal -0.0 0.0 1.0
  outer loop
    vertex 124.17159533601 127.22404455177201 5.0
    vertex 64.17159533601 147.224044551772 5.0
    vertex 64.17159533601 127.22404455177201 5.0
  endloop
endfacet
facet normal -0.0 0.0 1.0
  outer loop
    vertex 64.17159533601 147.224044551772 5.0
    vertex 124.17159533601 127.22404455177201 5.0
    vertex 124.17159533601 147.224044551772 5.0
  endloop
endfacet
facet normal 0.0 -1.0 0.0
  outer loop
    vertex 124.17159533601 77.22404455177201 5.0
    vertex 64.17159533601 77.22404455177201 0.0
    vertex 124.17159533601 77.22404455177201 0.0
  endloop
endfacet
facet normal 0.0 -1.0 0.0
  outer loop
    vertex 64.17159533601 77.22404455177201 0.0
    vertex 124.17159533601 77.22404455177201 5.0
    vertex 64.17159533601 77.22404455177201 5.0
  endloop
endfacet
facet normal 0.0 0.0 1.0
  outer loop
    vertex 124.17159533601 77.22404455177201 5.0
    vertex 64.17159533601 97.22404455177201 5.0
    vertex 64.17159533601 77.22404455177201 5.0
  endloop
endfacet
facet normal 0.0 0.0 1.0
  outer loop
    vertex 64.17159533601 97.22404455177201 5.0
    vertex 124.17159533601 77.22404455177201 5.0
    vertex 124.17159533601 97.22404455177201 5.0
  endloop
endfacet
facet normal 0.0 0.0 1.0
  outer loop
    vertex 124.17159533601 110.22404455177202 9.0
    vertex 64.17159533601 114.22404455177201 9.0
    vertex 64.17159533601 110.22404455177202 9.0
  endloop
endfacet
facet normal 0.0 0.0 1.0
  outer loop
    vertex 64.17159533601 114.22404455177201 9.0
    vertex 124.17159533601 110.22404455177202 9.0
    vertex 124.17159533601 114.22404455177201 9.0
  endloop
endfacet
facet normal 0.0 -1.0 0.0
  outer loop
    vertex 124.17159533601 110.22404455177202 9.0
    vertex 64.17159533601 110.22404455177202 4.5
    vertex 124.17159533601 110.22404455177202 4.5
  endloop
endfacet
facet normal 0.0 -1.0 0.0
  outer loop
    vertex 64.17159533601 110.22404455177202 4.5
    vertex 124.17159533601 110.22404455177202 9.0
    vertex 64.17159533601 110.22404455177202 9.0
  endloop
endfacet
facet normal 0.0 1.0 0.0
  outer loop
    vertex 64.17159533601 114.22404455177201 9.0
    vertex 124.17159533601 114.22404455177201 4.5
    vertex 64.17159533601 114.22404455177201 4.5
  endloop
endfacet
facet normal 0.0 1.0 0.0
  outer loop
    vertex 124.17159533601 114.22404455177201 4.5
    vertex 64.17159533601 114.22404455177201 9.0
    vertex 124.17159533601 114.22404455177201 9.0
  endloop
endfacet
facet normal 0.0 -1.0 0.0
  outer loop
    vertex 124.17159533601 122.72404455177202 12.999999999999998
    vertex 64.17159533601 122.72404455177202 4.5
    vertex 124.17159533601 122.72404455177202 4.5
  endloop
endfacet
facet normal 0.0 -1.0 0.0
  outer loop
    vertex 64.17159533601 122.72404455177202 4.5
    vertex 124.17159533601 122.72404455177202 12.999999999999998
    vertex 64.17159533601 122.72404455177202 12.999999999999998
  endloop
endfacet
facet normal 0.0 -1.0 0.0
  outer loop
    vertex 124.17159533601 118.22404455177202 17.0
    vertex 64.17159533601 118.22404455177202 12.999999999999998
    vertex 124.17159533601 118.22404455177202 12.999999999999998
  endloop
endfacet
facet normal 0.0 -1.0 0.0
  outer loop
    vertex 64.17159533601 118.22404455177202 12.999999999999998
    vertex 124.17159533601 118.22404455177202 17.0
    vertex 64.17159533601 118.22404455177202 17.0
  endloop
endfacet
facet normal 0.0 0.0 1.0
  outer loop
    vertex 124.17159533601 118.22404455177202 17.0
    vertex 64.17159533601 122.72404455177202 17.0
    vertex 64.17159533601 118.22404455177202 17.0
  endloop
endfacet
facet normal 0.0 0.0 1.0
  outer loop
    vertex 64.17159533601 122.72404455177202 17.0
    vertex 124.17159533601 118.22404455177202 17.0
    vertex 124.17159533601 122.72404455177202 17.0
  endloop
endfacet
facet normal 0.0 0.0 -1.0
  outer loop
    vertex 124.17159533601 122.72404455177202 12.999999999999998
    vertex 64.17159533601 118.22404455177202 12.999999999999998
    vertex 64.17159533601 122.72404455177202 12.999999999999998
  endloop
endfacet
facet normal 0.0 0.0 -1.0
  outer loop
    vertex 64.17159533601 118.22404455177202 12.999999999999998
    vertex 124.17159533601 122.72404455177202 12.999999999999998
    vertex 124.17159533601 118.22404455177202 12.999999999999998
  endloop
endfacet
facet normal 0.0 1.0 0.0
  outer loop
    vertex 64.17159533601 101.72404455177201 23.5
    vertex 124.17159533601 101.72404455177201 17.0
    vertex 64.17159533601 101.72404455177201 17.0
  endloop
endfacet
facet normal 0.0 1.0 0.0
  outer loop
    vertex 124.17159533601 101.72404455177201 17.0
    vertex 64.17159533601 101.72404455177201 23.5
    vertex 124.17159533601 101.72404455177201 23.5
  endloop
endfacet
facet normal 0.0 1.0 0.0
  outer loop
    vertex 64.17159533601 106.22404455177201 17.0
    vertex 124.17159533601 106.22404455177201 12.999999999999998
    vertex 64.17159533601 106.22404455177201 12.999999999999998
  endloop
endfacet
facet normal 0.0 1.0 0.0
  outer loop
    vertex 124.17159533601 106.22404455177201 12.999999999999998
    vertex 64.17159533601 106.22404455177201 17.0
    vertex 124.17159533601 106.22404455177201 17.0
  endloop
endfacet
facet normal 0.0 0.0 1.0
  outer loop
    vertex 124.17159533601 101.72404455177201 17.0
    vertex 64.17159533601 106.22404455177201 17.0
    vertex 64.17159533601 101.72404455177201 17.0
  endloop
endfacet
facet normal 0.0 0.0 1.0
  outer loop
    vertex 64.17159533601 106.22404455177201 17.0
    vertex 124.17159533601 101.72404455177201 17.0
    vertex 124.17159533601 106.22404455177201 17.0
  endloop
endfacet
facet normal -0.0 -0.0 -1.0
  outer loop
    vertex 124.17159533601 106.22404455177201 12.999999999999998
    vertex 64.17159533601 101.72404455177201 12.999999999999998
    vertex 64.17159533601 106.22404455177201 12.999999999999998
  endloop
endfacet
facet normal -0.0 -0.0 -1.0
  outer loop
    vertex 64.17159533601 101.72404455177201 12.999999999999998
    vertex 124.17159533601 106.22404455177201 12.999999999999998
    vertex 124.17159533601 101.72404455177201 12.999999999999998
  endloop
endfacet
facet normal 0.0 0.0 1.0
  outer loop
    vertex 124.17159533601 101.72404455177201 4.5
    vertex 64.17159533601 110.22404455177202 4.5
    vertex 64.17159533601 101.72404455177201 4.5
  endloop
endfacet
facet normal 0.0 0.0 1.0
  outer loop
    vertex 64.17159533601 110.22404455177202 4.5
    vertex 124.17159533601 101.72404455177201 4.5
    vertex 124.17159533601 110.22404455177202 4.5
  endloop
endfacet
endsolid liniar slide
